<svg width="360" height="105" viewBox="0 0 360 105" fill="none" xmlns="http://www.w3.org/2000/svg">
<g opacity="0.25" clip-path="url(#clip0_46_7846)">
<path d="M353.14 82.9C353.241 82.9754 353.324 83.0734 353.38 83.1863C353.437 83.2991 353.467 83.4237 353.467 83.55C353.467 83.6763 353.437 83.8009 353.38 83.9138C353.324 84.0266 353.241 84.1246 353.14 84.2L351.2 86.14C351.125 86.2414 351.027 86.3237 350.914 86.3804C350.801 86.4372 350.676 86.4667 350.55 86.4667C350.424 86.4667 350.299 86.4372 350.186 86.3804C350.073 86.3237 349.975 86.2414 349.9 86.14L347.96 84.2C347.859 84.1246 347.776 84.0266 347.72 83.9138C347.663 83.8009 347.633 83.6763 347.633 83.55C347.633 83.4237 347.663 83.2991 347.72 83.1863C347.776 83.0734 347.859 82.9754 347.96 82.9L349.9 80.96C349.975 80.8587 350.073 80.7763 350.186 80.7196C350.299 80.6629 350.424 80.6333 350.55 80.6333C350.676 80.6333 350.801 80.6629 350.914 80.7196C351.027 80.7763 351.125 80.8587 351.2 80.96L353.14 82.9Z" fill="#F36E35"/>
<path d="M354.18 46.64C354.321 46.7452 354.435 46.8818 354.514 47.0389C354.592 47.196 354.633 47.3693 354.633 47.545C354.633 47.7207 354.592 47.894 354.514 48.0511C354.435 48.2082 354.321 48.3448 354.18 48.45L351.46 51.17C351.355 51.3107 351.218 51.425 351.061 51.5037C350.904 51.5824 350.731 51.6234 350.555 51.6234C350.379 51.6234 350.206 51.5824 350.049 51.5037C349.892 51.425 349.755 51.3107 349.65 51.17L346.93 48.45C346.789 48.3448 346.675 48.2082 346.596 48.0511C346.518 47.894 346.477 47.7207 346.477 47.545C346.477 47.3693 346.518 47.196 346.596 47.0389C346.675 46.8818 346.789 46.7452 346.93 46.64L349.65 43.92C349.755 43.7793 349.892 43.6651 350.049 43.5864C350.206 43.5077 350.379 43.4667 350.555 43.4667C350.731 43.4667 350.904 43.5077 351.061 43.5864C351.218 43.6651 351.355 43.7793 351.46 43.92L354.18 46.64Z" fill="#F36E35"/>
<path d="M355.22 10.38C355.4 10.5161 355.546 10.6922 355.647 10.8943C355.748 11.0965 355.8 11.3192 355.8 11.545C355.8 11.7708 355.748 11.9936 355.647 12.1957C355.546 12.3979 355.4 12.5739 355.22 12.71L351.72 16.21C351.584 16.3902 351.408 16.5364 351.206 16.637C351.004 16.7376 350.781 16.79 350.555 16.79C350.329 16.79 350.106 16.7376 349.904 16.637C349.702 16.5364 349.526 16.3902 349.39 16.21L345.89 12.71C345.71 12.5739 345.564 12.3979 345.463 12.1957C345.362 11.9936 345.31 11.7708 345.31 11.545C345.31 11.3192 345.362 11.0965 345.463 10.8943C345.564 10.6922 345.71 10.5161 345.89 10.38L349.39 6.88004C349.526 6.69985 349.702 6.55368 349.904 6.45303C350.106 6.35239 350.329 6.30002 350.555 6.30002C350.781 6.30002 351.004 6.35239 351.206 6.45303C351.408 6.55368 351.584 6.69985 351.72 6.88004L355.22 10.38Z" fill="#F36E35"/>
<path d="M317.14 82.9C317.241 82.9754 317.324 83.0734 317.38 83.1863C317.437 83.2991 317.467 83.4237 317.467 83.55C317.467 83.6763 317.437 83.8009 317.38 83.9138C317.324 84.0266 317.241 84.1246 317.14 84.2L315.2 86.14C315.125 86.2414 315.027 86.3237 314.914 86.3804C314.801 86.4372 314.676 86.4667 314.55 86.4667C314.424 86.4667 314.299 86.4372 314.186 86.3804C314.073 86.3237 313.975 86.2414 313.9 86.14L311.96 84.2C311.859 84.1246 311.776 84.0266 311.72 83.9138C311.663 83.8009 311.633 83.6763 311.633 83.55C311.633 83.4237 311.663 83.2991 311.72 83.1863C311.776 83.0734 311.859 82.9754 311.96 82.9L313.9 80.96C313.975 80.8587 314.073 80.7763 314.186 80.7196C314.299 80.6629 314.424 80.6333 314.55 80.6333C314.676 80.6333 314.801 80.6629 314.914 80.7196C315.027 80.7763 315.125 80.8587 315.2 80.96L317.14 82.9Z" fill="#F36E35"/>
<path d="M318.18 46.64C318.321 46.7452 318.435 46.8818 318.514 47.0389C318.592 47.196 318.633 47.3693 318.633 47.545C318.633 47.7207 318.592 47.894 318.514 48.0511C318.435 48.2082 318.321 48.3448 318.18 48.45L315.46 51.17C315.355 51.3107 315.218 51.425 315.061 51.5037C314.904 51.5824 314.731 51.6234 314.555 51.6234C314.379 51.6234 314.206 51.5824 314.049 51.5037C313.892 51.425 313.755 51.3107 313.65 51.17L310.93 48.45C310.789 48.3448 310.675 48.2082 310.596 48.0511C310.518 47.894 310.477 47.7207 310.477 47.545C310.477 47.3693 310.518 47.196 310.596 47.0389C310.675 46.8818 310.789 46.7452 310.93 46.64L313.65 43.92C313.755 43.7793 313.892 43.6651 314.049 43.5864C314.206 43.5077 314.379 43.4667 314.555 43.4667C314.731 43.4667 314.904 43.5077 315.061 43.5864C315.218 43.6651 315.355 43.7793 315.46 43.92L318.18 46.64Z" fill="#F36E35"/>
<path d="M319.22 10.38C319.4 10.5161 319.546 10.6922 319.647 10.8943C319.748 11.0965 319.8 11.3192 319.8 11.545C319.8 11.7708 319.748 11.9936 319.647 12.1957C319.546 12.3979 319.4 12.5739 319.22 12.71L315.72 16.21C315.584 16.3902 315.408 16.5364 315.206 16.637C315.004 16.7376 314.781 16.79 314.555 16.79C314.329 16.79 314.106 16.7376 313.904 16.637C313.702 16.5364 313.526 16.3902 313.39 16.21L309.89 12.71C309.71 12.5739 309.564 12.3979 309.463 12.1957C309.362 11.9936 309.31 11.7708 309.31 11.545C309.31 11.3192 309.362 11.0965 309.463 10.8943C309.564 10.6922 309.71 10.5161 309.89 10.38L313.39 6.88004C313.526 6.69985 313.702 6.55368 313.904 6.45303C314.106 6.35239 314.329 6.30002 314.555 6.30002C314.781 6.30002 315.004 6.35239 315.206 6.45303C315.408 6.55368 315.584 6.69985 315.72 6.88004L319.22 10.38Z" fill="#F36E35"/>
<path d="M281.14 82.9C281.241 82.9754 281.324 83.0734 281.38 83.1863C281.437 83.2991 281.467 83.4237 281.467 83.55C281.467 83.6763 281.437 83.8009 281.38 83.9138C281.324 84.0266 281.241 84.1246 281.14 84.2L279.2 86.14C279.125 86.2414 279.027 86.3237 278.914 86.3804C278.801 86.4372 278.676 86.4667 278.55 86.4667C278.424 86.4667 278.299 86.4372 278.186 86.3804C278.073 86.3237 277.975 86.2414 277.9 86.14L275.96 84.2C275.859 84.1246 275.776 84.0266 275.72 83.9138C275.663 83.8009 275.633 83.6763 275.633 83.55C275.633 83.4237 275.663 83.2991 275.72 83.1863C275.776 83.0734 275.859 82.9754 275.96 82.9L277.9 80.96C277.975 80.8587 278.073 80.7763 278.186 80.7196C278.299 80.6629 278.424 80.6333 278.55 80.6333C278.676 80.6333 278.801 80.6629 278.914 80.7196C279.027 80.7763 279.125 80.8587 279.2 80.96L281.14 82.9Z" fill="#F36E35"/>
<path d="M282.18 46.64C282.321 46.7452 282.435 46.8818 282.514 47.0389C282.592 47.196 282.633 47.3693 282.633 47.545C282.633 47.7207 282.592 47.894 282.514 48.0511C282.435 48.2082 282.321 48.3448 282.18 48.45L279.46 51.17C279.355 51.3107 279.218 51.425 279.061 51.5037C278.904 51.5824 278.731 51.6234 278.555 51.6234C278.379 51.6234 278.206 51.5824 278.049 51.5037C277.892 51.425 277.755 51.3107 277.65 51.17L274.93 48.45C274.789 48.3448 274.675 48.2082 274.596 48.0511C274.518 47.894 274.477 47.7207 274.477 47.545C274.477 47.3693 274.518 47.196 274.596 47.0389C274.675 46.8818 274.789 46.7452 274.93 46.64L277.65 43.92C277.755 43.7793 277.892 43.6651 278.049 43.5864C278.206 43.5077 278.379 43.4667 278.555 43.4667C278.731 43.4667 278.904 43.5077 279.061 43.5864C279.218 43.6651 279.355 43.7793 279.46 43.92L282.18 46.64Z" fill="#F36E35"/>
<path d="M283.22 10.38C283.4 10.5161 283.546 10.6922 283.647 10.8943C283.748 11.0965 283.8 11.3192 283.8 11.545C283.8 11.7708 283.748 11.9936 283.647 12.1957C283.546 12.3979 283.4 12.5739 283.22 12.71L279.72 16.21C279.584 16.3902 279.408 16.5364 279.206 16.637C279.004 16.7376 278.781 16.79 278.555 16.79C278.329 16.79 278.106 16.7376 277.904 16.637C277.702 16.5364 277.526 16.3902 277.39 16.21L273.89 12.71C273.71 12.5739 273.564 12.3979 273.463 12.1957C273.362 11.9936 273.31 11.7708 273.31 11.545C273.31 11.3192 273.362 11.0965 273.463 10.8943C273.564 10.6922 273.71 10.5161 273.89 10.38L277.39 6.88004C277.526 6.69985 277.702 6.55368 277.904 6.45303C278.106 6.35239 278.329 6.30002 278.555 6.30002C278.781 6.30002 279.004 6.35239 279.206 6.45303C279.408 6.55368 279.584 6.69985 279.72 6.88004L283.22 10.38Z" fill="#F36E35"/>
<path d="M245.14 82.9C245.241 82.9754 245.324 83.0734 245.38 83.1863C245.437 83.2991 245.467 83.4237 245.467 83.55C245.467 83.6763 245.437 83.8009 245.38 83.9138C245.324 84.0266 245.241 84.1246 245.14 84.2L243.2 86.14C243.125 86.2414 243.027 86.3237 242.914 86.3804C242.801 86.4372 242.676 86.4667 242.55 86.4667C242.424 86.4667 242.299 86.4372 242.186 86.3804C242.073 86.3237 241.975 86.2414 241.9 86.14L239.96 84.2C239.859 84.1246 239.776 84.0266 239.72 83.9138C239.663 83.8009 239.633 83.6763 239.633 83.55C239.633 83.4237 239.663 83.2991 239.72 83.1863C239.776 83.0734 239.859 82.9754 239.96 82.9L241.9 80.96C241.975 80.8587 242.073 80.7763 242.186 80.7196C242.299 80.6629 242.424 80.6333 242.55 80.6333C242.676 80.6333 242.801 80.6629 242.914 80.7196C243.027 80.7763 243.125 80.8587 243.2 80.96L245.14 82.9Z" fill="#F36E35"/>
<path d="M246.18 46.64C246.321 46.7452 246.435 46.8818 246.514 47.0389C246.592 47.196 246.633 47.3693 246.633 47.545C246.633 47.7207 246.592 47.894 246.514 48.0511C246.435 48.2082 246.321 48.3448 246.18 48.45L243.46 51.17C243.355 51.3107 243.218 51.425 243.061 51.5037C242.904 51.5824 242.731 51.6234 242.555 51.6234C242.379 51.6234 242.206 51.5824 242.049 51.5037C241.892 51.425 241.755 51.3107 241.65 51.17L238.93 48.45C238.789 48.3448 238.675 48.2082 238.596 48.0511C238.518 47.894 238.477 47.7207 238.477 47.545C238.477 47.3693 238.518 47.196 238.596 47.0389C238.675 46.8818 238.789 46.7452 238.93 46.64L241.65 43.92C241.755 43.7793 241.892 43.6651 242.049 43.5864C242.206 43.5077 242.379 43.4667 242.555 43.4667C242.731 43.4667 242.904 43.5077 243.061 43.5864C243.218 43.6651 243.355 43.7793 243.46 43.92L246.18 46.64Z" fill="#F36E35"/>
<path d="M247.22 10.38C247.4 10.5161 247.546 10.6922 247.647 10.8943C247.748 11.0965 247.8 11.3192 247.8 11.545C247.8 11.7708 247.748 11.9936 247.647 12.1957C247.546 12.3979 247.4 12.5739 247.22 12.71L243.72 16.21C243.584 16.3902 243.408 16.5364 243.206 16.637C243.004 16.7376 242.781 16.79 242.555 16.79C242.329 16.79 242.106 16.7376 241.904 16.637C241.702 16.5364 241.526 16.3902 241.39 16.21L237.89 12.71C237.71 12.5739 237.564 12.3979 237.463 12.1957C237.362 11.9936 237.31 11.7708 237.31 11.545C237.31 11.3192 237.362 11.0965 237.463 10.8943C237.564 10.6922 237.71 10.5161 237.89 10.38L241.39 6.88004C241.526 6.69985 241.702 6.55368 241.904 6.45303C242.106 6.35239 242.329 6.30002 242.555 6.30002C242.781 6.30002 243.004 6.35239 243.206 6.45303C243.408 6.55368 243.584 6.69985 243.72 6.88004L247.22 10.38Z" fill="#F36E35"/>
<path d="M209.14 82.9001C209.241 82.9754 209.324 83.0734 209.38 83.1863C209.437 83.2992 209.467 83.4237 209.467 83.55C209.467 83.6764 209.437 83.8009 209.38 83.9138C209.324 84.0266 209.241 84.1247 209.14 84.2L207.2 86.14C207.125 86.2414 207.027 86.3237 206.914 86.3805C206.801 86.4372 206.676 86.4667 206.55 86.4667C206.424 86.4667 206.299 86.4372 206.186 86.3805C206.073 86.3237 205.975 86.2414 205.9 86.14L203.96 84.2C203.859 84.1247 203.776 84.0266 203.72 83.9138C203.663 83.8009 203.633 83.6764 203.633 83.55C203.633 83.4237 203.663 83.2992 203.72 83.1863C203.776 83.0734 203.859 82.9754 203.96 82.9001L205.9 80.9601C205.975 80.8587 206.073 80.7764 206.186 80.7196C206.299 80.6629 206.424 80.6334 206.55 80.6334C206.676 80.6334 206.801 80.6629 206.914 80.7196C207.027 80.7764 207.125 80.8587 207.2 80.9601L209.14 82.9001Z" fill="#F36E35"/>
<path d="M210.18 46.64C210.321 46.7452 210.435 46.8818 210.514 47.0389C210.592 47.196 210.633 47.3693 210.633 47.545C210.633 47.7207 210.592 47.894 210.514 48.0511C210.435 48.2082 210.321 48.3448 210.18 48.45L207.46 51.17C207.355 51.3107 207.218 51.425 207.061 51.5037C206.904 51.5824 206.731 51.6234 206.555 51.6234C206.379 51.6234 206.206 51.5824 206.049 51.5037C205.892 51.425 205.755 51.3107 205.65 51.17L202.93 48.45C202.789 48.3448 202.675 48.2082 202.596 48.0511C202.518 47.894 202.477 47.7207 202.477 47.545C202.477 47.3693 202.518 47.196 202.596 47.0389C202.675 46.8818 202.789 46.7452 202.93 46.64L205.65 43.92C205.755 43.7793 205.892 43.6651 206.049 43.5864C206.206 43.5077 206.379 43.4667 206.555 43.4667C206.731 43.4667 206.904 43.5077 207.061 43.5864C207.218 43.6651 207.355 43.7793 207.46 43.92L210.18 46.64Z" fill="#F36E35"/>
<path d="M211.22 10.38C211.4 10.5161 211.546 10.6922 211.647 10.8943C211.748 11.0965 211.8 11.3192 211.8 11.545C211.8 11.7708 211.748 11.9936 211.647 12.1957C211.546 12.3979 211.4 12.5739 211.22 12.71L207.72 16.21C207.584 16.3902 207.408 16.5364 207.206 16.637C207.004 16.7376 206.781 16.79 206.555 16.79C206.329 16.79 206.106 16.7376 205.904 16.637C205.702 16.5364 205.526 16.3902 205.39 16.21L201.89 12.71C201.71 12.5739 201.564 12.3979 201.463 12.1957C201.362 11.9936 201.31 11.7708 201.31 11.545C201.31 11.3192 201.362 11.0965 201.463 10.8943C201.564 10.6922 201.71 10.5161 201.89 10.38L205.39 6.88004C205.526 6.69985 205.702 6.55368 205.904 6.45303C206.106 6.35239 206.329 6.30002 206.555 6.30002C206.781 6.30002 207.004 6.35239 207.206 6.45303C207.408 6.55368 207.584 6.69985 207.72 6.88004L211.22 10.38Z" fill="#F36E35"/>
<path d="M173.14 82.9001C173.241 82.9754 173.324 83.0734 173.38 83.1863C173.437 83.2992 173.467 83.4237 173.467 83.55C173.467 83.6764 173.437 83.8009 173.38 83.9138C173.324 84.0266 173.241 84.1247 173.14 84.2L171.2 86.14C171.125 86.2414 171.027 86.3237 170.914 86.3805C170.801 86.4372 170.676 86.4667 170.55 86.4667C170.424 86.4667 170.299 86.4372 170.186 86.3805C170.073 86.3237 169.975 86.2414 169.9 86.14L167.96 84.2C167.859 84.1247 167.776 84.0266 167.72 83.9138C167.663 83.8009 167.633 83.6764 167.633 83.55C167.633 83.4237 167.663 83.2992 167.72 83.1863C167.776 83.0734 167.859 82.9754 167.96 82.9001L169.9 80.9601C169.975 80.8587 170.073 80.7764 170.186 80.7196C170.299 80.6629 170.424 80.6334 170.55 80.6334C170.676 80.6334 170.801 80.6629 170.914 80.7196C171.027 80.7764 171.125 80.8587 171.2 80.9601L173.14 82.9001Z" fill="#F36E35"/>
<path d="M174.18 46.64C174.321 46.7453 174.435 46.8818 174.514 47.0389C174.592 47.196 174.633 47.3693 174.633 47.545C174.633 47.7208 174.592 47.894 174.514 48.0511C174.435 48.2082 174.321 48.3448 174.18 48.45L171.46 51.17C171.355 51.3108 171.218 51.425 171.061 51.5037C170.904 51.5824 170.731 51.6234 170.555 51.6234C170.379 51.6234 170.206 51.5824 170.049 51.5037C169.892 51.425 169.755 51.3108 169.65 51.17L166.93 48.45C166.789 48.3448 166.675 48.2082 166.596 48.0511C166.518 47.894 166.477 47.7208 166.477 47.545C166.477 47.3693 166.518 47.196 166.596 47.0389C166.675 46.8818 166.789 46.7453 166.93 46.64L169.65 43.92C169.755 43.7793 169.892 43.6651 170.049 43.5864C170.206 43.5077 170.379 43.4667 170.555 43.4667C170.731 43.4667 170.904 43.5077 171.061 43.5864C171.218 43.6651 171.355 43.7793 171.46 43.92L174.18 46.64Z" fill="#F36E35"/>
<path d="M175.22 10.3801C175.4 10.5162 175.546 10.6922 175.647 10.8943C175.748 11.0965 175.8 11.3192 175.8 11.545C175.8 11.7709 175.748 11.9936 175.647 12.1957C175.546 12.3979 175.4 12.5739 175.22 12.71L171.72 16.21C171.584 16.3902 171.408 16.5364 171.206 16.637C171.004 16.7377 170.781 16.79 170.555 16.79C170.329 16.79 170.106 16.7377 169.904 16.637C169.702 16.5364 169.526 16.3902 169.39 16.21L165.89 12.71C165.71 12.5739 165.564 12.3979 165.463 12.1957C165.362 11.9936 165.31 11.7709 165.31 11.545C165.31 11.3192 165.362 11.0965 165.463 10.8943C165.564 10.6922 165.71 10.5162 165.89 10.3801L169.39 6.88007C169.526 6.69988 169.702 6.55371 169.904 6.45306C170.106 6.35242 170.329 6.30005 170.555 6.30005C170.781 6.30005 171.004 6.35242 171.206 6.45306C171.408 6.55371 171.584 6.69988 171.72 6.88007L175.22 10.3801Z" fill="#F36E35"/>
<path d="M137.14 82.9001C137.241 82.9754 137.324 83.0734 137.38 83.1863C137.437 83.2992 137.467 83.4237 137.467 83.55C137.467 83.6764 137.437 83.8009 137.38 83.9138C137.324 84.0266 137.241 84.1247 137.14 84.2L135.2 86.14C135.125 86.2414 135.027 86.3237 134.914 86.3805C134.801 86.4372 134.676 86.4667 134.55 86.4667C134.424 86.4667 134.299 86.4372 134.186 86.3805C134.073 86.3237 133.975 86.2414 133.9 86.14L131.96 84.2C131.859 84.1247 131.776 84.0266 131.72 83.9138C131.663 83.8009 131.633 83.6764 131.633 83.55C131.633 83.4237 131.663 83.2992 131.72 83.1863C131.776 83.0734 131.859 82.9754 131.96 82.9001L133.9 80.9601C133.975 80.8587 134.073 80.7764 134.186 80.7196C134.299 80.6629 134.424 80.6334 134.55 80.6334C134.676 80.6334 134.801 80.6629 134.914 80.7196C135.027 80.7764 135.125 80.8587 135.2 80.9601L137.14 82.9001Z" fill="#F36E35"/>
<path d="M138.18 46.64C138.321 46.7453 138.435 46.8818 138.514 47.0389C138.592 47.196 138.633 47.3693 138.633 47.545C138.633 47.7208 138.592 47.894 138.514 48.0511C138.435 48.2082 138.321 48.3448 138.18 48.45L135.46 51.17C135.355 51.3108 135.218 51.425 135.061 51.5037C134.904 51.5824 134.731 51.6234 134.555 51.6234C134.379 51.6234 134.206 51.5824 134.049 51.5037C133.892 51.425 133.755 51.3108 133.65 51.17L130.93 48.45C130.789 48.3448 130.675 48.2082 130.596 48.0511C130.518 47.894 130.477 47.7208 130.477 47.545C130.477 47.3693 130.518 47.196 130.596 47.0389C130.675 46.8818 130.789 46.7453 130.93 46.64L133.65 43.92C133.755 43.7793 133.892 43.6651 134.049 43.5864C134.206 43.5077 134.379 43.4667 134.555 43.4667C134.731 43.4667 134.904 43.5077 135.061 43.5864C135.218 43.6651 135.355 43.7793 135.46 43.92L138.18 46.64Z" fill="#F36E35"/>
<path d="M139.22 10.3801C139.4 10.5162 139.546 10.6922 139.647 10.8943C139.748 11.0965 139.8 11.3192 139.8 11.545C139.8 11.7709 139.748 11.9936 139.647 12.1957C139.546 12.3979 139.4 12.5739 139.22 12.71L135.72 16.21C135.584 16.3902 135.408 16.5364 135.206 16.637C135.004 16.7377 134.781 16.79 134.555 16.79C134.329 16.79 134.106 16.7377 133.904 16.637C133.702 16.5364 133.526 16.3902 133.39 16.21L129.89 12.71C129.71 12.5739 129.564 12.3979 129.463 12.1957C129.362 11.9936 129.31 11.7709 129.31 11.545C129.31 11.3192 129.362 11.0965 129.463 10.8943C129.564 10.6922 129.71 10.5162 129.89 10.3801L133.39 6.88007C133.526 6.69988 133.702 6.55371 133.904 6.45306C134.106 6.35242 134.329 6.30005 134.555 6.30005C134.781 6.30005 135.004 6.35242 135.206 6.45306C135.408 6.55371 135.584 6.69988 135.72 6.88007L139.22 10.3801Z" fill="#F36E35"/>
<path d="M101.14 82.9001C101.241 82.9754 101.324 83.0734 101.38 83.1863C101.437 83.2992 101.467 83.4237 101.467 83.55C101.467 83.6764 101.437 83.8009 101.38 83.9138C101.324 84.0266 101.241 84.1247 101.14 84.2L99.2 86.14C99.1247 86.2414 99.0266 86.3237 98.9138 86.3805C98.8009 86.4372 98.6764 86.4667 98.55 86.4667C98.4237 86.4667 98.2992 86.4372 98.1863 86.3805C98.0734 86.3237 97.9754 86.2414 97.9001 86.14L95.9601 84.2C95.8587 84.1247 95.7764 84.0266 95.7196 83.9138C95.6629 83.8009 95.6334 83.6764 95.6334 83.55C95.6334 83.4237 95.6629 83.2992 95.7196 83.1863C95.7764 83.0734 95.8587 82.9754 95.9601 82.9001L97.9001 80.9601C97.9754 80.8587 98.0734 80.7764 98.1863 80.7196C98.2992 80.6629 98.4237 80.6334 98.55 80.6334C98.6764 80.6334 98.8009 80.6629 98.9138 80.7196C99.0266 80.7764 99.1247 80.8587 99.2 80.9601L101.14 82.9001Z" fill="#F36E35"/>
<path d="M102.18 46.64C102.321 46.7453 102.435 46.8818 102.514 47.0389C102.592 47.196 102.633 47.3693 102.633 47.545C102.633 47.7208 102.592 47.894 102.514 48.0511C102.435 48.2082 102.321 48.3448 102.18 48.45L99.4601 51.17C99.3548 51.3108 99.2183 51.425 99.0612 51.5037C98.9041 51.5824 98.7308 51.6234 98.5551 51.6234C98.3793 51.6234 98.2061 51.5824 98.049 51.5037C97.8918 51.425 97.7553 51.3108 97.6501 51.17L94.9301 48.45C94.7893 48.3448 94.6751 48.2082 94.5964 48.0511C94.5177 47.894 94.4767 47.7208 94.4767 47.545C94.4767 47.3693 94.5177 47.196 94.5964 47.0389C94.6751 46.8818 94.7893 46.7453 94.9301 46.64L97.6501 43.92C97.7553 43.7793 97.8918 43.6651 98.0489 43.5864C98.2061 43.5077 98.3793 43.4667 98.5551 43.4667C98.7308 43.4667 98.9041 43.5077 99.0612 43.5864C99.2183 43.6651 99.3548 43.7793 99.4601 43.92L102.18 46.64Z" fill="#F36E35"/>
<path d="M103.22 10.3801C103.4 10.5162 103.546 10.6922 103.647 10.8943C103.748 11.0965 103.8 11.3192 103.8 11.545C103.8 11.7709 103.748 11.9936 103.647 12.1957C103.546 12.3979 103.4 12.5739 103.22 12.71L99.7201 16.21C99.584 16.3902 99.4079 16.5364 99.2057 16.637C99.0036 16.7377 98.7809 16.79 98.5551 16.79C98.3292 16.79 98.1065 16.7377 97.9044 16.637C97.7022 16.5364 97.5262 16.3902 97.39 16.21L93.89 12.71C93.7099 12.5739 93.5637 12.3979 93.463 12.1957C93.3624 11.9936 93.31 11.7709 93.31 11.545C93.31 11.3192 93.3624 11.0965 93.463 10.8943C93.5637 10.6922 93.7099 10.5162 93.89 10.3801L97.39 6.88007C97.5261 6.69988 97.7022 6.55371 97.9044 6.45306C98.1065 6.35242 98.3292 6.30005 98.5551 6.30005C98.7809 6.30005 99.0036 6.35242 99.2057 6.45306C99.4079 6.55371 99.584 6.69988 99.7201 6.88007L103.22 10.3801Z" fill="#F36E35"/>
<path d="M65.14 82.9001C65.2414 82.9754 65.3237 83.0734 65.3805 83.1863C65.4372 83.2992 65.4667 83.4237 65.4667 83.55C65.4667 83.6764 65.4372 83.8009 65.3805 83.9138C65.3237 84.0266 65.2414 84.1247 65.14 84.2L63.2 86.14C63.1247 86.2414 63.0266 86.3237 62.9138 86.3805C62.8009 86.4372 62.6764 86.4667 62.55 86.4667C62.4237 86.4667 62.2992 86.4372 62.1863 86.3805C62.0734 86.3237 61.9754 86.2414 61.9001 86.14L59.9601 84.2C59.8587 84.1247 59.7764 84.0266 59.7196 83.9138C59.6629 83.8009 59.6334 83.6764 59.6334 83.55C59.6334 83.4237 59.6629 83.2992 59.7196 83.1863C59.7764 83.0734 59.8587 82.9754 59.9601 82.9001L61.9001 80.9601C61.9754 80.8587 62.0734 80.7764 62.1863 80.7196C62.2992 80.6629 62.4237 80.6334 62.55 80.6334C62.6764 80.6334 62.8009 80.6629 62.9138 80.7196C63.0266 80.7764 63.1247 80.8587 63.2 80.9601L65.14 82.9001Z" fill="#F36E35"/>
<path d="M66.1801 46.64C66.3208 46.7453 66.435 46.8818 66.5137 47.0389C66.5924 47.196 66.6334 47.3693 66.6334 47.545C66.6334 47.7208 66.5924 47.894 66.5137 48.0511C66.435 48.2082 66.3208 48.3448 66.1801 48.45L63.4601 51.17C63.3548 51.3108 63.2183 51.425 63.0612 51.5037C62.9041 51.5824 62.7308 51.6234 62.5551 51.6234C62.3793 51.6234 62.2061 51.5824 62.049 51.5037C61.8918 51.425 61.7553 51.3108 61.6501 51.17L58.9301 48.45C58.7893 48.3448 58.6751 48.2082 58.5964 48.0511C58.5177 47.894 58.4767 47.7208 58.4767 47.545C58.4767 47.3693 58.5177 47.196 58.5964 47.0389C58.6751 46.8818 58.7893 46.7453 58.9301 46.64L61.6501 43.92C61.7553 43.7793 61.8918 43.6651 62.0489 43.5864C62.2061 43.5077 62.3793 43.4667 62.5551 43.4667C62.7308 43.4667 62.9041 43.5077 63.0612 43.5864C63.2183 43.6651 63.3548 43.7793 63.4601 43.92L66.1801 46.64Z" fill="#F36E35"/>
<path d="M67.2201 10.3801C67.4002 10.5162 67.5464 10.6922 67.647 10.8943C67.7477 11.0965 67.8 11.3192 67.8 11.545C67.8 11.7709 67.7477 11.9936 67.647 12.1957C67.5464 12.3979 67.4003 12.5739 67.2201 12.71L63.7201 16.21C63.584 16.3902 63.4079 16.5364 63.2057 16.637C63.0036 16.7377 62.7809 16.79 62.5551 16.79C62.3292 16.79 62.1065 16.7377 61.9044 16.637C61.7022 16.5364 61.5262 16.3902 61.39 16.21L57.89 12.71C57.7099 12.5739 57.5637 12.3979 57.463 12.1957C57.3624 11.9936 57.31 11.7709 57.31 11.545C57.31 11.3192 57.3624 11.0965 57.463 10.8943C57.5637 10.6922 57.7099 10.5162 57.89 10.3801L61.39 6.88007C61.5261 6.69988 61.7022 6.55371 61.9044 6.45306C62.1065 6.35242 62.3292 6.30005 62.5551 6.30005C62.7809 6.30005 63.0036 6.35242 63.2057 6.45306C63.4079 6.55371 63.584 6.69988 63.7201 6.88007L67.2201 10.3801Z" fill="#F36E35"/>
<path d="M29.14 82.9001C29.2414 82.9754 29.3237 83.0734 29.3805 83.1863C29.4372 83.2992 29.4667 83.4237 29.4667 83.55C29.4667 83.6764 29.4372 83.8009 29.3805 83.9138C29.3237 84.0266 29.2414 84.1247 29.14 84.2L27.2 86.14C27.1247 86.2414 27.0266 86.3237 26.9138 86.3805C26.8009 86.4372 26.6764 86.4667 26.55 86.4667C26.4237 86.4667 26.2992 86.4372 26.1863 86.3805C26.0734 86.3237 25.9754 86.2414 25.9001 86.14L23.9601 84.2C23.8587 84.1247 23.7764 84.0266 23.7196 83.9138C23.6629 83.8009 23.6334 83.6764 23.6334 83.55C23.6334 83.4237 23.6629 83.2992 23.7196 83.1863C23.7764 83.0734 23.8587 82.9754 23.9601 82.9001L25.9001 80.9601C25.9754 80.8587 26.0734 80.7764 26.1863 80.7196C26.2992 80.6629 26.4237 80.6334 26.55 80.6334C26.6764 80.6334 26.8009 80.6629 26.9138 80.7196C27.0266 80.7764 27.1247 80.8587 27.2 80.9601L29.14 82.9001Z" fill="#F36E35"/>
<path d="M30.18 46.64C30.3207 46.7453 30.435 46.8818 30.5137 47.0389C30.5924 47.196 30.6334 47.3693 30.6334 47.545C30.6334 47.7208 30.5924 47.894 30.5137 48.0511C30.435 48.2082 30.3207 48.3448 30.18 48.45L27.46 51.17C27.3548 51.3108 27.2182 51.425 27.0611 51.5037C26.904 51.5824 26.7307 51.6234 26.555 51.6234C26.3793 51.6234 26.206 51.5824 26.0489 51.5037C25.8918 51.425 25.7552 51.3108 25.65 51.17L22.93 48.45C22.7893 48.3448 22.675 48.2082 22.5963 48.0511C22.5176 47.894 22.4767 47.7208 22.4767 47.545C22.4767 47.3693 22.5176 47.196 22.5963 47.0389C22.675 46.8818 22.7893 46.7453 22.93 46.64L25.65 43.92C25.7552 43.7793 25.8918 43.6651 26.0489 43.5864C26.206 43.5077 26.3793 43.4667 26.555 43.4667C26.7307 43.4667 26.904 43.5077 27.0611 43.5864C27.2182 43.6651 27.3548 43.7793 27.46 43.92L30.18 46.64Z" fill="#F36E35"/>
<path d="M31.2201 10.3801C31.4002 10.5162 31.5464 10.6922 31.647 10.8943C31.7477 11.0965 31.8 11.3192 31.8 11.545C31.8 11.7709 31.7477 11.9936 31.647 12.1957C31.5464 12.3979 31.4003 12.5739 31.2201 12.71L27.7201 16.21C27.584 16.3902 27.4079 16.5364 27.2057 16.637C27.0036 16.7377 26.7809 16.79 26.5551 16.79C26.3292 16.79 26.1065 16.7377 25.9044 16.637C25.7022 16.5364 25.5262 16.3902 25.39 16.21L21.89 12.71C21.7099 12.5739 21.5637 12.3979 21.463 12.1957C21.3624 11.9936 21.31 11.7709 21.31 11.545C21.31 11.3192 21.3624 11.0965 21.463 10.8943C21.5637 10.6922 21.7099 10.5162 21.89 10.3801L25.39 6.88007C25.5261 6.69988 25.7022 6.55371 25.9044 6.45306C26.1065 6.35242 26.3292 6.30005 26.5551 6.30005C26.7809 6.30005 27.0036 6.35242 27.2057 6.45306C27.4079 6.55371 27.584 6.69988 27.7201 6.88007L31.2201 10.3801Z" fill="#F36E35"/>
<path d="M334.85 100.97C334.939 101.037 335.011 101.124 335.061 101.224C335.111 101.324 335.137 101.434 335.137 101.545C335.137 101.657 335.111 101.766 335.061 101.866C335.011 101.966 334.939 102.053 334.85 102.12L333.12 103.85C333.053 103.939 332.966 104.011 332.866 104.061C332.767 104.111 332.657 104.137 332.545 104.137C332.434 104.137 332.324 104.111 332.224 104.061C332.124 104.011 332.037 103.939 331.97 103.85L330.24 102.12C330.151 102.053 330.079 101.966 330.029 101.866C329.979 101.766 329.953 101.657 329.953 101.545C329.953 101.434 329.979 101.324 330.029 101.224C330.079 101.124 330.151 101.037 330.24 100.97L331.97 99.24C332.037 99.151 332.124 99.0787 332.224 99.029C332.324 98.9792 332.434 98.9533 332.545 98.9533C332.657 98.9533 332.767 98.9792 332.866 99.029C332.966 99.0787 333.053 99.151 333.12 99.24L334.85 100.97Z" fill="#F36E35"/>
<path d="M336.01 64.69C336.145 64.7906 336.254 64.9211 336.329 65.0713C336.404 65.2214 336.443 65.3871 336.443 65.555C336.443 65.723 336.404 65.8886 336.329 66.0388C336.254 66.1889 336.145 66.3195 336.01 66.42L333.42 69.01C333.319 69.1445 333.189 69.2537 333.039 69.3289C332.889 69.4042 332.723 69.4434 332.555 69.4434C332.387 69.4434 332.221 69.4042 332.071 69.3289C331.921 69.2537 331.791 69.1445 331.69 69.01L329.1 66.42C328.966 66.3195 328.856 66.1889 328.781 66.0388C328.706 65.8886 328.667 65.723 328.667 65.555C328.667 65.3871 328.706 65.2214 328.781 65.0713C328.856 64.9211 328.966 64.7906 329.1 64.69L331.69 62.1C331.791 61.9655 331.921 61.8563 332.071 61.7811C332.221 61.7058 332.387 61.6667 332.555 61.6667C332.723 61.6667 332.889 61.7058 333.039 61.7811C333.189 61.8563 333.319 61.9655 333.42 62.1L336.01 64.69Z" fill="#F36E35"/>
<path d="M337.16 28.4C337.338 28.5342 337.483 28.7079 337.582 28.9075C337.682 29.1071 337.733 29.327 337.733 29.55C337.733 29.773 337.682 29.9929 337.582 30.1925C337.483 30.3921 337.338 30.5658 337.16 30.7L333.7 34.16C333.566 34.3381 333.392 34.4826 333.193 34.5821C332.993 34.6816 332.773 34.7334 332.55 34.7334C332.327 34.7334 332.107 34.6816 331.908 34.5821C331.708 34.4826 331.534 34.3381 331.4 34.16L327.94 30.7C327.762 30.5658 327.617 30.3921 327.518 30.1925C327.418 29.9929 327.367 29.773 327.367 29.55C327.367 29.327 327.418 29.1071 327.518 28.9075C327.617 28.7079 327.762 28.5342 327.94 28.4L331.4 24.94C331.534 24.762 331.708 24.6175 331.908 24.518C332.107 24.4185 332.327 24.3667 332.55 24.3667C332.773 24.3667 332.993 24.4185 333.193 24.518C333.392 24.6175 333.566 24.762 333.7 24.94L337.16 28.4Z" fill="#F36E35"/>
<path d="M338.31 -7.88998C338.534 -7.72232 338.715 -7.50491 338.84 -7.25497C338.965 -7.00503 339.03 -6.72942 339.03 -6.44998C339.03 -6.17054 338.965 -5.89493 338.84 -5.64499C338.715 -5.39505 338.534 -5.17764 338.31 -5.00998L333.99 -0.689971C333.822 -0.466419 333.605 -0.284973 333.355 -0.160003C333.105 -0.0350333 332.829 0.0299993 332.55 0.0299993C332.271 0.0299994 331.995 -0.0350332 331.745 -0.160003C331.495 -0.284973 331.278 -0.466418 331.11 -0.689971L326.79 -5.00998C326.566 -5.17764 326.385 -5.39505 326.26 -5.64499C326.135 -5.89493 326.07 -6.17054 326.07 -6.44998C326.07 -6.72942 326.135 -7.00503 326.26 -7.25497C326.385 -7.50491 326.566 -7.72232 326.79 -7.88998L331.11 -12.21C331.278 -12.4335 331.495 -12.615 331.745 -12.74C331.995 -12.8649 332.271 -12.93 332.55 -12.93C332.829 -12.93 333.105 -12.8649 333.355 -12.74C333.605 -12.615 333.822 -12.4335 333.99 -12.21L338.31 -7.88998Z" fill="#F36E35"/>
<path d="M298.85 100.97C298.939 101.037 299.011 101.124 299.061 101.224C299.111 101.324 299.137 101.434 299.137 101.545C299.137 101.657 299.111 101.766 299.061 101.866C299.011 101.966 298.939 102.053 298.85 102.12L297.12 103.85C297.053 103.939 296.966 104.011 296.866 104.061C296.767 104.111 296.657 104.137 296.545 104.137C296.434 104.137 296.324 104.111 296.224 104.061C296.124 104.011 296.037 103.939 295.97 103.85L294.24 102.12C294.151 102.053 294.079 101.966 294.029 101.866C293.979 101.766 293.953 101.657 293.953 101.545C293.953 101.434 293.979 101.324 294.029 101.224C294.079 101.124 294.151 101.037 294.24 100.97L295.97 99.24C296.037 99.151 296.124 99.0787 296.224 99.029C296.324 98.9792 296.434 98.9533 296.545 98.9533C296.657 98.9533 296.767 98.9792 296.866 99.029C296.966 99.0787 297.053 99.151 297.12 99.24L298.85 100.97Z" fill="#F36E35"/>
<path d="M300.01 64.69C300.145 64.7906 300.254 64.9211 300.329 65.0713C300.404 65.2214 300.443 65.3871 300.443 65.555C300.443 65.723 300.404 65.8886 300.329 66.0388C300.254 66.1889 300.145 66.3195 300.01 66.42L297.42 69.01C297.319 69.1445 297.189 69.2537 297.039 69.3289C296.889 69.4042 296.723 69.4434 296.555 69.4434C296.387 69.4434 296.221 69.4042 296.071 69.3289C295.921 69.2537 295.791 69.1445 295.69 69.01L293.1 66.42C292.966 66.3195 292.856 66.1889 292.781 66.0388C292.706 65.8886 292.667 65.723 292.667 65.555C292.667 65.3871 292.706 65.2214 292.781 65.0713C292.856 64.9211 292.966 64.7906 293.1 64.69L295.69 62.1C295.791 61.9655 295.921 61.8563 296.071 61.7811C296.221 61.7058 296.387 61.6667 296.555 61.6667C296.723 61.6667 296.889 61.7058 297.039 61.7811C297.189 61.8563 297.319 61.9655 297.42 62.1L300.01 64.69Z" fill="#F36E35"/>
<path d="M301.16 28.4C301.338 28.5342 301.483 28.7079 301.582 28.9075C301.682 29.1071 301.733 29.327 301.733 29.55C301.733 29.773 301.682 29.9929 301.582 30.1925C301.483 30.3921 301.338 30.5658 301.16 30.7L297.7 34.16C297.566 34.3381 297.392 34.4826 297.193 34.5821C296.993 34.6816 296.773 34.7334 296.55 34.7334C296.327 34.7334 296.107 34.6816 295.908 34.5821C295.708 34.4826 295.534 34.3381 295.4 34.16L291.94 30.7C291.762 30.5658 291.617 30.3921 291.518 30.1925C291.418 29.9929 291.367 29.773 291.367 29.55C291.367 29.327 291.418 29.1071 291.518 28.9075C291.617 28.7079 291.762 28.5342 291.94 28.4L295.4 24.94C295.534 24.762 295.708 24.6175 295.908 24.518C296.107 24.4185 296.327 24.3667 296.55 24.3667C296.773 24.3667 296.993 24.4185 297.193 24.518C297.392 24.6175 297.566 24.762 297.7 24.94L301.16 28.4Z" fill="#F36E35"/>
<path d="M302.31 -7.88998C302.534 -7.72232 302.715 -7.50491 302.84 -7.25497C302.965 -7.00503 303.03 -6.72942 303.03 -6.44998C303.03 -6.17054 302.965 -5.89493 302.84 -5.64499C302.715 -5.39505 302.534 -5.17764 302.31 -5.00998L297.99 -0.689971C297.822 -0.466419 297.605 -0.284973 297.355 -0.160003C297.105 -0.0350333 296.829 0.0299993 296.55 0.0299993C296.271 0.0299994 295.995 -0.0350332 295.745 -0.160003C295.495 -0.284973 295.278 -0.466418 295.11 -0.689971L290.79 -5.00998C290.566 -5.17764 290.385 -5.39505 290.26 -5.64499C290.135 -5.89493 290.07 -6.17054 290.07 -6.44998C290.07 -6.72942 290.135 -7.00503 290.26 -7.25497C290.385 -7.50491 290.566 -7.72232 290.79 -7.88998L295.11 -12.21C295.278 -12.4335 295.495 -12.615 295.745 -12.74C295.995 -12.8649 296.271 -12.93 296.55 -12.93C296.829 -12.93 297.105 -12.8649 297.355 -12.74C297.605 -12.615 297.822 -12.4335 297.99 -12.21L302.31 -7.88998Z" fill="#F36E35"/>
<path d="M262.85 100.97C262.939 101.037 263.011 101.124 263.061 101.224C263.111 101.324 263.137 101.434 263.137 101.545C263.137 101.657 263.111 101.766 263.061 101.866C263.011 101.966 262.939 102.053 262.85 102.12L261.12 103.85C261.053 103.939 260.966 104.011 260.866 104.061C260.767 104.111 260.657 104.137 260.545 104.137C260.434 104.137 260.324 104.111 260.224 104.061C260.124 104.011 260.037 103.939 259.97 103.85L258.24 102.12C258.151 102.053 258.079 101.966 258.029 101.866C257.979 101.766 257.953 101.657 257.953 101.545C257.953 101.434 257.979 101.324 258.029 101.224C258.079 101.124 258.151 101.037 258.24 100.97L259.97 99.24C260.037 99.151 260.124 99.0787 260.224 99.029C260.324 98.9792 260.434 98.9533 260.545 98.9533C260.657 98.9533 260.767 98.9792 260.866 99.029C260.966 99.0787 261.053 99.151 261.12 99.24L262.85 100.97Z" fill="#F36E35"/>
<path d="M264.01 64.69C264.145 64.7906 264.254 64.9211 264.329 65.0713C264.404 65.2214 264.443 65.3871 264.443 65.555C264.443 65.723 264.404 65.8886 264.329 66.0388C264.254 66.1889 264.145 66.3195 264.01 66.42L261.42 69.01C261.319 69.1445 261.189 69.2537 261.039 69.3289C260.889 69.4042 260.723 69.4434 260.555 69.4434C260.387 69.4434 260.221 69.4042 260.071 69.3289C259.921 69.2537 259.791 69.1445 259.69 69.01L257.1 66.42C256.966 66.3195 256.856 66.1889 256.781 66.0388C256.706 65.8886 256.667 65.723 256.667 65.555C256.667 65.3871 256.706 65.2214 256.781 65.0713C256.856 64.9211 256.966 64.7906 257.1 64.69L259.69 62.1C259.791 61.9655 259.921 61.8563 260.071 61.7811C260.221 61.7058 260.387 61.6667 260.555 61.6667C260.723 61.6667 260.889 61.7058 261.039 61.7811C261.189 61.8563 261.319 61.9655 261.42 62.1L264.01 64.69Z" fill="#F36E35"/>
<path d="M265.16 28.4C265.338 28.5342 265.483 28.7079 265.582 28.9075C265.682 29.1071 265.733 29.327 265.733 29.55C265.733 29.773 265.682 29.9929 265.582 30.1925C265.483 30.3921 265.338 30.5658 265.16 30.7L261.7 34.16C261.566 34.3381 261.392 34.4826 261.193 34.5821C260.993 34.6816 260.773 34.7334 260.55 34.7334C260.327 34.7334 260.107 34.6816 259.908 34.5821C259.708 34.4826 259.534 34.3381 259.4 34.16L255.94 30.7C255.762 30.5658 255.617 30.3921 255.518 30.1925C255.418 29.9929 255.367 29.773 255.367 29.55C255.367 29.327 255.418 29.1071 255.518 28.9075C255.617 28.7079 255.762 28.5342 255.94 28.4L259.4 24.94C259.534 24.762 259.708 24.6175 259.908 24.518C260.107 24.4185 260.327 24.3667 260.55 24.3667C260.773 24.3667 260.993 24.4185 261.193 24.518C261.392 24.6175 261.566 24.762 261.7 24.94L265.16 28.4Z" fill="#F36E35"/>
<path d="M266.31 -7.88998C266.534 -7.72232 266.715 -7.50491 266.84 -7.25497C266.965 -7.00503 267.03 -6.72942 267.03 -6.44998C267.03 -6.17054 266.965 -5.89493 266.84 -5.64499C266.715 -5.39505 266.534 -5.17764 266.31 -5.00998L261.99 -0.689971C261.822 -0.466419 261.605 -0.284973 261.355 -0.160003C261.105 -0.0350333 260.829 0.0299993 260.55 0.0299993C260.271 0.0299994 259.995 -0.0350332 259.745 -0.160003C259.495 -0.284973 259.278 -0.466418 259.11 -0.689971L254.79 -5.00998C254.566 -5.17764 254.385 -5.39505 254.26 -5.64499C254.135 -5.89493 254.07 -6.17054 254.07 -6.44998C254.07 -6.72942 254.135 -7.00503 254.26 -7.25497C254.385 -7.50491 254.566 -7.72232 254.79 -7.88998L259.11 -12.21C259.278 -12.4335 259.495 -12.615 259.745 -12.74C259.995 -12.8649 260.271 -12.93 260.55 -12.93C260.829 -12.93 261.105 -12.8649 261.355 -12.74C261.605 -12.615 261.822 -12.4335 261.99 -12.21L266.31 -7.88998Z" fill="#F36E35"/>
<path d="M226.85 100.97C226.939 101.037 227.011 101.124 227.061 101.224C227.111 101.324 227.137 101.434 227.137 101.545C227.137 101.657 227.111 101.766 227.061 101.866C227.011 101.966 226.939 102.053 226.85 102.12L225.12 103.85C225.053 103.939 224.966 104.011 224.866 104.061C224.767 104.111 224.657 104.137 224.545 104.137C224.434 104.137 224.324 104.111 224.224 104.061C224.124 104.011 224.037 103.939 223.97 103.85L222.24 102.12C222.151 102.053 222.079 101.966 222.029 101.866C221.979 101.766 221.953 101.657 221.953 101.545C221.953 101.434 221.979 101.324 222.029 101.224C222.079 101.124 222.151 101.037 222.24 100.97L223.97 99.24C224.037 99.151 224.124 99.0787 224.224 99.029C224.324 98.9792 224.434 98.9533 224.545 98.9533C224.657 98.9533 224.767 98.9792 224.866 99.029C224.966 99.0787 225.053 99.151 225.12 99.24L226.85 100.97Z" fill="#F36E35"/>
<path d="M228.01 64.69C228.145 64.7906 228.254 64.9211 228.329 65.0713C228.404 65.2214 228.443 65.3871 228.443 65.555C228.443 65.723 228.404 65.8886 228.329 66.0388C228.254 66.1889 228.145 66.3195 228.01 66.42L225.42 69.01C225.319 69.1445 225.189 69.2537 225.039 69.3289C224.889 69.4042 224.723 69.4434 224.555 69.4434C224.387 69.4434 224.221 69.4042 224.071 69.3289C223.921 69.2537 223.791 69.1445 223.69 69.01L221.1 66.42C220.966 66.3195 220.856 66.1889 220.781 66.0388C220.706 65.8886 220.667 65.723 220.667 65.555C220.667 65.3871 220.706 65.2214 220.781 65.0713C220.856 64.9211 220.966 64.7906 221.1 64.69L223.69 62.1C223.791 61.9655 223.921 61.8563 224.071 61.7811C224.221 61.7058 224.387 61.6667 224.555 61.6667C224.723 61.6667 224.889 61.7058 225.039 61.7811C225.189 61.8563 225.319 61.9655 225.42 62.1L228.01 64.69Z" fill="#F36E35"/>
<path d="M229.16 28.4C229.338 28.5342 229.483 28.7079 229.582 28.9075C229.682 29.1071 229.733 29.327 229.733 29.55C229.733 29.773 229.682 29.9929 229.582 30.1925C229.483 30.3921 229.338 30.5658 229.16 30.7L225.7 34.16C225.566 34.3381 225.392 34.4826 225.193 34.5821C224.993 34.6816 224.773 34.7334 224.55 34.7334C224.327 34.7334 224.107 34.6816 223.908 34.5821C223.708 34.4826 223.534 34.3381 223.4 34.16L219.94 30.7C219.762 30.5658 219.617 30.3921 219.518 30.1925C219.418 29.9929 219.367 29.773 219.367 29.55C219.367 29.327 219.418 29.1071 219.518 28.9075C219.617 28.7079 219.762 28.5342 219.94 28.4L223.4 24.94C223.534 24.762 223.708 24.6175 223.908 24.518C224.107 24.4185 224.327 24.3667 224.55 24.3667C224.773 24.3667 224.993 24.4185 225.193 24.518C225.392 24.6175 225.566 24.762 225.7 24.94L229.16 28.4Z" fill="#F36E35"/>
<path d="M230.31 -7.88998C230.534 -7.72232 230.715 -7.50491 230.84 -7.25497C230.965 -7.00503 231.03 -6.72942 231.03 -6.44998C231.03 -6.17054 230.965 -5.89493 230.84 -5.64499C230.715 -5.39505 230.534 -5.17764 230.31 -5.00998L225.99 -0.689971C225.822 -0.466419 225.605 -0.284973 225.355 -0.160003C225.105 -0.0350333 224.829 0.0299993 224.55 0.0299993C224.271 0.0299994 223.995 -0.0350332 223.745 -0.160003C223.495 -0.284973 223.278 -0.466418 223.11 -0.689971L218.79 -5.00998C218.566 -5.17764 218.385 -5.39505 218.26 -5.64499C218.135 -5.89493 218.07 -6.17054 218.07 -6.44998C218.07 -6.72942 218.135 -7.00503 218.26 -7.25497C218.385 -7.50491 218.566 -7.72232 218.79 -7.88998L223.11 -12.21C223.278 -12.4335 223.495 -12.615 223.745 -12.74C223.995 -12.8649 224.271 -12.93 224.55 -12.93C224.829 -12.93 225.105 -12.8649 225.355 -12.74C225.605 -12.615 225.822 -12.4335 225.99 -12.21L230.31 -7.88998Z" fill="#F36E35"/>
<path d="M190.85 100.97C190.939 101.037 191.011 101.124 191.061 101.224C191.111 101.324 191.137 101.434 191.137 101.545C191.137 101.657 191.111 101.767 191.061 101.866C191.011 101.966 190.939 102.053 190.85 102.12L189.12 103.85C189.053 103.939 188.966 104.011 188.866 104.061C188.767 104.111 188.657 104.137 188.545 104.137C188.434 104.137 188.324 104.111 188.224 104.061C188.124 104.011 188.037 103.939 187.97 103.85L186.24 102.12C186.151 102.053 186.079 101.966 186.029 101.866C185.979 101.767 185.953 101.657 185.953 101.545C185.953 101.434 185.979 101.324 186.029 101.224C186.079 101.124 186.151 101.037 186.24 100.97L187.97 99.2401C188.037 99.151 188.124 99.0788 188.224 99.029C188.324 98.9793 188.434 98.9534 188.545 98.9534C188.657 98.9534 188.767 98.9793 188.866 99.029C188.966 99.0788 189.053 99.151 189.12 99.2401L190.85 100.97Z" fill="#F36E35"/>
<path d="M192.01 64.6901C192.145 64.7906 192.254 64.9212 192.329 65.0713C192.404 65.2215 192.443 65.3871 192.443 65.5551C192.443 65.723 192.404 65.8886 192.329 66.0388C192.254 66.1889 192.145 66.3195 192.01 66.42L189.42 69.01C189.319 69.1446 189.189 69.2538 189.039 69.329C188.889 69.4042 188.723 69.4434 188.555 69.4434C188.387 69.4434 188.221 69.4042 188.071 69.329C187.921 69.2538 187.791 69.1446 187.69 69.01L185.1 66.42C184.966 66.3195 184.856 66.1889 184.781 66.0388C184.706 65.8886 184.667 65.723 184.667 65.5551C184.667 65.3871 184.706 65.2215 184.781 65.0713C184.856 64.9212 184.966 64.7906 185.1 64.6901L187.69 62.1C187.791 61.9655 187.921 61.8563 188.071 61.7811C188.221 61.7059 188.387 61.6667 188.555 61.6667C188.723 61.6667 188.889 61.7059 189.039 61.7811C189.189 61.8563 189.319 61.9655 189.42 62.1L192.01 64.6901Z" fill="#F36E35"/>
<path d="M193.16 28.4C193.338 28.5342 193.483 28.708 193.582 28.9075C193.682 29.1071 193.733 29.3271 193.733 29.55C193.733 29.773 193.682 29.993 193.582 30.1925C193.483 30.3921 193.338 30.5658 193.16 30.7L189.7 34.16C189.566 34.3381 189.392 34.4826 189.193 34.5821C188.993 34.6816 188.773 34.7334 188.55 34.7334C188.327 34.7334 188.107 34.6816 187.908 34.5821C187.708 34.4826 187.534 34.3381 187.4 34.16L183.94 30.7C183.762 30.5658 183.617 30.3921 183.518 30.1925C183.418 29.993 183.367 29.773 183.367 29.55C183.367 29.3271 183.418 29.1071 183.518 28.9075C183.617 28.708 183.762 28.5342 183.94 28.4L187.4 24.9401C187.534 24.762 187.708 24.6175 187.908 24.518C188.107 24.4185 188.327 24.3667 188.55 24.3667C188.773 24.3667 188.993 24.4185 189.193 24.518C189.392 24.6175 189.566 24.762 189.7 24.9401L193.16 28.4Z" fill="#F36E35"/>
<path d="M194.31 -7.88995C194.534 -7.72229 194.715 -7.50488 194.84 -7.25494C194.965 -7.005 195.03 -6.72939 195.03 -6.44995C195.03 -6.17051 194.965 -5.8949 194.84 -5.64496C194.715 -5.39502 194.534 -5.17761 194.31 -5.00995L189.99 -0.689941C189.822 -0.466388 189.605 -0.284943 189.355 -0.159973C189.105 -0.0350027 188.829 0.0300298 188.55 0.0300299C188.271 0.0300299 187.995 -0.0350026 187.745 -0.159973C187.495 -0.284942 187.278 -0.466388 187.11 -0.689941L182.79 -5.00995C182.566 -5.17761 182.385 -5.39502 182.26 -5.64496C182.135 -5.8949 182.07 -6.17051 182.07 -6.44995C182.07 -6.72939 182.135 -7.005 182.26 -7.25494C182.385 -7.50488 182.566 -7.72229 182.79 -7.88995L187.11 -12.21C187.278 -12.4335 187.495 -12.615 187.745 -12.7399C187.995 -12.8649 188.271 -12.9299 188.55 -12.9299C188.829 -12.9299 189.105 -12.8649 189.355 -12.7399C189.605 -12.615 189.822 -12.4335 189.99 -12.21L194.31 -7.88995Z" fill="#F36E35"/>
<path d="M154.85 100.97C154.939 101.037 155.011 101.124 155.061 101.224C155.111 101.324 155.137 101.434 155.137 101.545C155.137 101.657 155.111 101.767 155.061 101.866C155.011 101.966 154.939 102.053 154.85 102.12L153.12 103.85C153.053 103.939 152.966 104.011 152.866 104.061C152.767 104.111 152.657 104.137 152.545 104.137C152.434 104.137 152.324 104.111 152.224 104.061C152.124 104.011 152.037 103.939 151.97 103.85L150.24 102.12C150.151 102.053 150.079 101.966 150.029 101.866C149.979 101.767 149.953 101.657 149.953 101.545C149.953 101.434 149.979 101.324 150.029 101.224C150.079 101.124 150.151 101.037 150.24 100.97L151.97 99.2401C152.037 99.151 152.124 99.0788 152.224 99.029C152.324 98.9793 152.434 98.9534 152.545 98.9534C152.657 98.9534 152.767 98.9793 152.866 99.029C152.966 99.0788 153.053 99.151 153.12 99.2401L154.85 100.97Z" fill="#F36E35"/>
<path d="M156.01 64.6901C156.145 64.7906 156.254 64.9212 156.329 65.0713C156.404 65.2215 156.443 65.3871 156.443 65.5551C156.443 65.723 156.404 65.8886 156.329 66.0388C156.254 66.1889 156.145 66.3195 156.01 66.42L153.42 69.01C153.319 69.1446 153.189 69.2538 153.039 69.329C152.889 69.4042 152.723 69.4434 152.555 69.4434C152.387 69.4434 152.221 69.4042 152.071 69.329C151.921 69.2538 151.791 69.1446 151.69 69.01L149.1 66.42C148.966 66.3195 148.856 66.1889 148.781 66.0388C148.706 65.8886 148.667 65.723 148.667 65.5551C148.667 65.3871 148.706 65.2215 148.781 65.0713C148.856 64.9212 148.966 64.7906 149.1 64.6901L151.69 62.1C151.791 61.9655 151.921 61.8563 152.071 61.7811C152.221 61.7059 152.387 61.6667 152.555 61.6667C152.723 61.6667 152.889 61.7059 153.039 61.7811C153.189 61.8563 153.319 61.9655 153.42 62.1L156.01 64.6901Z" fill="#F36E35"/>
<path d="M157.16 28.4C157.338 28.5342 157.483 28.708 157.582 28.9075C157.682 29.1071 157.733 29.3271 157.733 29.55C157.733 29.773 157.682 29.993 157.582 30.1925C157.483 30.3921 157.338 30.5658 157.16 30.7L153.7 34.16C153.566 34.3381 153.392 34.4826 153.193 34.5821C152.993 34.6816 152.773 34.7334 152.55 34.7334C152.327 34.7334 152.107 34.6816 151.908 34.5821C151.708 34.4826 151.534 34.3381 151.4 34.16L147.94 30.7C147.762 30.5658 147.617 30.3921 147.518 30.1925C147.418 29.993 147.367 29.773 147.367 29.55C147.367 29.3271 147.418 29.1071 147.518 28.9075C147.617 28.708 147.762 28.5342 147.94 28.4L151.4 24.9401C151.534 24.762 151.708 24.6175 151.908 24.518C152.107 24.4185 152.327 24.3667 152.55 24.3667C152.773 24.3667 152.993 24.4185 153.193 24.518C153.392 24.6175 153.566 24.762 153.7 24.9401L157.16 28.4Z" fill="#F36E35"/>
<path d="M158.31 -7.88995C158.534 -7.72229 158.715 -7.50488 158.84 -7.25494C158.965 -7.005 159.03 -6.72939 159.03 -6.44995C159.03 -6.17051 158.965 -5.8949 158.84 -5.64496C158.715 -5.39502 158.534 -5.17761 158.31 -5.00995L153.99 -0.689941C153.822 -0.466388 153.605 -0.284943 153.355 -0.159973C153.105 -0.0350027 152.829 0.0300298 152.55 0.0300299C152.271 0.0300299 151.995 -0.0350026 151.745 -0.159973C151.495 -0.284942 151.278 -0.466388 151.11 -0.689941L146.79 -5.00995C146.566 -5.17761 146.385 -5.39502 146.26 -5.64496C146.135 -5.8949 146.07 -6.17051 146.07 -6.44995C146.07 -6.72939 146.135 -7.005 146.26 -7.25494C146.385 -7.50488 146.566 -7.72229 146.79 -7.88995L151.11 -12.21C151.278 -12.4335 151.495 -12.615 151.745 -12.7399C151.995 -12.8649 152.271 -12.9299 152.55 -12.9299C152.829 -12.9299 153.105 -12.8649 153.355 -12.7399C153.605 -12.615 153.822 -12.4335 153.99 -12.21L158.31 -7.88995Z" fill="#F36E35"/>
<path d="M118.85 100.97C118.939 101.037 119.011 101.124 119.061 101.224C119.111 101.324 119.137 101.434 119.137 101.545C119.137 101.657 119.111 101.767 119.061 101.866C119.011 101.966 118.939 102.053 118.85 102.12L117.12 103.85C117.053 103.939 116.966 104.011 116.866 104.061C116.767 104.111 116.657 104.137 116.545 104.137C116.434 104.137 116.324 104.111 116.224 104.061C116.124 104.011 116.037 103.939 115.97 103.85L114.24 102.12C114.151 102.053 114.079 101.966 114.029 101.866C113.979 101.767 113.953 101.657 113.953 101.545C113.953 101.434 113.979 101.324 114.029 101.224C114.079 101.124 114.151 101.037 114.24 100.97L115.97 99.2401C116.037 99.151 116.124 99.0788 116.224 99.029C116.324 98.9793 116.434 98.9534 116.545 98.9534C116.657 98.9534 116.767 98.9793 116.866 99.029C116.966 99.0788 117.053 99.151 117.12 99.2401L118.85 100.97Z" fill="#F36E35"/>
<path d="M120.01 64.6901C120.145 64.7906 120.254 64.9212 120.329 65.0713C120.404 65.2215 120.443 65.3871 120.443 65.5551C120.443 65.723 120.404 65.8886 120.329 66.0388C120.254 66.1889 120.145 66.3195 120.01 66.42L117.42 69.01C117.319 69.1446 117.189 69.2538 117.039 69.329C116.889 69.4042 116.723 69.4434 116.555 69.4434C116.387 69.4434 116.221 69.4042 116.071 69.329C115.921 69.2538 115.791 69.1446 115.69 69.01L113.1 66.42C112.966 66.3195 112.856 66.1889 112.781 66.0388C112.706 65.8886 112.667 65.723 112.667 65.5551C112.667 65.3871 112.706 65.2215 112.781 65.0713C112.856 64.9212 112.966 64.7906 113.1 64.6901L115.69 62.1C115.791 61.9655 115.921 61.8563 116.071 61.7811C116.221 61.7059 116.387 61.6667 116.555 61.6667C116.723 61.6667 116.889 61.7059 117.039 61.7811C117.189 61.8563 117.319 61.9655 117.42 62.1L120.01 64.6901Z" fill="#F36E35"/>
<path d="M121.16 28.4C121.338 28.5342 121.483 28.708 121.582 28.9075C121.682 29.1071 121.733 29.3271 121.733 29.55C121.733 29.773 121.682 29.993 121.582 30.1925C121.483 30.3921 121.338 30.5658 121.16 30.7L117.7 34.16C117.566 34.3381 117.392 34.4826 117.193 34.5821C116.993 34.6816 116.773 34.7334 116.55 34.7334C116.327 34.7334 116.107 34.6816 115.908 34.5821C115.708 34.4826 115.534 34.3381 115.4 34.16L111.94 30.7C111.762 30.5658 111.617 30.3921 111.518 30.1925C111.418 29.993 111.367 29.773 111.367 29.55C111.367 29.3271 111.418 29.1071 111.518 28.9075C111.617 28.708 111.762 28.5342 111.94 28.4L115.4 24.9401C115.534 24.762 115.708 24.6175 115.908 24.518C116.107 24.4185 116.327 24.3667 116.55 24.3667C116.773 24.3667 116.993 24.4185 117.193 24.518C117.392 24.6175 117.566 24.762 117.7 24.9401L121.16 28.4Z" fill="#F36E35"/>
<path d="M122.31 -7.88995C122.534 -7.72229 122.715 -7.50488 122.84 -7.25494C122.965 -7.005 123.03 -6.72939 123.03 -6.44995C123.03 -6.17051 122.965 -5.8949 122.84 -5.64496C122.715 -5.39502 122.534 -5.17761 122.31 -5.00995L117.99 -0.689941C117.822 -0.466388 117.605 -0.284943 117.355 -0.159973C117.105 -0.0350027 116.829 0.0300298 116.55 0.0300299C116.271 0.0300299 115.995 -0.0350026 115.745 -0.159973C115.495 -0.284942 115.278 -0.466388 115.11 -0.689941L110.79 -5.00995C110.566 -5.17761 110.385 -5.39502 110.26 -5.64496C110.135 -5.8949 110.07 -6.17051 110.07 -6.44995C110.07 -6.72939 110.135 -7.005 110.26 -7.25494C110.385 -7.50488 110.566 -7.72229 110.79 -7.88995L115.11 -12.21C115.278 -12.4335 115.495 -12.615 115.745 -12.7399C115.995 -12.8649 116.271 -12.9299 116.55 -12.9299C116.829 -12.9299 117.105 -12.8649 117.355 -12.7399C117.605 -12.615 117.822 -12.4335 117.99 -12.21L122.31 -7.88995Z" fill="#F36E35"/>
<path d="M82.85 100.97C82.9391 101.037 83.0113 101.124 83.0611 101.224C83.1108 101.324 83.1367 101.434 83.1367 101.545C83.1367 101.657 83.1108 101.767 83.0611 101.866C83.0113 101.966 82.9391 102.053 82.85 102.12L81.1201 103.85C81.053 103.939 80.9661 104.011 80.8663 104.061C80.7665 104.111 80.6565 104.137 80.545 104.137C80.4335 104.137 80.3236 104.111 80.2238 104.061C80.124 104.011 80.0372 103.939 79.9701 103.85L78.2401 102.12C78.151 102.053 78.0788 101.966 78.029 101.866C77.9793 101.767 77.9534 101.657 77.9534 101.545C77.9534 101.434 77.9793 101.324 78.029 101.224C78.0788 101.124 78.151 101.037 78.2401 100.97L79.9701 99.2401C80.0372 99.151 80.124 99.0788 80.2238 99.029C80.3236 98.9793 80.4335 98.9534 80.545 98.9534C80.6565 98.9534 80.7665 98.9793 80.8663 99.029C80.9661 99.0788 81.053 99.151 81.1201 99.2401L82.85 100.97Z" fill="#F36E35"/>
<path d="M84.01 64.6901C84.1446 64.7906 84.2538 64.9212 84.329 65.0713C84.4042 65.2215 84.4434 65.3871 84.4434 65.5551C84.4434 65.723 84.4042 65.8886 84.329 66.0388C84.2538 66.1889 84.1446 66.3195 84.01 66.42L81.42 69.01C81.3195 69.1446 81.1889 69.2538 81.0388 69.329C80.8886 69.4042 80.723 69.4434 80.5551 69.4434C80.3871 69.4434 80.2215 69.4042 80.0713 69.329C79.9212 69.2538 79.7906 69.1446 79.6901 69.01L77.1 66.42C76.9655 66.3195 76.8563 66.1889 76.7811 66.0388C76.7059 65.8886 76.6667 65.723 76.6667 65.5551C76.6667 65.3871 76.7059 65.2215 76.7811 65.0713C76.8563 64.9212 76.9655 64.7906 77.1 64.6901L79.6901 62.1C79.7906 61.9655 79.9212 61.8563 80.0713 61.7811C80.2215 61.7059 80.3871 61.6667 80.5551 61.6667C80.723 61.6667 80.8886 61.7059 81.0388 61.7811C81.1889 61.8563 81.3195 61.9655 81.42 62.1L84.01 64.6901Z" fill="#F36E35"/>
<path d="M85.16 28.4C85.3381 28.5342 85.4826 28.708 85.5821 28.9075C85.6816 29.1071 85.7334 29.3271 85.7334 29.55C85.7334 29.773 85.6816 29.993 85.5821 30.1925C85.4826 30.3921 85.3381 30.5658 85.16 30.7L81.7 34.16C81.5658 34.3381 81.3921 34.4826 81.1925 34.5821C80.993 34.6816 80.773 34.7334 80.55 34.7334C80.3271 34.7334 80.1071 34.6816 79.9076 34.5821C79.708 34.4826 79.5343 34.3381 79.4001 34.16L75.9401 30.7C75.762 30.5658 75.6175 30.3921 75.518 30.1925C75.4185 29.993 75.3667 29.773 75.3667 29.55C75.3667 29.3271 75.4185 29.1071 75.518 28.9075C75.6175 28.708 75.762 28.5342 75.9401 28.4L79.4001 24.9401C79.5343 24.762 79.708 24.6175 79.9076 24.518C80.1071 24.4185 80.3271 24.3667 80.55 24.3667C80.773 24.3667 80.993 24.4185 81.1925 24.518C81.3921 24.6175 81.5658 24.762 81.7 24.9401L85.16 28.4Z" fill="#F36E35"/>
<path d="M86.3101 -7.88995C86.5336 -7.72229 86.7151 -7.50488 86.84 -7.25494C86.965 -7.005 87.0301 -6.72939 87.0301 -6.44995C87.0301 -6.17051 86.965 -5.8949 86.84 -5.64496C86.7151 -5.39502 86.5336 -5.17761 86.3101 -5.00995L81.9901 -0.689941C81.8224 -0.466388 81.605 -0.284943 81.355 -0.159973C81.1051 -0.0350027 80.8295 0.0300298 80.55 0.0300299C80.2706 0.0300299 79.995 -0.0350026 79.7451 -0.159973C79.4951 -0.284942 79.2777 -0.466388 79.11 -0.689941L74.79 -5.00995C74.5665 -5.17761 74.385 -5.39502 74.2601 -5.64496C74.1351 -5.8949 74.07 -6.17051 74.07 -6.44995C74.07 -6.72939 74.1351 -7.005 74.2601 -7.25494C74.385 -7.50488 74.5665 -7.72229 74.79 -7.88995L79.11 -12.21C79.2777 -12.4335 79.4951 -12.615 79.7451 -12.7399C79.995 -12.8649 80.2706 -12.9299 80.55 -12.9299C80.8295 -12.9299 81.1051 -12.8649 81.355 -12.7399C81.605 -12.615 81.8224 -12.4335 81.9901 -12.21L86.3101 -7.88995Z" fill="#F36E35"/>
<path d="M46.85 100.97C46.9391 101.037 47.0113 101.124 47.0611 101.224C47.1108 101.324 47.1367 101.434 47.1367 101.545C47.1367 101.657 47.1108 101.767 47.0611 101.866C47.0113 101.966 46.9391 102.053 46.85 102.12L45.1201 103.85C45.053 103.939 44.9661 104.011 44.8663 104.061C44.7665 104.111 44.6565 104.137 44.545 104.137C44.4335 104.137 44.3236 104.111 44.2238 104.061C44.124 104.011 44.0372 103.939 43.9701 103.85L42.2401 102.12C42.151 102.053 42.0788 101.966 42.029 101.866C41.9793 101.767 41.9534 101.657 41.9534 101.545C41.9534 101.434 41.9793 101.324 42.029 101.224C42.0788 101.124 42.151 101.037 42.2401 100.97L43.9701 99.2401C44.0372 99.151 44.124 99.0788 44.2238 99.029C44.3236 98.9793 44.4335 98.9534 44.545 98.9534C44.6565 98.9534 44.7665 98.9793 44.8663 99.029C44.9661 99.0788 45.053 99.151 45.1201 99.2401L46.85 100.97Z" fill="#F36E35"/>
<path d="M48.01 64.6901C48.1445 64.7906 48.2537 64.9212 48.3289 65.0713C48.4042 65.2215 48.4434 65.3871 48.4434 65.5551C48.4434 65.723 48.4042 65.8886 48.3289 66.0388C48.2537 66.1889 48.1445 66.3195 48.01 66.42L45.42 69.01C45.3195 69.1446 45.1889 69.2538 45.0388 69.329C44.8886 69.4042 44.723 69.4434 44.555 69.4434C44.3871 69.4434 44.2214 69.4042 44.0713 69.329C43.9211 69.2538 43.7906 69.1446 43.69 69.01L41.1 66.42C40.9655 66.3195 40.8563 66.1889 40.7811 66.0388C40.7058 65.8886 40.6667 65.723 40.6667 65.5551C40.6667 65.3871 40.7058 65.2215 40.7811 65.0713C40.8563 64.9212 40.9655 64.7906 41.1 64.6901L43.69 62.1C43.7906 61.9655 43.9211 61.8563 44.0713 61.7811C44.2214 61.7059 44.3871 61.6667 44.555 61.6667C44.723 61.6667 44.8886 61.7059 45.0388 61.7811C45.1889 61.8563 45.3195 61.9655 45.42 62.1L48.01 64.6901Z" fill="#F36E35"/>
<path d="M49.16 28.4C49.3381 28.5342 49.4826 28.708 49.5821 28.9075C49.6816 29.1071 49.7334 29.3271 49.7334 29.55C49.7334 29.773 49.6816 29.993 49.5821 30.1925C49.4826 30.3921 49.3381 30.5658 49.16 30.7L45.7 34.16C45.5658 34.3381 45.3921 34.4826 45.1925 34.5821C44.993 34.6816 44.773 34.7334 44.55 34.7334C44.3271 34.7334 44.1071 34.6816 43.9076 34.5821C43.708 34.4826 43.5343 34.3381 43.4001 34.16L39.9401 30.7C39.762 30.5658 39.6175 30.3921 39.518 30.1925C39.4185 29.993 39.3667 29.773 39.3667 29.55C39.3667 29.3271 39.4185 29.1071 39.518 28.9075C39.6175 28.708 39.762 28.5342 39.9401 28.4L43.4001 24.9401C43.5343 24.762 43.708 24.6175 43.9076 24.518C44.1071 24.4185 44.3271 24.3667 44.55 24.3667C44.773 24.3667 44.993 24.4185 45.1925 24.518C45.3921 24.6175 45.5658 24.762 45.7 24.9401L49.16 28.4Z" fill="#F36E35"/>
<path d="M50.31 -7.88995C50.5336 -7.72229 50.715 -7.50488 50.84 -7.25494C50.965 -7.005 51.03 -6.72939 51.03 -6.44995C51.03 -6.17051 50.965 -5.8949 50.84 -5.64496C50.715 -5.39502 50.5336 -5.17761 50.31 -5.00995L45.99 -0.689941C45.8224 -0.466388 45.605 -0.284943 45.355 -0.159973C45.1051 -0.0350027 44.8295 0.0300298 44.55 0.0300299C44.2706 0.0300299 43.995 -0.0350026 43.745 -0.159973C43.4951 -0.284942 43.2777 -0.466388 43.11 -0.689941L38.79 -5.00995C38.5665 -5.17761 38.385 -5.39502 38.26 -5.64496C38.1351 -5.8949 38.07 -6.17051 38.07 -6.44995C38.07 -6.72939 38.1351 -7.005 38.26 -7.25494C38.385 -7.50488 38.5665 -7.72229 38.79 -7.88995L43.11 -12.21C43.2777 -12.4335 43.4951 -12.615 43.745 -12.7399C43.995 -12.8649 44.2706 -12.9299 44.55 -12.9299C44.8295 -12.9299 45.1051 -12.8649 45.355 -12.7399C45.6049 -12.615 45.8224 -12.4335 45.99 -12.21L50.31 -7.88995Z" fill="#F36E35"/>
<path d="M10.85 100.97C10.9391 101.037 11.0113 101.124 11.0611 101.224C11.1108 101.324 11.1367 101.434 11.1367 101.545C11.1367 101.657 11.1108 101.767 11.0611 101.866C11.0113 101.966 10.9391 102.053 10.85 102.12L9.12006 103.85C9.05295 103.939 8.96608 104.011 8.8663 104.061C8.76652 104.111 8.65654 104.137 8.54504 104.137C8.43355 104.137 8.32357 104.111 8.22379 104.061C8.124 104.011 8.03717 103.939 7.97006 103.85L6.24005 102.12C6.15101 102.053 6.07877 101.966 6.02902 101.866C5.97928 101.767 5.95337 101.657 5.95337 101.545C5.95337 101.434 5.97927 101.324 6.02902 101.224C6.07877 101.124 6.15101 101.037 6.24005 100.97L7.97006 99.2401C8.03716 99.151 8.124 99.0788 8.22378 99.029C8.32357 98.9793 8.43355 98.9534 8.54504 98.9534C8.65654 98.9534 8.76652 98.9793 8.8663 99.029C8.96608 99.0788 9.05295 99.151 9.12006 99.2401L10.85 100.97Z" fill="#F36E35"/>
<path d="M12.01 64.6901C12.1445 64.7906 12.2537 64.9212 12.3289 65.0713C12.4042 65.2215 12.4434 65.3871 12.4434 65.5551C12.4434 65.723 12.4042 65.8886 12.3289 66.0388C12.2537 66.1889 12.1445 66.3195 12.01 66.42L9.42001 69.01C9.31945 69.1446 9.18892 69.2538 9.03876 69.329C8.8886 69.4042 8.72297 69.4434 8.55502 69.4434C8.38708 69.4434 8.22145 69.4042 8.07129 69.329C7.92113 69.2538 7.79059 69.1446 7.69003 69.01L5.10001 66.42C4.96549 66.3195 4.85629 66.1889 4.78107 66.0388C4.70584 65.8886 4.66669 65.723 4.66669 65.5551C4.66669 65.3871 4.70584 65.2215 4.78107 65.0713C4.85629 64.9212 4.96549 64.7906 5.10001 64.6901L7.69003 62.1C7.79059 61.9655 7.92113 61.8563 8.07129 61.7811C8.22145 61.7059 8.38708 61.6667 8.55502 61.6667C8.72297 61.6667 8.8886 61.7059 9.03876 61.7811C9.18891 61.8563 9.31945 61.9655 9.42001 62.1L12.01 64.6901Z" fill="#F36E35"/>
<path d="M13.16 28.4C13.3381 28.5342 13.4826 28.708 13.5821 28.9075C13.6816 29.1071 13.7334 29.3271 13.7334 29.55C13.7334 29.773 13.6816 29.993 13.5821 30.1925C13.4826 30.3921 13.3381 30.5658 13.16 30.7L9.70004 34.16C9.56584 34.3381 9.3921 34.4826 9.19254 34.5821C8.99297 34.6816 8.77304 34.7334 8.55005 34.7334C8.32706 34.7334 8.10713 34.6816 7.90756 34.5821C7.708 34.4826 7.53426 34.3381 7.40005 34.16L3.94006 30.7C3.76198 30.5658 3.6175 30.3921 3.518 30.1925C3.41851 29.993 3.3667 29.773 3.3667 29.55C3.3667 29.3271 3.41851 29.1071 3.518 28.9075C3.6175 28.708 3.76198 28.5342 3.94006 28.4L7.40005 24.9401C7.53426 24.762 7.708 24.6175 7.90756 24.518C8.10713 24.4185 8.32706 24.3667 8.55005 24.3667C8.77304 24.3667 8.99297 24.4185 9.19253 24.518C9.3921 24.6175 9.56584 24.762 9.70004 24.9401L13.16 28.4Z" fill="#F36E35"/>
<path d="M14.31 -7.88995C14.5336 -7.72229 14.715 -7.50488 14.84 -7.25494C14.965 -7.005 15.03 -6.72939 15.03 -6.44995C15.03 -6.17051 14.965 -5.8949 14.84 -5.64496C14.715 -5.39502 14.5336 -5.17761 14.31 -5.00995L9.99002 -0.689941C9.82236 -0.466388 9.60495 -0.284943 9.35501 -0.159973C9.10507 -0.0350027 8.82946 0.0300298 8.55002 0.0300299C8.27058 0.0300299 7.99497 -0.0350026 7.74503 -0.159973C7.49509 -0.284942 7.27768 -0.466388 7.11002 -0.689941L2.79001 -5.00995C2.56646 -5.17761 2.38501 -5.39502 2.26004 -5.64496C2.13507 -5.8949 2.07001 -6.17051 2.07001 -6.44995C2.07001 -6.72939 2.13507 -7.005 2.26004 -7.25494C2.38501 -7.50488 2.56646 -7.72229 2.79001 -7.88995L7.11001 -12.21C7.27768 -12.4335 7.49508 -12.615 7.74502 -12.7399C7.99496 -12.8649 8.27058 -12.9299 8.55002 -12.9299C8.82946 -12.9299 9.10507 -12.8649 9.35501 -12.7399C9.60495 -12.615 9.82236 -12.4335 9.99002 -12.21L14.31 -7.88995Z" fill="#F36E35"/>
</g>
<defs>
<clipPath id="clip0_46_7846">
<rect width="391.1" height="378.14" fill="white" transform="translate(384.1 104.14) rotate(180)"/>
</clipPath>
</defs>
</svg>
