<svg width="360" height="212" viewBox="0 0 360 212" fill="none" xmlns="http://www.w3.org/2000/svg">
<g opacity="0.5">
<g opacity="0.3">
<path d="M-42.5849 170.541H4.08749V74.5783H5.4173V71.8344H2.52048V68.324H-20.4455V62.9939H-29.215L-30.5305 59.5122H-32.6941V53.2866H-33.1829H-33.6645V59.5122H-37.6826V62.9939V67.0058V68.324H-41.0179V71.8344H-43.9147V74.5783H-42.5849V170.541Z" fill="url(#paint0_linear_373_2489)"/>
<path d="M390.607 176.158V47.1469L333.138 35.2617L339.435 176.158H170.801V96.4503H167.696V48.7517H159.689V35.9781H156.821V17.2368H141.05V3.46742H139.648V17.2368H136.557V0H135.156V17.2368H125.186V48.7517H120.032V96.4503H115.618V176.158H70.7788V70.0577H71.5479V68.8327H66.0347V61.4536H66.7463V60.2787H61.6787V56.0376H62.1315V55.1277H59.9535V51.123H57.869H57.5455V36.8306H57.3227H57.0351H56.7476V51.123H55.77V43.1565H55.5472H55.2597H54.9721V51.123H52.5641V55.1277H50.0483V56.0376H50.839V60.2787H45.7714V61.4536H46.483V68.8327H40.9625V70.0577H41.7388V176.158H-107.817V190.629H502.641V176.158H390.607Z" fill="url(#paint1_linear_373_2489)"/>
</g>
<path d="M491.679 189.182V176.158H473.292L466.341 124.885H465.298V118.723H461.647V124.885H460.77V122.578H458.211V124.885H452.863V119.511H451.425V115.779H441.01V119.511H439.572V124.885H438.135V155.69H428.833V77.5442H425.793V60.4077H424.829V77.5442H422.515V53.7666H421.537V77.537H419.532V64.6417H418.554V77.537H400.584V133.001H380.615V168.929H361.969L347.162 141.706C349.684 140.259 352.033 138.531 354.163 136.555L357.196 139.786C356.592 140.319 356.221 141.065 356.16 141.867C356.1 142.668 356.355 143.462 356.873 144.079C357.39 144.695 358.129 145.087 358.931 145.169C359.733 145.252 360.536 145.02 361.169 144.522C361.802 144.023 362.216 143.299 362.321 142.502C362.427 141.705 362.216 140.898 361.734 140.254C361.252 139.609 360.537 139.177 359.741 139.049C358.945 138.922 358.13 139.109 357.47 139.571L354.386 136.34L355.155 135.624C358.312 132.485 360.895 128.822 362.789 124.799L366.174 126.353C365.982 127.138 366.104 127.966 366.515 128.663C366.926 129.359 367.593 129.868 368.374 130.082C369.156 130.295 369.991 130.197 370.7 129.807C371.41 129.417 371.939 128.766 372.175 127.993C372.411 127.221 372.335 126.387 371.964 125.669C371.593 124.951 370.955 124.405 370.186 124.149C369.418 123.892 368.579 123.945 367.849 124.295C367.118 124.645 366.554 125.265 366.275 126.024L362.932 124.483C365.009 119.941 366.167 115.036 366.34 110.048L369.977 110.162C370.022 110.967 370.38 111.722 370.975 112.268C371.57 112.814 372.355 113.106 373.164 113.084C373.972 113.062 374.74 112.726 375.303 112.148C375.867 111.57 376.183 110.796 376.183 109.99C376.183 109.184 375.867 108.41 375.303 107.833C374.74 107.255 373.972 106.919 373.164 106.897C372.355 106.874 371.57 107.167 370.975 107.713C370.38 108.258 370.022 109.014 369.977 109.818L366.34 109.704C366.34 109.35 366.34 108.995 366.34 108.636C366.346 104.194 365.575 99.7836 364.061 95.6049L367.102 94.4873C367.427 95.2188 368.026 95.795 368.771 96.0934C369.516 96.3918 370.348 96.3888 371.091 96.0852C371.834 95.7815 372.428 95.201 372.749 94.4672C373.069 93.7334 373.089 92.9041 372.805 92.1555C372.522 91.407 371.956 90.7982 371.229 90.4587C370.502 90.1191 369.671 90.0756 368.912 90.3373C368.154 90.5989 367.527 91.1452 367.166 91.86C366.805 92.5748 366.738 93.4017 366.979 94.1649L363.996 95.2825C362.242 90.6046 359.58 86.3174 356.161 82.6665L358.541 80.4457C359.126 80.9989 359.905 81.3029 360.711 81.2929C361.518 81.2828 362.289 80.9596 362.86 80.392C363.431 79.8243 363.758 79.0569 363.77 78.2531C363.783 77.4492 363.48 76.6721 362.927 76.0871C362.373 75.5022 361.613 75.1554 360.807 75.1205C360.001 75.0857 359.213 75.3655 358.611 75.9005C358.009 76.4355 357.64 77.1835 357.582 77.9855C357.525 78.7874 357.784 79.5801 358.303 80.1949L355.924 82.4158L355.205 81.6492C351.668 78.1102 347.467 75.2987 342.842 73.3747L344.15 70.201C344.923 70.4441 345.76 70.377 346.485 70.0142C347.209 69.6513 347.762 69.0212 348.028 68.2579C348.293 67.4946 348.249 66.6583 347.905 65.9268C347.561 65.1953 346.945 64.6263 346.186 64.3408C345.428 64.0553 344.588 64.0759 343.845 64.3981C343.102 64.7203 342.514 65.3188 342.207 66.0662C341.899 66.8137 341.896 67.6511 342.199 68.4006C342.501 69.15 343.085 69.7522 343.826 70.0792L342.518 73.2457C338.385 71.5802 333.992 70.6491 329.536 70.4947L329.68 66.1533H329.781C330.585 66.0958 331.335 65.7295 331.874 65.1317C332.413 64.5338 332.697 63.751 332.669 62.9481C332.64 62.1451 332.299 61.3846 331.719 60.8268C331.139 60.2689 330.364 59.9571 329.558 59.9571C328.752 59.9571 327.977 60.2689 327.397 60.8268C326.817 61.3846 326.476 62.1451 326.448 62.9481C326.419 63.751 326.704 64.5338 327.242 65.1317C327.781 65.7295 328.531 66.0958 329.335 66.1533L329.191 70.5162H328.12C323.842 70.5097 319.593 71.2167 315.548 72.6081L314.298 69.0619C315.051 68.7478 315.651 68.1532 315.971 67.4047C316.291 66.6561 316.305 65.8128 316.011 65.0539C315.716 64.2951 315.136 63.6807 314.394 63.3415C313.652 63.0023 312.807 62.965 312.038 63.2375C311.269 63.5101 310.636 64.071 310.276 64.8009C309.915 65.5309 309.855 66.3722 310.107 67.146C310.359 67.9197 310.905 68.5649 311.627 68.9441C312.349 69.3233 313.191 69.4067 313.974 69.1765L315.225 72.7228C310.338 74.4641 305.859 77.1823 302.064 80.7107L299.756 78.2248C300.298 77.6214 300.582 76.8312 300.548 76.0222C300.515 75.2132 300.166 74.4492 299.575 73.8928C298.985 73.3363 298.201 73.0313 297.388 73.0425C296.576 73.0537 295.8 73.3803 295.225 73.9529C294.651 74.5254 294.323 75.2987 294.312 76.1083C294.301 76.9179 294.607 77.7 295.165 78.2882C295.724 78.8764 296.49 79.2243 297.302 79.2579C298.113 79.2916 298.906 79.0083 299.512 78.4684L301.776 80.8827L301.007 81.5991C297.853 84.7357 295.272 88.3965 293.38 92.4169L290.505 91.0915C290.763 90.3278 290.711 89.4939 290.362 88.7673C290.012 88.0407 289.392 87.4786 288.634 87.2004C287.875 86.9223 287.037 86.9501 286.299 87.2778C285.56 87.6056 284.979 88.2075 284.679 88.9557C284.378 89.7038 284.383 90.5392 284.691 91.2842C284.999 92.0292 285.586 92.6251 286.328 92.9452C287.07 93.2654 287.908 93.2845 288.664 92.9985C289.42 92.7126 290.034 92.1441 290.376 91.4139L293.251 92.7321C291.174 97.274 290.016 102.179 289.844 107.168L286.142 107.046C286.097 106.241 285.739 105.486 285.144 104.94C284.549 104.395 283.763 104.102 282.955 104.124C282.147 104.147 281.379 104.482 280.815 105.06C280.252 105.638 279.936 106.412 279.936 107.218C279.936 108.024 280.252 108.798 280.815 109.376C281.379 109.953 282.147 110.289 282.955 110.312C283.763 110.334 284.549 110.041 285.144 109.496C285.739 108.95 286.097 108.195 286.142 107.39L289.844 107.512C289.844 107.865 289.844 108.221 289.844 108.579C289.837 113.022 290.608 117.432 292.122 121.611L289.082 122.728C288.756 121.995 288.156 121.417 287.409 121.118C286.662 120.819 285.828 120.822 285.083 121.126C284.339 121.43 283.742 122.012 283.422 122.748C283.101 123.483 283.08 124.315 283.365 125.065C283.649 125.815 284.216 126.426 284.945 126.766C285.673 127.106 286.506 127.15 287.267 126.887C288.027 126.625 288.655 126.077 289.017 125.361C289.379 124.644 289.446 123.816 289.204 123.051L292.245 121.933C293.998 126.611 296.661 130.898 300.08 134.549L297.7 136.77C297.115 136.217 296.336 135.913 295.53 135.923C294.723 135.933 293.952 136.256 293.381 136.824C292.81 137.391 292.483 138.159 292.471 138.962C292.458 139.766 292.761 140.543 293.314 141.128C293.868 141.713 294.628 142.06 295.434 142.095C296.24 142.13 297.028 141.85 297.63 141.315C298.232 140.78 298.601 140.032 298.659 139.23C298.716 138.428 298.457 137.635 297.938 137.021L300.317 134.8L301.036 135.566C303.426 137.952 306.12 140.014 309.05 141.699L294.243 168.922H282.232V150.496H277.344V115.471H279.241V114.712H237.22V115.471H239.117V133.13H234.998L231.067 153.262V87.2516H229.341V63.345H220.687V54.2394H216.043V46.5666H214.412V33.4922H213.988V46.5666H212.356V54.2394H207.748V63.3378H199.123V87.2444H197.333V130.645H183.956V168.929H139.648V94.9171H143.242V93.7494H139.648V91.6646H135.148V88.2402H98.223V91.6646H93.7089V93.7494H90.1148V94.9171H93.7089V140.997H87.7068V132.35H50.422V142.909H42.2995V162.568H29.1524V98.3058H24.7677V93.9357H21.2958V82.3871H20.577V93.9428H18.9309V79.4713H18.2121V93.9428H16.1922V98.3129H15.1068V162.568H-12.1217V124.885H-10.8423V122.334H-19.2452V115.414H-23.2633V122.334H-26.9149V115.414H-30.5664V122.334H-37.6755V115.414H-59.4267V122.334H-64.5087V124.885H-61.6335V139.084H-69.6554V171.122H-80.6892V162.568H-92.9665V181.194H-107.81V189.154H-129.719V211.971H511.23V189.182H491.679ZM346.68 140.825L341.548 131.404C343.186 130.44 344.716 129.304 346.112 128.015L353.459 135.831C351.391 137.746 349.112 139.421 346.666 140.825H346.68ZM327.481 110.592C327.607 110.633 327.737 110.662 327.869 110.678L327.071 134.513C324.084 134.4 321.138 133.773 318.366 132.658L327.481 110.592ZM318.057 132.536C317.184 132.17 316.332 131.756 315.505 131.296L326.913 110.327L327.143 110.463L318.057 132.536ZM328.207 110.7C328.35 110.693 328.492 110.671 328.631 110.635L336.588 133.13C333.861 134.076 330.994 134.561 328.106 134.563H327.43L328.207 110.7ZM328.926 110.521C329.038 110.47 329.147 110.41 329.249 110.341L340.664 131.304C339.451 131.974 338.187 132.547 336.883 133.016L328.926 110.521ZM330.845 111.824L345.76 127.636C344.394 128.894 342.898 130.003 341.296 130.945L330.845 111.824ZM330.191 110.628L329.759 109.84C329.827 109.768 329.889 109.691 329.946 109.611L351.669 119.64C350.289 122.557 348.378 125.192 346.033 127.413L330.191 110.628ZM330.033 109.331C330.09 109.179 330.128 109.02 330.148 108.858L354.091 109.611C353.965 112.96 353.183 116.253 351.791 119.304L330.033 109.331ZM330.155 108.515C330.147 108.362 330.123 108.211 330.083 108.063L352.538 99.8245C353.563 102.645 354.086 105.622 354.084 108.622C354.084 108.847 354.084 109.071 354.084 109.295L330.155 108.515ZM329.961 107.741C329.891 107.593 329.804 107.453 329.702 107.325L347.198 90.984C349.484 93.444 351.271 96.3221 352.459 99.4592L329.961 107.741ZM329.465 107.075C329.328 106.953 329.176 106.849 329.012 106.767L338.105 84.7011C341.432 86.0975 344.433 88.1661 346.917 90.7763L329.465 107.075ZM328.695 106.63C328.569 106.59 328.439 106.561 328.307 106.544L329.084 82.7095C332.091 82.8048 335.059 83.423 337.853 84.5364L328.695 106.63ZM327.977 106.537C327.833 106.544 327.691 106.566 327.553 106.602L319.595 84.1065C322.323 83.1606 325.19 82.6763 328.077 82.6737H328.753L327.977 106.537ZM327.258 106.716C327.099 106.786 326.949 106.875 326.812 106.981L310.445 89.5512C313.002 87.1913 316.009 85.3666 319.286 84.1853L327.258 106.716ZM326.539 107.218C326.437 107.332 326.348 107.457 326.273 107.59L304.551 97.5607C305.93 94.6444 307.841 92.0087 310.186 89.7876L326.539 107.218ZM326.122 107.934C326.065 108.087 326.027 108.246 326.007 108.407L302.092 107.633C302.219 104.284 303 100.991 304.392 97.9404L326.122 107.934ZM326 108.751C326.007 108.904 326.031 109.055 326.072 109.202L303.616 117.441C302.592 114.62 302.069 111.643 302.071 108.644C302.071 108.419 302.071 108.195 302.071 107.97L326 108.751ZM326.194 109.525C326.25 109.643 326.318 109.756 326.395 109.861L326.252 110.119L309 126.231C306.714 123.771 304.927 120.893 303.738 117.756L326.194 109.525ZM325.727 111.087L314.894 130.988C312.807 129.76 310.9 128.248 309.23 126.496L325.727 111.087ZM315.247 131.784C316.09 132.251 316.959 132.672 317.849 133.044L313.766 142.952C312.52 142.437 311.303 141.853 310.121 141.204L315.247 131.784ZM318.165 133.173C321.003 134.302 324.017 134.929 327.071 135.029L326.719 145.718C322.387 145.566 318.115 144.659 314.096 143.038L318.165 133.173ZM327.394 135.086H328.113C331.048 135.09 333.964 134.605 336.739 133.653L340.333 143.755C336.402 145.107 332.272 145.795 328.113 145.789H327.078L327.394 135.086ZM337.07 133.532C338.401 133.053 339.692 132.468 340.93 131.784L346.062 141.133C344.326 142.086 342.516 142.898 340.649 143.561L337.07 133.532ZM354.436 134.907L353.717 135.624L346.371 127.815C348.764 125.549 350.714 122.859 352.122 119.884L361.883 124.376C360.033 128.276 357.515 131.825 354.443 134.864L354.436 134.907ZM362.005 124.068L352.229 119.533C353.666 116.412 354.474 113.041 354.609 109.611L365.333 109.955C365.169 114.816 364.043 119.598 362.02 124.025L362.005 124.068ZM365.348 108.651C365.348 108.995 365.348 109.338 365.348 109.682L354.623 109.338C354.623 109.109 354.623 108.87 354.623 108.622C354.626 105.561 354.093 102.524 353.049 99.6454L363.112 95.9416C364.593 100.002 365.352 104.288 365.355 108.608L365.348 108.651ZM355.392 83.3829C358.712 86.9221 361.301 91.0773 363.012 95.6121L352.948 99.3159C351.735 96.1152 349.912 93.1788 347.579 90.6688L355.392 83.3829ZM354.429 82.3871L355.148 83.1035L347.313 90.4253C344.777 87.7622 341.715 85.6521 338.32 84.2283L342.403 74.3204C346.906 76.1852 350.997 78.9139 354.443 82.3513L354.429 82.3871ZM329.479 71.4977C333.811 71.6474 338.083 72.5518 342.101 74.1699L338.018 84.0779C335.19 82.9372 332.183 82.2949 329.134 82.1794L329.479 71.4977ZM328.099 71.4977H329.134L328.789 82.1865H328.07C325.135 82.1832 322.22 82.6675 319.444 83.6194L315.85 73.518C319.79 72.1578 323.93 71.4652 328.099 71.469V71.4977ZM315.541 73.6469L319.135 83.7483C315.791 84.9555 312.723 86.8191 310.114 89.2288L302.768 81.4128C306.458 77.9746 310.815 75.3245 315.57 73.6254L315.541 73.6469ZM301.747 82.3728L302.466 81.6564L309.82 89.4366C307.427 91.7027 305.477 94.3918 304.069 97.3673L294.308 92.8754C296.154 88.9627 298.672 85.4012 301.747 82.3513V82.3728ZM294.178 93.2121L303.94 97.704C302.517 100.818 301.719 104.179 301.589 107.598L290.864 107.254C291.03 102.394 292.156 97.6154 294.178 93.1906V93.2121ZM290.836 108.629C290.836 108.285 290.836 107.941 290.836 107.598L301.56 107.949C301.56 108.178 301.56 108.417 301.56 108.665C301.557 111.726 302.09 114.763 303.135 117.642L293.071 121.346C291.585 117.262 290.828 112.951 290.836 108.608V108.629ZM300.791 133.897C297.467 130.347 294.878 126.18 293.172 121.632L303.235 117.928C304.448 121.129 306.272 124.065 308.605 126.575L300.791 133.897ZM301.754 134.893L301.036 134.176L308.863 126.805C310.571 128.596 312.521 130.141 314.657 131.397L309.525 140.818C306.682 139.181 304.067 137.18 301.747 134.864L301.754 134.893ZM309.661 142.093C310.876 142.76 312.126 143.36 313.406 143.891L312.098 147.065C311.325 146.822 310.488 146.889 309.763 147.251C309.039 147.614 308.486 148.244 308.221 149.008C307.955 149.771 307.999 150.607 308.343 151.339C308.687 152.07 309.303 152.639 310.062 152.925C310.82 153.21 311.66 153.19 312.403 152.868C313.146 152.545 313.734 151.947 314.042 151.199C314.349 150.452 314.352 149.614 314.049 148.865C313.747 148.116 313.163 147.513 312.422 147.186L313.701 143.998C317.834 145.664 322.228 146.595 326.683 146.749L326.575 149.995C325.768 150.039 325.01 150.396 324.462 150.99C323.915 151.583 323.621 152.365 323.643 153.171C323.666 153.976 324.003 154.742 324.582 155.303C325.162 155.865 325.939 156.18 326.748 156.18C327.556 156.18 328.333 155.865 328.913 155.303C329.492 154.742 329.829 153.976 329.852 153.171C329.874 152.365 329.58 151.583 329.033 150.99C328.485 150.396 327.727 150.039 326.92 149.995L327.028 146.749H328.099C332.374 146.774 336.623 146.087 340.671 144.715L341.785 147.874C341.051 148.216 340.479 148.829 340.191 149.584C339.904 150.339 339.923 151.176 340.245 151.918C340.566 152.659 341.166 153.246 341.915 153.553C342.664 153.861 343.504 153.866 344.257 153.566C345.009 153.266 345.615 152.685 345.944 151.947C346.274 151.209 346.302 150.372 346.022 149.614C345.742 148.856 345.177 148.237 344.446 147.888C343.715 147.539 342.877 147.488 342.109 147.745L340.994 144.6C342.913 143.918 344.774 143.081 346.558 142.1L361.186 168.965H295.012L309.661 142.093Z" fill="url(#paint2_linear_373_2489)"/>
<path d="M498.22 199.097L493.699 168.937H484.44V143.905H485.591V141.641H481.098V131.891H480.544V141.641H477.439V133.653H476.893V141.641H458.175V143.905H459.455V194.692H438.084V171.946H425.915V116.044H427.029V113.3H424.599V109.79H421.803V108.472V104.453V100.971H418.425V94.7452H418.022H417.612V100.971H415.794L414.694 104.453H407.333V109.79H388.055V113.3H385.625V116.044H386.74V152.416H370.609V188.151L352.711 180.249V145.56H355.601V143.01H350.519V136.096H328.767V143.01H321.666V136.096H318.007V143.01H314.355V136.096H310.337V143.01H301.934V145.56H303.214V193.638H295.055V193.137H293.582V179.432H295.055V178.336H293.582V164.631H295.055V163.535H293.582V149.837H295.055V148.734H293.582V135.036H295.055V133.933H293.582V120.235H295.055V119.132H293.582V104.954H296.112V103.851H297.398V100.849H273.369V97.5034H274.152V96.5362H261.07V97.5034H261.853V100.849H255.901V103.851H257.188V104.954H259.718V119.132H258.238V120.235H259.718V133.933H258.238V135.036H259.718V148.734H258.238V149.837H259.718V163.535H258.238V164.631H259.718V178.336H258.238V179.432H259.718V193.137H258.238V194.233H259.718V205.431H251.517V162.167H218.516V193.638H213.161V95.5977H209.193V98.1195L201.883 99.9034V98.2628H197.915V100.871L190.605 102.647V100.77H186.637V103.614L179.327 105.398V103.851H175.359V106.365L168.048 108.149V106.817H164.081V203.095H158.51V151.764H137.851V183.329H116.682V156.414H114.073V147.573H115.618V146.685H108.768V143.905H108.035V146.685H105.842V132.414H105.296V146.685H102.442V147.573H104.124V156.414H90.1508V176.946H76.5437L69.4346 203.095H55.1806V117.713H36.3046V114.654H37.3828V113.587H23.0856V114.654H24.207V117.713V122.635V181.108H15.3081V159.014H18.4709V157.016H-3.92729V143.669H-8.19702V140.925H-17.7357V143.669H-25.4916V191.324H-50.9447V155.977H-72.3797V183.895H-90.9825V201.763H-104.396V179.303H-122.035V198.446H-138V212H-122.035H-116.637H-107.817H-104.396H-90.9825H-72.3797H-66.1332H-62.7836H-50.9447H-25.4916H-17.7357H-8.19702H-3.92729H12.7779H15.3081H24.207H39.1295H46.483H55.1806H90.1508H98.223H111.852H116.682H138.218H144.004H164.081H166.064H168.048H175.359H179.327H186.637H189.951H190.605H197.915H201.883H208.172H209.193H211.177H213.161H218.516H245.788H249.691H251.517H259.718H274.152H287.371H293.582H303.214H327.143H352.445H352.711H370.609H380.615H386.74H390.607H420.552H425.915H432.327H438.084H459.455H475.347H478.596H484.44H520V199.097H498.22Z" fill="url(#paint3_linear_373_2489)"/>
</g>
<defs>
<linearGradient id="paint0_linear_373_2489" x1="-19.2451" y1="170.541" x2="-19.2451" y2="53.2866" gradientUnits="userSpaceOnUse">
<stop stop-color="#201B59"/>
<stop offset="0.14" stop-color="#243763"/>
<stop offset="0.32" stop-color="#201B59"/>
<stop offset="0.55" stop-color="#2D2D84"/>
<stop offset="1" stop-color="#243763"/>
</linearGradient>
<linearGradient id="paint1_linear_373_2489" x1="197.412" y1="190.629" x2="197.412" y2="0" gradientUnits="userSpaceOnUse">
<stop stop-color="#201B59"/>
<stop offset="0.14" stop-color="#243763"/>
<stop offset="0.32" stop-color="#201B59"/>
<stop offset="0.55" stop-color="#2D2D84"/>
<stop offset="1" stop-color="#8694DD"/>
</linearGradient>
<linearGradient id="paint2_linear_373_2489" x1="190.756" y1="212" x2="190.756" y2="33.4922" gradientUnits="userSpaceOnUse">
<stop offset="0.08" stop-color="#243763"/>
<stop offset="0.46" stop-color="#201B59"/>
<stop offset="0.86" stop-color="#4F4D4E"/>
<stop offset="1" stop-color="#243763"/>
</linearGradient>
<linearGradient id="paint3_linear_373_2489" x1="191" y1="94.7452" x2="191" y2="212" gradientUnits="userSpaceOnUse">
<stop stop-color="#243763"/>
<stop offset="0.86" stop-color="#201B59"/>
<stop offset="1" stop-color="#2D2D84"/>
</linearGradient>
</defs>
</svg>
