<svg width="45" height="60" viewBox="0 0 45 60" fill="none" xmlns="http://www.w3.org/2000/svg">
<path d="M1.81076 59.1667C1.72219 59.6981 1.36791 60.0524 0.836493 59.9638C0.305074 59.9638 0.0393644 59.521 0.0393644 59.0781C0.0393644 56.5981 -0.0492054 54.0296 0.0393644 51.5497C0.216504 48.6269 1.81076 46.6783 4.55642 45.6155C5.7964 45.1726 7.12495 44.7298 8.36493 44.287C8.80777 44.1098 8.80777 44.0212 8.63063 43.5784C6.94781 40.0356 5.53069 36.2271 4.46785 32.33C3.49359 28.6987 2.8736 24.9787 2.8736 21.1702C2.8736 14.0846 5.7964 8.50475 11.642 4.60768C11.9963 4.34197 12.262 4.07626 12.5277 3.72198C14.122 1.5963 16.3362 0.533467 18.8162 0.179188C22.6247 -0.263661 26.3446 0.0906179 29.976 1.50773C33.3416 2.83628 36.0873 4.87339 38.3901 7.70762C40.5158 10.3647 41.9329 13.2875 42.5529 16.6532C43.0843 19.3103 42.9957 21.9674 42.6414 24.713C41.7557 31.4443 39.3644 37.5556 35.9987 43.4013C35.6444 44.0212 35.6444 44.0212 36.353 44.287C37.593 44.7298 38.9215 45.1726 40.1615 45.6155C43.1729 46.6783 44.8557 48.9811 44.8557 52.1697C44.8557 54.3839 44.8557 56.5982 44.8557 58.8124C44.8557 59.1667 44.8557 59.521 44.5014 59.7867C43.97 60.2295 43.35 59.9638 43.0843 59.1667C42.9071 58.901 42.9072 58.6353 42.9072 58.281C42.9072 56.2439 42.9072 54.2068 42.9072 52.2582C42.9072 50.2211 42.11 48.7154 40.3386 47.7412C39.8958 47.4755 39.3644 47.3869 38.9215 47.1212C38.5672 46.944 38.3015 47.1212 38.1244 47.3869C37.2387 48.5383 36.1758 49.5126 35.0244 50.3983C34.8473 50.4868 34.7587 50.5754 34.5816 50.664C33.7845 51.1068 33.1645 50.9297 32.8988 50.044C32.8102 49.5126 33.253 49.1583 33.6073 48.8926C34.4044 48.2726 35.113 47.7412 35.733 47.0326C35.8216 46.944 35.9101 46.7669 36.0873 46.5898C36.353 46.3241 36.353 46.1469 35.9101 45.9698C34.7587 45.5269 33.6073 45.1726 32.4559 44.7298C31.6588 44.4641 30.8617 44.1984 30.1531 43.9327C28.2931 43.2241 27.1417 41.8956 26.9646 39.8585C26.9646 38.9728 26.9646 38.0871 26.9646 37.2014C26.9646 36.7585 26.7874 36.6699 26.4332 36.8471C25.1932 37.3785 23.7761 37.4671 22.4475 37.4671C21.0304 37.4671 19.7019 37.2899 18.3733 36.8471C17.7533 36.6699 17.6648 36.6699 17.6648 37.2899C17.6648 38.0871 17.6648 38.9728 17.6648 39.7699C17.399 41.807 16.2476 43.1355 14.2991 43.8441C12.5277 44.5527 10.6677 45.0841 8.80777 45.7926C8.18779 46.0583 8.18779 46.1469 8.63063 46.5898C10.402 48.4497 12.4391 49.8668 14.8305 50.7525C16.7791 51.4611 18.8162 51.904 20.9418 52.0811C23.8646 52.2582 26.6103 51.904 29.2674 50.9297C29.4445 50.8411 29.7102 50.7525 29.8874 50.664C30.4188 50.4868 30.8617 50.5754 31.2159 51.0183C31.5702 51.8154 31.3045 52.2582 30.5959 52.6125C28.3817 53.4982 26.0789 54.0296 23.5989 54.2068C19.7904 54.4725 16.2476 53.7639 12.882 52.2582C10.4906 51.1954 8.4535 49.6897 6.77067 47.6526C5.88497 46.5898 6.06211 46.7669 4.99927 47.1212C4.73356 47.2098 4.55642 47.2983 4.29072 47.3869C2.51932 48.2726 1.72219 49.7783 1.63362 51.8154C1.63362 53.8525 1.63362 55.8896 1.63362 58.0153C1.9879 58.6353 2.07647 58.901 1.81076 59.1667Z" fill="black"/>
<path d="M1.81073 59.1667C1.81073 56.6867 1.72216 54.2953 1.81073 51.8154C1.8993 49.8668 2.78499 48.4497 4.55639 47.564C4.91067 47.4755 5.08781 47.8297 5.26495 48.0069C8.36489 51.6382 12.0848 54.1182 16.6905 55.3582C19.3475 56.0667 22.0046 56.2439 24.7503 55.9782C28.7359 55.6239 32.3673 54.2068 35.5558 51.904C37.0615 50.8411 38.3015 49.5126 39.5415 48.184C39.8072 47.9183 39.8957 47.564 40.3386 47.564C42.11 48.3612 43.0843 49.8668 43.0843 51.8154C43.1728 54.2953 43.0843 56.6867 43.0843 59.1667C29.4445 59.1667 15.6276 59.1667 1.81073 59.1667Z" fill="#FE8250"/>
<path d="M30.2417 12.4018C32.0131 12.7561 33.5188 14.4389 33.696 16.2989C33.7845 17.4503 33.7845 18.5131 33.7845 19.6645C33.7845 20.9045 34.4931 21.613 35.7331 21.613C36.3531 21.613 36.8845 21.7902 37.2388 22.3216C37.593 22.853 37.593 23.3844 37.2388 23.9159C36.8845 24.4473 36.2645 24.713 35.7331 24.6244C35.5559 24.6244 35.4674 24.5358 35.4674 24.3587C35.2902 23.9159 35.0245 23.6501 34.4931 23.7387C33.9617 23.8273 33.7845 24.1816 33.7845 24.713C33.696 26.4844 33.3417 28.1672 32.5446 29.6729C30.5074 33.3928 27.4961 35.4299 23.3333 35.7842C22.7133 35.8728 22.0933 35.8728 21.4733 35.7842C19.8791 35.3414 18.6391 34.3671 17.4877 33.2157C15.4506 31.1786 14.2992 28.6986 13.9449 25.8644C13.9449 25.5987 13.8563 25.333 13.8563 25.0673C13.8563 22.7645 13.8563 20.3731 13.8563 18.0702C13.8563 15.856 15.5391 14.1732 17.7534 14.1732C20.9419 14.1732 24.219 14.1732 27.4075 14.1732C28.4703 14.1732 29.356 13.9075 29.7103 12.8446C29.8875 12.4904 29.976 12.3132 30.2417 12.4018Z" fill="#F4B87D"/>
<path d="M25.1933 11.4276C25.1933 10.6304 24.839 10.3647 24.0419 10.3647C21.4733 10.3647 18.8162 10.2761 16.2477 10.3647C14.2106 10.4533 12.5278 8.68189 13.2363 6.2905C13.7678 4.60768 14.9192 3.45627 16.5134 2.74771C17.7534 2.12772 19.1705 1.86201 20.5876 1.77344C23.6876 1.68487 26.6104 1.95058 29.5332 3.10199C33.8731 4.87339 37.1502 7.88476 39.2759 12.0475C40.7815 14.9703 41.4015 18.0703 41.313 21.3474C41.1358 25.7759 40.1616 30.0272 38.5673 34.19C37.4159 37.2014 35.9988 40.1242 34.4045 42.8698C34.1388 43.2241 33.9617 43.3127 33.6074 43.1355C32.7217 42.7813 31.7474 42.5156 30.8617 42.1613C29.7103 41.7184 29.0903 40.8327 29.0018 39.5042C29.0018 38.3528 29.0018 37.2014 29.0018 36.1385C29.0018 35.8728 29.0903 35.6071 29.356 35.43C30.8617 34.5443 32.1017 33.3043 33.076 31.8872C33.2531 31.6215 33.4303 31.6215 33.6074 31.8872C34.4045 32.7729 35.3788 32.95 36.5302 32.5072C37.593 32.1529 38.213 31.2672 38.3016 30.1158C38.3902 28.9644 37.9473 27.9015 37.5045 26.8387C37.4159 26.6616 37.3273 26.4844 37.2388 26.3958C37.0616 26.1301 37.0616 25.953 37.4159 25.7759C38.6559 25.1559 39.453 23.7388 39.1873 22.4988C38.9216 20.816 37.9473 19.9303 36.3531 19.6645C36.2645 19.6645 36.1759 19.576 36.0873 19.576C35.5559 19.6645 35.4674 19.3103 35.4674 18.8674C35.4674 17.6274 35.5559 16.3875 35.2902 15.2361C34.5817 12.2247 31.836 9.92187 28.1161 10.1876C27.5846 10.1876 27.2304 10.5419 27.2304 11.0733C26.6104 11.4276 25.9018 11.339 25.1933 11.4276Z" fill="#64505A"/>
<path d="M27.3189 40.1242C27.6732 42.1613 28.736 43.4013 30.6845 44.1098C32.7216 44.8184 34.7587 45.5269 36.8844 46.3241C35.9987 47.4755 35.0244 48.3612 33.9616 49.1583C33.6073 49.424 33.2531 49.6897 33.2531 50.2211C33.3416 50.3983 33.2531 50.5754 33.0759 50.664C32.5445 50.9297 32.1016 51.3726 31.5702 51.4611C31.2159 51.0183 30.7731 51.0183 30.2417 51.1954C28.0274 52.0811 25.8132 52.6125 23.4218 52.6125C17.9305 52.7897 12.9706 51.1954 8.98493 47.2098C8.71922 46.9441 8.54208 46.6784 8.27637 46.4126C8.36494 46.1469 8.54208 46.1469 8.63065 46.0584C10.4906 45.3498 12.4391 44.7298 14.3877 44.0213C16.2476 43.4013 17.3991 42.0727 17.7533 40.0356C17.8419 39.6813 17.7533 39.4156 17.7533 39.0614C17.7533 38.4414 17.7533 38.3528 18.4619 38.5299C19.259 38.7956 20.1447 38.9728 20.9418 39.0614C22.6247 39.2385 24.3075 39.1499 25.9903 38.7071C27.2303 38.3528 27.2303 38.3528 27.2303 39.5928C27.2303 39.8585 27.2303 39.9471 27.3189 40.1242Z" fill="#E2A975"/>
<path d="M11.2878 7.08765C11.2878 8.59333 11.7306 9.92188 12.7935 10.8961C13.0592 11.1619 12.882 11.2504 12.6163 11.339C10.9335 12.3133 9.95922 13.819 9.51637 15.6789C9.25066 16.8303 9.33923 17.8932 9.33923 19.0446C9.33923 19.4874 9.25066 19.6646 8.71924 19.7531C6.85927 19.9303 5.97358 20.816 5.6193 22.5874C5.35359 23.8273 6.06215 25.2445 7.39069 25.8644C7.83354 26.0416 7.74497 26.2187 7.56783 26.573C7.03641 27.5473 6.68214 28.6101 6.505 29.6729C6.32786 30.8244 7.03641 31.9758 7.92211 32.4186C8.89638 32.95 10.2249 32.7729 10.9335 32.0643C11.2878 31.6215 11.5535 31.7101 11.8192 32.1529C12.7049 33.4815 13.9449 34.5443 15.2734 35.43C15.6277 35.6957 15.8048 35.8728 15.7163 36.3157C15.7163 37.4671 15.7163 38.5299 15.7163 39.6813C15.7163 40.9213 15.0963 41.807 13.9449 42.2499C12.9706 42.6927 11.9078 42.9584 10.8449 43.4013C10.4906 43.4898 10.3135 43.4898 10.1364 43.1356C8.98495 40.8327 7.92211 38.4414 7.12498 36.05C5.97358 32.8615 5.08788 29.5844 4.7336 26.2187C4.29075 22.9416 4.11361 19.6646 4.91074 16.3875C5.53073 13.819 6.7707 11.6047 8.45353 9.5676C9.4278 8.6819 10.2249 7.88477 11.2878 7.08765Z" fill="#5A4650"/>
<path d="M25.1931 11.4275C25.9017 10.9847 26.5216 11.2504 27.2302 11.3389C27.3188 11.9589 27.6731 12.1361 28.2045 12.1361C28.913 12.1361 29.533 12.1361 30.153 12.3132C29.8873 12.3132 29.8873 12.5789 29.7987 12.7561C29.4444 13.6418 28.8245 14.0846 27.7616 14.0846C24.396 14.0846 21.0303 14.0846 17.5761 14.0846C15.6276 14.0846 13.9447 15.7674 13.9447 17.716C13.9447 20.0188 13.9447 22.3216 13.9447 24.6244C14.0333 27.6358 15.0961 30.2929 17.1332 32.5957C18.2847 33.9242 19.7903 34.8099 21.296 35.6071C18.4618 35.3414 16.159 34.1899 14.2104 32.1528C12.2619 30.2043 11.2876 27.8129 11.1105 25.0673C11.1105 24.8015 11.1105 24.5358 11.0219 24.2701C10.9334 23.8273 10.7562 23.6501 10.3134 23.5616C9.87053 23.473 9.51625 23.6501 9.42768 24.093C9.33911 24.5358 9.0734 24.5358 8.71912 24.4473C7.92199 24.3587 7.39057 23.8273 7.302 23.0302C7.302 22.3216 7.83342 21.7016 8.54198 21.5245C8.80769 21.5245 8.98483 21.5245 9.25054 21.4359C10.3134 21.3473 11.0219 20.7273 11.0219 19.5759C11.0219 18.5131 11.0219 17.4503 11.1105 16.3874C11.2876 13.996 13.2362 11.9589 16.0704 11.9589C18.7275 11.9589 21.296 11.9589 23.9531 11.9589C24.6617 12.2246 25.1045 12.0475 25.1931 11.4275Z" fill="#E2A975"/>
<path d="M31.4817 51.3725C31.9246 51.1068 32.2789 50.9296 32.7217 50.6639C32.8988 50.5753 33.1646 50.4868 33.1646 50.2211C33.5188 51.0182 34.0503 51.1953 34.7588 50.6639C36.0874 49.6896 37.3273 48.6268 38.3016 47.2983C38.4787 47.0326 38.7444 46.8554 39.0987 47.0326C39.5416 47.2097 40.073 47.2983 40.5158 47.564C39.8073 48.0954 39.2759 48.804 38.7444 49.4239C37.4159 50.8411 35.8216 52.081 34.1388 53.0553C31.9246 54.3838 29.6218 55.2695 27.1418 55.801C24.9276 56.2438 22.6247 56.3324 20.3219 56.0667C16.602 55.7124 13.2363 54.4724 10.1364 52.4353C8.365 51.2839 6.77075 49.7782 5.4422 48.184C5.26506 47.9183 5.08792 47.7411 4.73364 47.564C5.17649 47.2983 5.79648 47.1211 6.3279 46.944C6.59361 46.8554 6.68218 46.944 6.77075 47.1211C10.225 51.461 14.8306 53.5867 20.1448 54.2067C23.8647 54.6496 27.5847 54.1181 31.0389 52.701C31.5703 52.4353 31.7474 52.081 31.4817 51.3725Z" fill="#DB7346"/>
<path d="M27.3188 40.1242C27.0531 39.6813 27.3188 39.1499 27.1417 38.707C22.2704 39.7699 22.6246 39.6813 17.9304 38.707C17.7533 39.1499 18.019 39.6813 17.7533 40.1242C17.7533 39.1499 17.7533 38.1756 17.7533 37.1128C17.7533 36.6699 17.8419 36.5814 18.2847 36.7585C20.7647 37.6442 23.3332 37.7328 25.9017 37.0242C26.256 36.9356 26.6103 36.8471 26.876 36.6699C27.2303 36.5814 27.2303 36.6699 27.2303 36.9356C27.2303 38.087 27.3188 39.0613 27.3188 40.1242Z" fill="#D19A6D"/>
<path d="M9.33923 27.1044C9.78208 27.9901 10.2249 28.8758 10.3135 29.85C10.4021 30.5586 9.95922 31.0014 9.33923 31.0014C8.71924 31.0014 8.36496 30.47 8.45353 29.7615C8.5421 28.8758 8.89638 27.9901 9.33923 27.1044Z" fill="#FDDF7C"/>
<path d="M35.6444 27.1044C36.0873 27.9901 36.4416 28.8758 36.6187 29.7615C36.7073 30.2043 36.6187 30.6472 36.1759 30.9129C35.8216 31.09 35.4673 31.09 35.2016 30.9129C34.7587 30.6472 34.6702 30.2929 34.6702 29.85C34.7587 28.8758 35.2016 28.0786 35.6444 27.1044Z" fill="#FDDF7C"/>
<path d="M22.5361 30.9129C21.3847 30.9129 20.2333 30.6472 19.259 29.9387C18.8161 29.5844 18.639 29.053 18.9933 28.6101C19.259 28.2558 19.7904 28.1673 20.3218 28.5216C21.6504 29.4073 23.3332 29.4073 24.6617 28.5216C25.1932 28.1673 25.636 28.2558 25.9903 28.6101C26.3446 29.053 26.1674 29.4958 25.7246 29.9387C24.7503 30.6472 23.6875 30.9129 22.5361 30.9129Z" fill="black"/>
<path d="M15.9819 19.7532C15.5391 19.7532 15.2733 19.576 15.0962 19.2218C15.0076 18.8675 15.0076 18.5132 15.3619 18.2475C15.8048 17.9818 16.3362 17.7161 16.8676 17.5389C17.3104 17.4504 17.5762 17.6275 17.7533 17.9818C17.9304 18.3361 17.9304 18.6903 17.6647 18.956C17.2219 19.3103 16.6019 19.576 15.9819 19.7532Z" fill="#010101"/>
<path d="M29.0902 19.7532C28.4702 19.576 27.7617 19.3103 27.3188 18.8675C27.0531 18.6018 27.0531 18.2475 27.2303 17.9818C27.4074 17.6275 27.7617 17.4504 28.116 17.5389C28.6474 17.7161 29.1788 17.8932 29.7102 18.2475C30.0645 18.5132 30.0645 18.8675 29.8874 19.2218C29.7102 19.576 29.4445 19.6646 29.0902 19.7532Z" fill="#010101"/>
<path d="M17.7533 22.1445C17.7533 23.1188 17.4876 23.4731 16.8676 23.4731C16.2476 23.4731 15.9819 23.0302 15.9819 22.1445C15.9819 22.056 15.9819 21.9674 15.9819 21.8788C15.9819 21.1703 16.3362 20.816 16.8676 20.816C17.3991 20.816 17.7533 21.2588 17.7533 21.8788C17.7533 21.9674 17.7533 22.056 17.7533 22.1445Z" fill="#020101"/>
<path d="M27.2302 22.1445C27.2302 21.2588 27.4959 20.816 28.1159 20.816C28.7359 20.816 29.0016 21.2588 29.0016 22.1445C29.0016 22.2331 29.0016 22.3217 29.0016 22.4102C29.0016 23.1188 28.6473 23.4731 28.1159 23.4731C27.5845 23.4731 27.2302 23.0302 27.2302 22.4102C27.2302 22.3217 27.2302 22.2331 27.2302 22.1445Z" fill="#020101"/>
</svg>
