<svg width="27" height="33" viewBox="0 0 27 33" fill="none" xmlns="http://www.w3.org/2000/svg">
<path d="M14.2528 0C14.744 0.0985686 15.2353 0.197137 15.7266 0.295706C17.1023 0.591412 18.3796 0.985686 19.657 1.67567C20.05 1.8728 20.05 1.97137 19.9518 2.46422C19.7552 2.75992 19.5587 2.85849 19.2639 2.66135C18.9692 2.56278 18.6744 2.36565 18.2814 2.16851C16.5127 1.28139 14.5475 0.985686 12.5824 1.08426C9.92938 1.18282 7.47291 2.16851 5.40948 3.94275C4.03386 5.027 2.95302 6.50553 2.16695 8.1812C1.97043 8.4769 1.97043 8.57547 2.36347 8.57547C2.46172 8.57547 2.46172 8.57547 2.55998 8.57547C2.85476 8.57547 3.05128 8.4769 3.14953 8.1812C3.64083 7.09694 4.32864 6.20982 5.21297 5.32271C6.58858 3.94275 8.25898 2.95706 10.1259 2.46422C12.5824 1.77424 15.0388 1.8728 17.397 2.85849C20.05 3.94275 21.9169 5.71698 23.2925 8.1812C23.3908 8.27977 23.3908 8.57547 23.5873 8.57547C23.8821 8.67404 24.1769 8.57547 24.3734 8.57547C24.5699 8.57547 24.4716 8.4769 24.3734 8.37833C24.2751 8.08263 24.0786 7.78692 23.8821 7.49122C23.3908 6.50553 22.703 5.61841 21.9169 4.82986C21.6221 4.43559 21.4256 4.13988 21.0326 3.94275C20.7378 3.64704 20.7378 3.35133 20.9343 3.1542C21.2291 2.95706 21.4256 2.95706 21.7204 3.1542C24.0786 5.22414 25.6508 7.68835 26.142 10.744C26.9281 15.3767 25.6508 19.3195 22.4082 22.6708C22.31 22.7694 22.2117 22.9665 22.31 23.1636C22.703 25.6278 23.1943 28.0921 23.5873 30.5563C23.5873 30.6548 23.5873 30.6548 23.5873 30.7534C23.6856 31.2463 23.2925 31.542 22.8995 31.2463C21.7204 30.7534 20.5413 30.2606 19.3622 29.6692C19.1657 29.5706 19.0674 29.5706 18.8709 29.7677C17.9866 30.6548 17.1023 31.542 16.1197 32.4291C15.9232 32.6262 15.8249 32.7248 15.5301 32.6262C15.3336 32.5276 15.2353 32.3305 15.1371 32.1334C14.8423 30.3591 14.5475 28.5849 14.2528 26.8107C14.2528 26.515 14.1545 26.515 13.8597 26.515C13.3684 26.6135 12.8771 26.515 12.3858 26.515C12.1893 26.515 12.0911 26.515 12.0911 26.7121C11.7963 28.4863 11.5015 30.162 11.2067 31.9362C11.1085 32.2319 11.2067 32.6262 10.8137 32.7248C10.4207 32.8234 10.3224 32.5277 10.0276 32.3305C9.14331 31.542 8.25898 30.6548 7.47291 29.8663C7.37465 29.7677 7.17814 29.6692 7.07988 29.7677C5.90077 30.2606 4.72167 30.7534 3.64083 31.3448C3.44431 31.4434 3.24779 31.542 2.95302 31.3448C2.7565 31.1477 2.7565 30.9506 2.85476 30.6548C3.24779 28.1906 3.73909 25.7264 4.13212 23.2622C4.13212 23.0651 4.13212 22.8679 3.9356 22.7694C1.18436 20.0094 -0.0929992 16.6581 0.00525939 12.8139C0.300035 6.6041 4.62341 1.5771 10.5189 0.295706C11.0102 0.197137 11.4033 0.197137 11.8945 0.0985686C11.9928 0.0985686 11.9928 0.0985686 12.0911 0C12.1893 0 12.1893 0 12.2876 0H12.3858H12.4841C12.8771 0 13.2702 0 13.6632 0C13.7615 0.0985686 13.7615 0 13.8597 0C13.958 0 13.958 0 14.0562 0C14.1545 0 14.2528 0 14.2528 0Z" fill="black"/>
<path d="M14.1545 0C14.1545 0.0985686 14.0563 0.0985686 13.958 0.0985686C13.958 0 14.0563 0 14.1545 0Z" fill="#636363"/>
<path d="M13.958 0C13.8597 0.0985686 13.7615 0.0985686 13.7615 0C13.7615 0 13.8597 0 13.958 0Z" fill="#3E3E3E"/>
<path d="M12.4841 0C12.4841 0.0985686 12.3859 0.0985686 12.3859 0.0985686C12.3859 0 12.4841 0 12.4841 0Z" fill="#5D5D5D"/>
<path d="M12.3859 0C12.2876 0.0985686 12.2876 0.0985686 12.2876 0H12.3859Z" fill="#848484"/>
<path d="M23.1943 8.18119C22.31 6.6041 21.2291 5.22413 19.7553 4.23845C14.1545 0.0985652 6.19557 2.16851 3.24781 8.37833C3.14955 8.57547 3.0513 8.67404 2.75652 8.67404C2.46174 8.67404 2.16697 8.67404 1.87219 8.67404C1.87219 8.4769 1.97045 8.4769 1.97045 8.37833C3.83736 4.43559 6.88338 1.97137 11.1085 1.08425C13.958 0.591408 16.611 1.08425 19.1657 2.46421C19.4605 2.66135 19.7553 2.66135 19.9518 2.36564C20.3448 2.56278 20.6396 2.95706 21.0326 3.05562C20.8361 3.35133 20.8361 3.54847 21.1309 3.84417C21.4257 4.13988 21.7204 4.33702 22.0152 4.63272C22.6048 5.61841 22.9978 6.6041 23.1943 7.68835C23.2926 7.88549 23.3908 8.08263 23.1943 8.18119Z" fill="#FC7F86"/>
<path d="M21.9169 16.9538C21.8187 16.9538 21.7204 16.9538 21.5239 16.9538C14.9406 16.9538 8.35724 16.9538 1.77391 16.9538C1.47913 16.9538 1.38088 16.8552 1.28262 16.5595C0.693066 14.2925 0.693066 12.0254 1.28262 9.85687C1.38088 9.65973 1.47914 9.56116 1.67565 9.56116C2.95301 9.56116 4.13212 9.56116 5.40948 9.56116C5.80251 9.56116 5.90077 9.46259 5.99903 9.06832C6.39206 8.96975 6.7851 8.96975 7.27639 9.06832C7.37465 9.36402 7.47291 9.46259 7.76768 9.56116C7.86594 9.56116 8.06246 9.56116 8.16072 9.56116C13.1719 9.56116 18.0848 9.56116 23.096 9.56116C23.4891 9.56116 23.5873 9.56116 23.5873 10.054C23.5873 10.6454 23.6856 11.2368 23.4891 11.8282C23.3908 11.9268 23.2925 11.9268 23.1943 11.9268C22.4082 11.8282 21.8187 12.2225 21.6221 13.0111C21.4256 13.701 21.8187 14.2925 22.5065 14.5882C22.6047 14.5882 22.6047 14.6867 22.703 14.6867C22.8995 14.7853 22.8995 14.8839 22.8995 15.081C22.703 15.6724 22.4082 16.2638 22.1134 16.8552C22.0152 16.8552 22.0152 16.8552 21.9169 16.9538Z" fill="#FCF5EB"/>
<path d="M18.2813 22.7694C17.9865 22.3751 17.8882 22.3751 17.3969 22.5722C13.4666 24.3465 8.84844 23.4593 5.90068 20.3051C5.31113 19.7137 4.81984 18.9252 4.32855 18.2352C4.13203 17.9395 4.13203 17.9395 4.52506 17.9395C9.92929 17.9395 15.2353 17.9395 20.6395 17.9395C21.1308 17.9395 21.6221 17.9395 22.0151 17.9395C22.3099 17.9395 22.3099 17.9395 22.2116 18.2352C21.5238 19.418 20.6395 20.5023 19.5586 21.2908C19.1656 21.5865 19.1656 21.6851 19.2639 22.0794C19.1656 22.2765 18.9691 22.3751 18.7726 22.4737C18.576 22.5722 18.3795 22.6708 18.2813 22.7694Z" fill="#FC4755"/>
<path d="M7.37461 9.06832C6.98158 9.06832 6.58854 9.06832 6.09725 9.06832C5.99899 8.77261 5.90073 8.67404 5.5077 8.57547C5.01641 8.57547 4.62337 8.57547 4.13208 8.57547C5.21292 6.11126 8.25894 3.35133 12.3858 3.05563C17.4952 2.66135 20.9343 5.91412 22.2117 8.57547C22.1134 8.57547 21.9169 8.57547 21.8186 8.57547C17.2005 8.57547 12.5823 8.57547 7.96417 8.57547C7.57113 8.57547 7.47287 8.67404 7.37461 9.06832Z" fill="#FC4755"/>
<path d="M18.2814 22.7694C18.3796 22.5722 18.5761 22.5722 18.7727 22.3751C18.9692 22.2765 19.1657 22.1779 19.3622 21.9808C19.657 22.2765 19.8535 22.2765 20.1483 21.9808C21.5239 20.8966 22.5065 19.6152 23.2926 18.0381C23.3908 17.8409 23.4891 17.7424 23.6856 17.7424C23.8821 17.7424 24.0786 17.7424 24.2751 17.7424C24.4717 17.7424 24.5699 17.8409 24.4717 18.0381C24.0786 19.0237 23.4891 19.9109 22.8013 20.798C20.05 24.1493 16.4145 25.7264 12.0911 25.4307C9.24157 25.2336 6.88337 24.0507 4.81994 22.1779L4.72168 22.0794C4.81994 21.9808 4.9182 22.0794 5.11471 22.1779C6.0973 22.6708 7.17814 23.0651 8.25899 23.2622C9.92938 24.0507 11.698 24.5436 13.6632 24.445C15.1371 24.445 16.611 24.0507 17.9866 23.4593C18.1831 23.2622 18.2814 23.0651 18.2814 22.7694Z" fill="#FD646F"/>
<path d="M10.9119 27.9935C10.7154 29.0777 10.5189 30.0634 10.4206 31.1477C10.3223 31.1477 10.2241 31.0491 10.2241 30.9506C9.43802 30.2606 8.75021 29.472 7.96414 28.782C7.57111 28.3878 7.57111 28.3878 6.98155 28.5849C5.99897 29.0777 4.91812 29.472 3.83728 29.9649C4.13206 28.3878 4.42683 26.8107 4.72161 25.3321C4.81987 25.3321 4.91812 25.3321 5.11464 25.4307C6.78504 26.6135 8.65195 27.3035 10.6171 27.6978C10.7154 27.7964 11.0102 27.6978 10.9119 27.9935Z" fill="#89C8FD"/>
<path d="M21.7204 25.4307C22.0151 27.0078 22.3099 28.4863 22.6047 30.0634C22.2117 29.8663 21.8186 29.7677 21.5238 29.5706C20.836 29.2749 20.1482 28.9792 19.3622 28.5849C19.0674 28.4863 18.8709 28.4863 18.5761 28.6835C17.79 29.3735 17.1022 30.162 16.3161 30.852C16.2179 30.9506 16.1196 30.9506 16.0214 31.1477C15.8249 30.0634 15.6283 28.9792 15.5301 27.9935C15.4318 27.7964 15.6283 27.7964 15.7266 27.7964C16.1196 27.6978 16.5127 27.5992 17.004 27.5007C18.5761 27.1064 19.9517 26.4164 21.3273 25.6278C21.4256 25.5293 21.5238 25.3321 21.7204 25.4307Z" fill="#89C8FD"/>
<path d="M23.3908 11.9268L23.4891 11.8282C23.4891 11.2368 23.4891 10.5468 23.4891 9.95543C23.4891 9.85686 23.3908 9.75829 23.2926 9.75829C23.1943 9.75829 23.096 9.75829 22.9978 9.75829C18.0849 9.75829 13.1719 9.75829 8.16073 9.75829C8.06248 9.75829 7.86596 9.75829 7.7677 9.75829C7.86596 9.75829 7.96422 9.75829 8.06248 9.75829C13.565 9.75829 19.0674 9.75829 24.5699 9.75829C24.7664 9.75829 24.8647 9.85686 24.963 10.054C25.5525 12.3211 25.5525 14.5882 24.963 16.8552C24.8647 17.0524 24.8647 17.1509 24.6682 17.1509C23.7838 17.1509 22.8013 17.1509 21.9169 17.1509C22.2117 16.5595 22.5065 15.9681 22.8013 15.2781C22.8995 15.081 22.8995 14.9824 22.703 14.8839C22.8013 14.7853 22.8995 14.7853 22.9978 14.7853C23.5873 14.7853 24.0786 14.391 24.1769 13.7996C24.3734 13.2082 24.0786 12.7154 23.5873 12.3211C23.5873 12.0254 23.3908 12.0254 23.3908 11.9268Z" fill="#FDF0D9"/>
<path d="M10.912 27.9935C10.912 27.7964 10.6172 27.7964 10.5189 27.7964C8.45551 27.4021 6.49033 26.6135 4.81994 25.4307L4.72168 25.3321C4.81994 24.8393 4.9182 24.2479 5.01646 23.6565C5.60601 24.1493 6.19556 24.5436 6.88337 24.8393C8.16073 25.5293 9.53635 26.0221 11.0102 26.3178C11.2067 26.3178 11.305 26.4164 11.2067 26.6135C11.1085 27.1064 11.0102 27.5992 10.912 27.9935Z" fill="#60B6FE"/>
<path d="M21.7204 25.4307C21.2291 25.7264 20.7378 26.0221 20.2465 26.3178C18.8709 27.1064 17.2988 27.5992 15.7266 27.8949C15.6284 27.8949 15.5301 27.8949 15.5301 27.9935C15.4319 27.5007 15.3336 27.0078 15.2354 26.515C15.2354 26.3178 15.3336 26.3178 15.4319 26.3178C16.8075 26.1207 18.0849 25.6279 19.264 25.0364C20.05 24.6422 20.7378 24.1493 21.4256 23.6565C21.5239 24.2479 21.6222 24.8393 21.7204 25.4307Z" fill="#60B6FE"/>
<path d="M8.16071 23.2622C7.66942 23.2622 7.27638 23.0651 6.78509 22.9665C5.99902 22.7694 5.40947 22.3751 4.6234 22.0794C3.4443 20.9951 2.55997 19.6152 1.87216 18.0381C1.7739 17.9395 1.7739 17.8409 1.97042 17.8409C2.65823 17.7424 3.05126 17.9395 3.34604 18.6295C4.52514 20.6994 6.19554 22.1779 8.16071 23.2622Z" fill="#FC7F86"/>
<path d="M23.1942 8.1812C23.2925 7.88549 23.096 7.58978 23.096 7.39265C22.8995 6.6041 22.6047 5.71698 22.2117 5.027C22.2117 4.92843 22.1134 4.82986 22.1134 4.73129C22.9977 5.51984 24.3734 7.49121 24.6681 8.67404C24.2751 8.67404 23.8821 8.67404 23.5873 8.67404C23.1942 8.57547 23.2925 8.27976 23.1942 8.1812Z" fill="#FD646E"/>
<path d="M23.3908 11.9268C24.1768 12.3211 24.5699 13.0111 24.2751 13.7996C24.0786 14.391 23.489 14.7853 22.703 14.7853C21.8186 14.4896 21.3273 13.8982 21.5238 13.1096C21.7204 12.3211 22.4082 11.8282 23.1942 11.9268C23.2925 11.8282 23.2925 11.8282 23.3908 11.9268Z" fill="black"/>
<path d="M3.5426 14.6867C2.75654 14.6867 2.06873 14.0953 2.06873 13.3068C2.06873 12.5182 2.65828 11.8282 3.44435 11.8282C4.23041 11.8282 4.91823 12.4197 4.91823 13.2082C4.91823 13.9967 4.32867 14.6867 3.5426 14.6867Z" fill="black"/>
<path d="M14.8422 19.5166C14.6457 19.8123 14.8422 20.108 15.137 20.3051C15.53 20.798 15.2352 21.488 14.6457 21.6851C14.3509 21.7837 14.1544 21.8822 13.9579 22.1779C13.6631 22.7694 12.7788 22.7694 12.484 22.1779C12.3858 21.8822 12.1892 21.7837 11.8945 21.7837C11.5014 21.7837 11.3049 21.488 11.2066 21.1923C11.1084 20.8966 11.2066 20.5023 11.5014 20.3051C11.6979 20.108 11.7962 20.0094 11.6979 19.7137C11.5997 19.3195 11.6979 19.0237 11.9927 18.8266C12.2875 18.6295 12.6805 18.6295 12.9753 18.8266C13.1718 18.9252 13.3683 18.9252 13.5649 18.8266C14.1544 18.4323 14.8422 18.8266 14.8422 19.5166Z" fill="black"/>
<path d="M17.397 21.7837C17.1022 21.7837 16.9057 21.6851 16.7092 21.3894C16.6109 21.1923 16.5127 21.1923 16.3161 21.0937C15.7266 20.9951 15.5301 20.3051 15.9231 19.8123C16.0214 19.7137 16.1196 19.6152 16.0214 19.418C15.9231 18.8266 16.5127 18.4323 17.1022 18.6295C17.2987 18.728 17.397 18.728 17.5935 18.6295C18.1831 18.4323 18.6743 18.8266 18.6743 19.418C18.6743 19.6152 18.6743 19.7137 18.7726 19.8123C19.1656 20.3051 18.9691 20.8966 18.3796 21.0937C18.1831 21.0937 18.0848 21.1923 17.9865 21.3894C17.8883 21.5865 17.6918 21.7837 17.397 21.7837Z" fill="black"/>
<path d="M9.04505 21.7837C8.75027 21.7837 8.55376 21.6851 8.35724 21.3894C8.25898 21.2908 8.16072 21.1923 8.06246 21.0937C7.47291 20.9951 7.17814 20.3051 7.66943 19.8123C7.76769 19.7137 7.76769 19.6152 7.76769 19.418C7.66943 18.8266 8.25898 18.4323 8.84853 18.6295C8.94679 18.728 9.04505 18.728 9.24157 18.728C9.83112 18.4323 10.4207 18.8266 10.3224 19.5166C10.3224 19.6152 10.3224 19.7137 10.4207 19.8123C10.912 20.3051 10.7154 20.9951 10.0276 21.0937C9.83112 21.0937 9.83112 21.1923 9.73286 21.2908C9.53634 21.5865 9.33983 21.7837 9.04505 21.7837Z" fill="black"/>
<path d="M11.5998 6.99838C11.6981 6.70267 11.5998 6.40697 11.3051 6.20983C10.912 5.71698 11.2068 4.92844 11.7964 4.82987C12.0911 4.82987 12.2876 4.7313 12.3859 4.43559C12.5824 4.04132 12.8772 3.94275 13.2702 3.94275C13.6633 3.94275 13.8598 4.13989 14.0563 4.43559C14.1546 4.7313 14.3511 4.82987 14.5476 4.82987C14.8424 4.82987 15.1371 5.027 15.2354 5.42128C15.3337 5.71698 15.3337 6.11126 15.0389 6.3084C14.8424 6.40697 14.7441 6.6041 14.8424 6.89981C14.9406 7.19551 14.8424 7.58979 14.5476 7.78693C14.2528 7.98406 13.958 7.98406 13.6633 7.78693C13.3685 7.58979 13.2702 7.68836 12.9755 7.78693C12.2876 8.08263 11.5998 7.68836 11.5998 6.99838Z" fill="black"/>
<path d="M9.53634 7.88549C9.24157 7.68835 8.84853 7.88549 8.55376 7.88549C8.06246 7.98406 7.66943 7.58978 7.76769 7.09694C7.76769 6.8998 7.76769 6.80124 7.66943 6.70267C7.17814 6.20982 7.47291 5.51984 8.06246 5.42127C8.25898 5.42127 8.35724 5.32271 8.35724 5.22414C8.65202 4.63273 9.33983 4.63273 9.6346 5.22414C9.83112 5.32271 9.83112 5.42127 10.0276 5.42127C10.7154 5.61841 10.912 6.20982 10.4207 6.70267C10.3224 6.80124 10.3224 6.8998 10.3224 7.09694C10.4207 7.58978 10.0276 7.88549 9.53634 7.88549Z" fill="black"/>
<path d="M18.9693 6.30839C18.6745 6.6041 18.6745 7.19551 18.478 7.68835C18.3797 7.88549 17.9867 7.98406 17.6919 7.88549C17.4954 7.78692 17.2989 7.78692 17.1023 7.88549C16.611 8.08262 16.0215 7.68835 16.1198 7.09694C16.1198 6.8998 16.1198 6.80123 16.0215 6.6041C15.6285 6.11125 15.825 5.51984 16.4145 5.3227C16.611 5.3227 16.7093 5.22413 16.7093 5.12557C17.0041 4.53415 17.6919 4.53415 17.9867 5.12557C18.0849 5.3227 18.1832 5.3227 18.3797 5.42127C18.7727 5.51984 18.9693 5.81555 18.9693 6.30839Z" fill="black"/>
<path d="M22.9977 12.8139C23.2925 12.8139 23.489 13.0111 23.489 13.3068C23.489 13.6025 23.2925 13.7996 22.9977 13.701C22.703 13.701 22.5065 13.5039 22.5065 13.2082C22.4082 13.0111 22.703 12.8139 22.9977 12.8139Z" fill="#88C6FA"/>
<path d="M3.93559 13.3068C3.93559 13.6025 3.73907 13.7996 3.4443 13.7996C3.14952 13.7996 2.953 13.6025 2.953 13.3068C2.953 13.0111 3.14952 12.8139 3.4443 12.8139C3.73907 12.8139 3.93559 13.0111 3.93559 13.3068Z" fill="#88C6FA"/>
<path d="M12.5824 19.7137C13.1719 19.9109 13.1719 19.9109 13.7615 19.7137C13.7615 19.9109 13.7615 20.108 13.7615 20.3051C13.8597 20.5023 13.958 20.6008 14.1545 20.798C13.6632 20.798 13.3684 20.9951 13.1719 21.488C12.9754 20.9951 12.6806 20.798 12.0911 20.798C12.5824 20.5023 12.6806 20.108 12.5824 19.7137Z" fill="#FDD05A"/>
<path d="M17.3971 19.8123C17.4953 19.8123 17.5936 19.7137 17.6918 19.8123C17.6918 19.9109 17.8884 20.108 17.7901 20.2066C17.6918 20.3051 17.4953 20.5023 17.3971 20.5023C17.2988 20.5023 17.1023 20.3051 17.004 20.2066C17.004 20.2066 17.1023 20.0094 17.1023 19.9109C17.2005 19.6152 17.2988 19.8123 17.3971 19.8123Z" fill="#FACD59"/>
<path d="M9.04501 20.6008C8.94675 20.4037 8.65198 20.4037 8.65198 20.2066C8.65198 20.108 8.65198 19.8123 8.75024 19.8123C8.84849 19.7137 9.14327 19.7137 9.24153 19.8123C9.33979 19.9109 9.43805 20.108 9.33979 20.3051C9.33979 20.3051 9.14327 20.4037 9.04501 20.6008Z" fill="#FACD59"/>
<path d="M12.5824 6.8998C12.6806 6.40696 12.5824 6.01269 12.1893 5.71698C12.6806 5.71698 13.0737 5.42128 13.1719 5.027C13.3684 5.42128 13.6632 5.71698 14.2528 5.71698C13.8597 6.01269 13.7615 6.40696 13.8597 6.8998C13.3684 6.6041 13.0737 6.6041 12.5824 6.8998Z" fill="#FDCF5A"/>
<path d="M9.04501 6.80124C8.94675 6.80124 8.84849 6.89981 8.75024 6.80124C8.75024 6.6041 8.65198 6.40696 8.65198 6.30839C8.75024 6.20983 8.94675 6.01269 9.04501 6.01269C9.14327 6.01269 9.33979 6.20983 9.43805 6.30839C9.43805 6.40696 9.33979 6.50553 9.33979 6.70267C9.24153 6.89981 9.14327 6.70267 9.04501 6.80124Z" fill="#FBCE5A"/>
<path d="M17.3971 6.80124C17.2989 6.80124 17.2006 6.89981 17.1023 6.80124C17.0041 6.70267 16.9058 6.50553 17.0041 6.40697C17.1023 6.3084 17.2989 6.11126 17.3971 6.11126C17.4954 6.11126 17.6919 6.3084 17.7901 6.40697C17.7901 6.50553 17.6919 6.6041 17.6919 6.70267C17.6919 6.89981 17.4954 6.70267 17.3971 6.80124Z" fill="#FBCE5A"/>
</svg>
