<svg width="36" height="31" viewBox="0 0 36 31" fill="none" xmlns="http://www.w3.org/2000/svg">
<path d="M29.0278 20.0458C28.8194 20.4577 28.4722 20.595 28.0556 20.5263C27.7083 20.5263 27.6389 20.5263 27.6389 20.9382C27.6389 22.9291 27.6389 24.9199 27.6389 26.9107C27.6389 27.5972 27.4306 27.8032 26.7361 27.8032C18.5417 27.8032 10.3472 27.8032 2.22222 27.8032C1.52778 27.8032 1.31944 27.5972 1.31944 26.9107C1.31944 24.8513 1.31944 22.7918 1.31944 20.8009C1.31944 20.595 1.25 20.5263 1.04167 20.5263C0.902778 20.5263 0.763889 20.5263 0.694444 20.5263C0.277778 20.5263 0 20.2517 0 19.8398C0 19.4279 0 19.016 0 18.6041C0 18.1236 0.277778 17.849 0.763889 17.849C1.73611 17.849 2.70833 17.849 3.61111 17.849C3.81944 17.849 3.88889 17.7803 3.88889 17.5744C3.88889 15.8581 3.88889 14.1419 3.88889 12.4256C3.88889 12.2197 3.81944 12.151 3.61111 12.151C3.05556 12.151 2.77778 11.8764 2.77778 11.3272C2.77778 10.984 2.77778 10.7094 2.77778 10.3661C2.77778 9.81693 3.05556 9.47368 3.61111 9.47368C5.27778 9.47368 7.01389 9.47368 8.68056 9.47368C10.4167 9.47368 12.0833 9.47368 13.8194 9.47368C14.5139 9.47368 14.7917 9.74828 14.7917 10.4348C14.7917 10.7094 14.7917 10.984 14.7917 11.3272C14.7917 11.8764 14.5139 12.151 13.9583 12.151C13.75 12.151 13.6806 12.2197 13.6806 12.4256C13.6806 14.1419 13.6806 15.8581 13.6806 17.643C13.6806 17.849 13.75 17.9176 13.8889 17.9176C15 17.9176 16.1111 17.9176 17.2222 17.9176C17.4306 17.9176 17.4306 17.849 17.4306 17.7117C17.4306 15.9954 17.4306 14.2105 17.4306 12.4943C17.4306 12.2883 17.4306 12.2197 17.2222 12.2197C16.6667 12.2197 16.3889 11.9451 16.3889 11.3959C16.3889 11.0526 16.3889 10.7094 16.3889 10.3661C16.3889 9.88558 16.6667 9.61098 17.1528 9.61098C18.5417 9.61098 19.9306 9.61098 21.3194 9.61098C21.5972 9.61098 21.8056 9.74828 21.8056 10.0229C21.8056 10.2288 21.7361 10.4348 21.4583 10.5034C21.3194 10.5034 21.1806 10.5034 21.1111 10.5034C20 10.5034 18.9583 10.5034 17.8472 10.5034C17.2917 10.5034 17.1528 10.7094 17.3611 11.2586C17.4306 11.3272 17.5694 11.3272 17.7083 11.3272C20.8333 11.3272 23.8889 11.3272 27.0139 11.3272C27.1528 11.3272 27.3611 11.3959 27.4306 11.1899C27.5 10.984 27.5 10.778 27.4306 10.5721C27.3611 10.4348 27.2222 10.4348 27.1528 10.4348C26.6667 10.4348 26.1111 10.4348 25.625 10.4348C24.8611 10.4348 24.0972 10.4348 23.3333 10.4348C22.9861 10.2975 22.9167 10.2288 22.9861 9.95423C23.0556 9.67963 23.1944 9.54233 23.5417 9.54233C24.9306 9.54233 26.25 9.54233 27.6389 9.54233C28.1944 9.54233 28.4722 9.81693 28.4722 10.3661C28.4722 10.7094 28.4722 11.0526 28.4722 11.3272C28.4722 11.8764 28.1944 12.151 27.6389 12.151C27.4306 12.151 27.3611 12.2197 27.3611 12.4256C27.3611 14.1419 27.3611 15.8581 27.3611 17.5744C27.3611 17.7803 27.4306 17.849 27.6389 17.849C27.8472 17.849 27.9861 17.849 28.1944 17.849C28.6111 17.7803 28.8889 17.9863 29.0972 18.3295C29.0278 18.8787 29.0278 19.4966 29.0278 20.0458Z" fill="black"/>
<path d="M5.69446 3.98169C5.69446 2.8833 5.69446 1.85355 5.69446 0.755149C5.69446 0.2746 5.97224 0 6.52779 0C8.05557 0 9.58335 0 11.1111 0C11.6667 0 11.9445 0.2746 11.9445 0.823799C11.9445 2.95195 11.9445 5.08009 11.9445 7.20824C11.9445 7.75744 11.6667 8.03204 11.1806 8.03204C9.65279 8.03204 8.05557 8.03204 6.52779 8.03204C5.97224 8.03204 5.7639 7.75744 5.7639 7.20824C5.69446 6.10984 5.69446 5.08009 5.69446 3.98169Z" fill="black"/>
<path d="M17.2916 11.2586C17.2222 10.984 17.2916 10.7094 17.2222 10.4348C17.2222 10.2975 17.3611 10.2975 17.4305 10.2975C18.1249 10.2975 18.8888 10.2975 19.5833 10.2975C20.1388 10.2975 20.6944 10.2975 21.2499 10.2975C21.5277 10.2975 21.7361 10.1602 21.8055 9.88559C22.1527 9.88559 22.5694 9.88559 22.9166 9.88559C22.9166 10.0915 23.0555 10.2288 23.1944 10.2975C23.6805 10.3661 24.1666 10.2975 24.5833 10.2975C25.1388 10.2975 25.6944 10.2975 26.2499 10.2975C26.4583 10.2975 26.5277 10.3661 26.5277 10.5721V10.6407C26.5277 11.2586 26.5277 11.2586 25.9027 11.2586C23.0555 11.2586 20.2777 11.2586 17.4305 11.2586C17.4999 11.3272 17.4305 11.3272 17.2916 11.2586Z" fill="#8694DD"/>
<path d="M25.8333 26.9794C25.7638 26.9794 25.6249 26.9794 25.5555 26.9794C17.9166 26.9794 10.2083 26.9794 2.56939 26.9794C2.29161 26.9794 2.22217 26.9107 2.22217 26.6361C2.22217 24.7139 2.22217 22.7231 2.22217 20.8009C2.22217 20.595 2.29161 20.5263 2.49995 20.5263C10.2083 20.5263 17.9166 20.5263 25.6249 20.5263C25.6944 20.5263 25.7638 20.5263 25.8333 20.5263C25.9027 20.6636 25.9027 20.8009 25.9027 20.8696C25.9027 22.7918 25.9027 24.6453 25.9027 26.5675C25.9027 26.7048 25.9027 26.8421 25.8333 26.9794Z" fill="#8694DD"/>
<path d="M25.3473 17.849C23.0556 17.849 20.8334 17.849 18.5417 17.849C18.4028 17.849 18.3334 17.849 18.3334 17.643C18.3334 15.8581 18.3334 14.0732 18.3334 12.2883C18.3334 12.2197 18.3334 12.2197 18.4028 12.151C18.4723 12.0824 18.5417 12.151 18.6806 12.151C20.8334 12.151 22.9862 12.151 25.1389 12.151C25.4167 12.151 25.4862 12.151 25.4862 12.4943C25.4862 14.1419 25.4862 15.8581 25.4862 17.5057C25.4862 17.643 25.4862 17.7803 25.3473 17.849Z" fill="#685E68"/>
<path d="M11.7361 17.849C9.44439 17.849 7.22217 17.849 4.9305 17.849C4.79161 17.849 4.72217 17.849 4.72217 17.643C4.72217 15.8581 4.72217 14.0732 4.72217 12.2883C4.72217 12.2197 4.72217 12.2197 4.79161 12.151C4.86106 12.0824 4.99995 12.151 5.06939 12.151C7.22217 12.151 9.37495 12.151 11.4583 12.151C11.8055 12.151 11.8749 12.151 11.8749 12.5629C11.8749 14.2105 11.8749 15.8581 11.8749 17.5057C11.8749 17.643 11.8749 17.7117 11.7361 17.849Z" fill="#685E68"/>
<path d="M27.1528 19.6339C27.0139 19.6339 26.9445 19.6339 26.8056 19.6339C18.2639 19.6339 9.72226 19.6339 1.1806 19.6339C0.902818 19.6339 0.833374 19.5652 0.833374 19.2906C0.833374 18.6728 0.833374 18.6728 1.52782 18.6728C10 18.6728 18.4028 18.6728 26.875 18.6728C27.0139 18.6728 27.0834 18.6728 27.2223 18.6728C27.2917 18.9474 27.2917 19.4966 27.1528 19.6339Z" fill="#FDD302"/>
<path d="M3.6805 11.2586C3.61106 10.984 3.61106 10.6407 3.6805 10.3661C3.74995 10.2975 3.88883 10.3661 3.95828 10.3661C6.87495 10.3661 9.72217 10.3661 12.6388 10.3661C12.9861 10.3661 12.9861 10.3661 13.0555 10.778C13.0555 10.8467 13.0555 10.8467 13.0555 10.9153C13.0555 11.3959 13.0555 11.3959 12.5694 11.3959C9.72217 11.3959 6.87495 11.3959 4.02772 11.3959C3.88883 11.3272 3.74995 11.3272 3.6805 11.2586Z" fill="#8694DC"/>
<path d="M25.8334 26.9794C25.8334 24.8512 25.8334 22.6545 25.8334 20.5263C26.1112 20.5263 26.3889 20.5263 26.6667 20.5263C26.875 20.5263 26.875 20.595 26.875 20.8009C26.875 21.8993 26.875 22.9291 26.875 24.0275C26.875 24.9199 26.875 25.881 26.875 26.7734C26.875 26.9794 26.8056 27.048 26.6667 26.9794C26.3889 26.9794 26.1112 26.9794 25.8334 26.9794Z" fill="#6B7ED7"/>
<path d="M11.7361 17.849C11.7361 16.0641 11.7361 14.2792 11.7361 12.4943C11.7361 12.2883 11.6666 12.2197 11.4583 12.2197C9.23607 12.2197 7.01385 12.2197 4.79163 12.2197C4.86107 12.151 4.99996 12.151 5.0694 12.151C7.22218 12.151 9.37496 12.151 11.5277 12.151C11.875 12.151 12.2916 12.151 12.6388 12.151C12.8472 12.151 12.9166 12.2197 12.8472 12.4256C12.8472 13.2494 12.8472 14.0732 12.8472 14.897C12.8472 15.7895 12.8472 16.7506 12.8472 17.643C12.8472 17.849 12.7777 17.9176 12.5694 17.9176C12.3611 17.849 12.0138 17.849 11.7361 17.849Z" fill="#554E56"/>
<path d="M25.3473 17.849C25.3473 16.0641 25.3473 14.2792 25.3473 12.4943C25.3473 12.2883 25.2778 12.2197 25.0695 12.2197C22.8473 12.2197 20.6251 12.2197 18.4028 12.2197C18.4723 12.151 18.6112 12.151 18.6806 12.151C20.8334 12.151 22.9862 12.151 25.1389 12.151C25.4862 12.151 25.9028 12.151 26.2501 12.151C26.4584 12.151 26.5278 12.2197 26.4584 12.4256C26.4584 13.2494 26.4584 14.0732 26.4584 14.897C26.4584 15.7895 26.4584 16.6819 26.4584 17.5744C26.4584 17.7803 26.3889 17.849 26.1806 17.849C25.9723 17.849 25.6945 17.849 25.3473 17.849Z" fill="#554E56"/>
<path d="M3.68054 11.2586C4.2361 11.2586 4.79165 11.2586 5.34721 11.2586C7.77776 11.2586 10.2083 11.2586 12.6389 11.2586C12.8472 11.2586 12.9167 11.1899 12.9167 10.984C12.9167 10.3661 12.9167 10.3661 12.2917 10.3661C9.51388 10.3661 6.7361 10.3661 4.02776 10.3661C3.88888 10.3661 3.74999 10.3661 3.68054 10.3661C3.74999 10.2975 3.88888 10.3661 3.95832 10.3661C7.15276 10.3661 10.4167 10.3661 13.6111 10.3661C13.8889 10.3661 13.9583 10.4348 13.9583 10.7094C13.9583 11.3272 13.9583 11.3272 13.2639 11.3959C10.1389 11.3959 7.08332 11.3959 3.95832 11.3959C3.88888 11.3272 3.81943 11.3272 3.68054 11.2586Z" fill="#6A7DD4"/>
<path d="M17.2916 11.2586C18.8194 11.2586 20.3472 11.2586 21.9444 11.2586C23.4027 11.2586 24.8611 11.2586 26.25 11.2586C26.4583 11.2586 26.5277 11.1899 26.5277 10.984C26.5277 10.3661 26.5277 10.3661 25.9027 10.3661C25.1388 10.3661 24.3055 10.3661 23.5416 10.3661C23.4722 10.3661 23.3333 10.3661 23.2638 10.2975C24.5833 10.2975 25.9027 10.2975 27.2916 10.2975C27.5694 10.2975 27.6388 10.3661 27.6388 10.5721C27.6388 11.2586 27.6388 11.2586 26.9444 11.2586C23.8888 11.2586 20.7638 11.2586 17.7083 11.2586C17.5 11.3272 17.4305 11.3272 17.2916 11.2586Z" fill="#6A7DD4"/>
<path d="M27.1528 19.6339C27.2223 19.2906 27.1528 19.016 27.1528 18.6728C27.4306 18.6728 27.7084 18.6728 27.9862 18.6728C28.1251 18.6728 28.1945 18.7414 28.1945 18.8787C28.1945 19.1533 28.3334 19.4966 28.1251 19.6339C27.9862 19.7712 27.6389 19.7025 27.3612 19.7025C27.3612 19.7025 27.2223 19.6339 27.1528 19.6339Z" fill="#FCA85B"/>
<path d="M6.52783 3.9817C6.52783 3.0206 6.52783 2.0595 6.52783 1.09841C6.52783 0.892456 6.59728 0.892456 6.73617 0.892456C8.12505 0.892456 9.4445 0.892456 10.8334 0.892456C10.9723 0.892456 11.0417 0.892456 11.0417 1.09841C11.0417 3.0206 11.0417 5.01145 11.0417 6.93365C11.0417 7.1396 10.9723 7.1396 10.8334 7.1396C9.4445 7.1396 8.12505 7.1396 6.73617 7.1396C6.52783 7.1396 6.52783 7.07095 6.52783 6.865C6.52783 5.9039 6.52783 4.9428 6.52783 3.9817Z" fill="#E7ECF1"/>
<path d="M22.4306 16.4073C21.9445 16.4073 21.5278 16.4073 21.0417 16.4073C20.4862 16.4073 20.2084 15.9268 20.4862 15.4462C20.9028 14.6911 21.3889 13.8673 21.8751 13.1121C22.1528 12.6316 22.7084 12.6316 22.9862 13.1121C23.4723 13.8673 23.8889 14.6911 24.3751 15.4462C24.6528 15.9268 24.3751 16.4073 23.7501 16.476C23.3334 16.4073 22.8473 16.4073 22.4306 16.4073Z" fill="black"/>
<path d="M8.81944 16.3387C7.77778 16.3387 6.875 15.5149 6.875 14.4165C6.875 13.3867 7.77778 12.4943 8.81944 12.4943C9.86111 12.4943 10.7639 13.3867 10.7639 14.4165C10.6944 15.5149 9.86111 16.3387 8.81944 16.3387Z" fill="black"/>
<path d="M8.54166 3.91304C8.81944 3.50114 9.02777 3.15789 9.23611 2.81464C9.44444 2.54004 9.65277 2.47139 9.86111 2.60869C10.0694 2.74599 10.1389 3.02059 9.93055 3.29519C9.65277 3.70709 9.44444 4.11899 9.16666 4.53089C8.81944 5.01143 8.33333 5.08008 7.91666 4.59954C7.77777 4.46224 7.63888 4.25629 7.5 4.11899C7.36111 3.91304 7.36111 3.70709 7.56944 3.56979C7.77777 3.43249 7.98611 3.43249 8.125 3.63844C8.33333 3.63844 8.40277 3.77574 8.54166 3.91304Z" fill="black"/>
<path d="M23.4722 15.5149C22.7778 15.5149 22.1528 15.5149 21.3889 15.5149C21.7361 14.897 22.0834 14.3478 22.4306 13.73C22.7778 14.3478 23.125 14.9657 23.4722 15.5149Z" fill="#FC636E"/>
<path d="M8.75004 15.5149C8.12504 15.5149 7.70837 15.0343 7.70837 14.4165C7.70837 13.8673 8.19449 13.3867 8.75004 13.3867C9.3056 13.3867 9.86115 13.8673 9.86115 14.4851C9.86115 15.0343 9.37504 15.5149 8.75004 15.5149Z" fill="#2ABBC7"/>
<path d="M24.375 19.1533C20.2778 19.222 16.6667 21.3501 14.5139 24.4394C16.7361 27.5286 20.3472 29.5195 24.5139 29.4508C28.6111 29.3822 32.2222 27.3227 34.375 24.1648C32.1528 21.1442 28.5417 19.1533 24.375 19.1533Z" fill="#E7ECF1" stroke="black" stroke-width="1.5" stroke-miterlimit="10"/>
<path d="M24.4445 27.8032C26.4005 27.8032 27.9862 26.2357 27.9862 24.3021C27.9862 22.3684 26.4005 20.8009 24.4445 20.8009C22.4885 20.8009 20.9028 22.3684 20.9028 24.3021C20.9028 26.2357 22.4885 27.8032 24.4445 27.8032Z" fill="black"/>
</svg>
