<svg width="30" height="34" viewBox="0 0 30 34" fill="none" xmlns="http://www.w3.org/2000/svg">
<path d="M9.96323 33.7411C9.44853 33.5205 9.15441 33.1161 9.19118 32.5278C9.19118 32.3072 9.04412 32.344 8.93382 32.344C7.46323 32.344 6.02941 32.344 4.55882 32.344C3.38235 32.344 2.20588 32.344 1.02941 32.344C0.330882 32.344 0 32.0131 0 31.3513C0 29.9543 0 28.5572 0 27.1602C0 26.1675 0.477941 25.5058 1.39706 25.1381C2.05882 24.8808 2.72059 24.6234 3.34559 24.3661C3.63971 24.2558 3.78676 23.7411 3.52941 23.4837C2.83088 22.8219 2.57353 21.9763 2.64706 21.0205C2.68382 20.4322 2.57353 19.8072 2.72059 19.219C3.01471 18.0058 4.04412 17.2337 5.25735 17.1969C6.47059 17.1602 7.38971 17.6013 7.97794 18.7043C8.125 18.9616 8.19853 19.2558 8.23529 19.5866C8.27206 20.3219 8.27206 21.0205 8.23529 21.7558C8.19853 22.4175 7.90441 22.969 7.42647 23.4102C7.16912 23.6675 7.27941 23.9249 7.27941 24.219C7.27941 24.3293 7.42647 24.3293 7.5 24.3661C8.16176 24.6234 8.82353 24.8808 9.48529 25.1381C9.85294 25.2852 10.1838 25.469 10.4412 25.7999C10.5515 25.9469 10.6618 25.9469 10.8088 25.8734C11.5074 25.6161 12.1691 25.3587 12.8676 25.1013C12.9779 25.0646 13.125 25.0646 13.125 24.9175C13.0882 24.7337 12.9412 24.8072 12.8309 24.8072C12.1324 24.8072 11.3971 24.8072 10.6985 24.8072C10.0735 24.8072 9.77941 24.5131 9.77941 23.8881C9.77941 22.6749 9.77941 21.4616 9.81618 20.2484C9.85294 19.1087 10.2574 18.1161 10.9559 17.2705C11.1029 17.0866 11.1397 16.9396 11.1397 16.719C11.1397 15.9469 11.1397 15.2116 11.1397 14.4396C11.1397 14.1087 11.2868 13.8881 11.6176 13.8513C11.9485 13.7778 12.1691 13.9616 12.2059 14.3661C12.2426 14.7705 12.2059 15.1749 12.2059 15.5793C12.2059 15.9837 12.2059 15.9837 12.5368 15.7999C13.9338 15.0646 15.3676 14.9543 16.875 15.4322C17.0588 15.5058 17.2059 15.5793 17.3897 15.6528C17.5368 15.7263 17.6103 15.6528 17.6103 15.5058C17.6103 15.3955 17.6103 15.3219 17.6103 15.2116C17.6103 13.6308 17.6471 12.0499 17.6103 10.469C17.5735 9.58664 17.7941 8.81458 18.2721 8.11605C18.5662 7.67487 18.6765 7.2337 18.6397 6.71899C18.6397 6.4984 18.5662 6.35135 18.3088 6.42487C18.1618 6.46164 18.0147 6.42487 17.9044 6.38811C17.3897 6.09399 16.875 5.94693 16.25 6.16752C15.9559 6.27782 15.625 6.09399 15.3676 5.91017C15.1838 5.79987 15 5.76311 14.8162 5.83664C14.6324 5.91017 14.4118 5.94693 14.1912 5.94693C13.9706 5.94693 13.8971 6.05723 13.9338 6.24105C13.9706 6.53517 13.9706 6.86605 13.9338 7.16017C13.8971 7.49105 13.7132 7.71164 13.4191 7.7484C13.1618 7.78517 12.9044 7.60135 12.7941 7.30723C12.7941 7.08664 12.7941 6.86605 12.7941 6.64546C12.7941 6.31458 12.7206 6.05723 12.5368 5.79987C12.2426 5.3587 12.2794 5.13811 12.6838 4.80723C12.7206 4.77046 12.7941 4.77046 12.8676 4.77046C13.3088 4.77046 13.7132 4.77046 14.1544 4.77046C14.5956 4.77046 14.8897 4.51311 14.9632 4.1087C15 3.81458 14.9265 3.74105 14.6324 3.70429C14.3015 3.70429 14.0074 3.70429 13.6765 3.70429C12.9412 3.70429 12.2059 3.70429 11.4706 3.70429C11.3235 3.70429 11.2132 3.70429 11.0662 3.74105C10.5515 3.92487 10.4044 4.1087 10.4044 4.66017C10.4044 5.17487 10.4412 5.72635 10.4044 6.24105C10.3676 6.90282 10.5882 7.41752 11.0662 7.8587C11.2868 8.07929 11.4706 8.29988 11.6544 8.52046C12.0221 8.96164 12.2426 9.43958 12.2794 10.0278C12.3162 10.6896 12.3162 11.3513 12.2794 12.0499C12.2794 12.4543 12.0588 12.6381 11.6912 12.6013C11.3235 12.5278 11.2132 12.2705 11.2132 11.9396C11.2132 11.4249 11.2132 10.8734 11.2132 10.3587C11.2132 9.88076 11.0662 9.51311 10.7721 9.14546C10.5147 8.88811 10.2941 8.59399 10.0368 8.33664C9.59559 7.82193 9.375 7.2337 9.375 6.57193C9.375 5.91017 9.375 5.2484 9.375 4.54987C9.375 3.70429 9.77941 3.11605 10.5515 2.78517C10.625 2.63811 10.6985 2.56458 10.6618 2.41752C10.6618 2.08664 10.6618 1.79252 10.6618 1.46164C10.6985 0.836639 11.0662 0.321933 11.6176 0.101345C12.2426 -0.119243 12.7574 0.0278156 13.1985 0.468992C13.3456 0.616051 13.4191 0.652816 13.6397 0.579286C14.2279 0.358698 14.7426 0.505757 15.1838 0.910169C15.2941 1.02046 15.3676 1.05723 15.5147 0.983698C16.2132 0.652816 16.9118 0.836639 17.3897 1.46164C17.5 1.6087 17.5735 1.6087 17.7206 1.57193C18.75 1.27782 19.6691 1.93958 19.6691 3.00576C19.6691 4.36605 19.6691 5.72635 19.6691 7.08664C19.6691 7.60135 19.5588 8.04252 19.2647 8.44693C18.7868 9.14546 18.6397 9.91752 18.6397 10.7631C18.6765 12.6013 18.6397 14.4763 18.6397 16.3146C18.6397 16.4984 18.6765 16.6455 18.8235 16.7925C19.8162 17.8219 20.3309 19.0719 20.3676 20.5058C20.3676 21.6087 20.3676 22.7484 20.3676 23.8513C20.3676 24.4396 20.0735 24.7705 19.4485 24.7705C18.7132 24.7705 17.9779 24.7705 17.2426 24.7705C17.1691 24.7705 17.0221 24.6969 16.9853 24.844C16.9485 24.9911 17.0956 25.0278 17.1691 25.0646C17.8309 25.3219 18.4926 25.5793 19.1544 25.8366C19.3015 25.9102 19.375 25.8734 19.4853 25.7631C19.7426 25.469 20.0735 25.2484 20.4412 25.1381C21.0662 24.9175 21.6912 24.6602 22.3529 24.4028C22.6838 24.2925 22.8309 23.7778 22.5735 23.5205C21.9118 22.8587 21.6176 22.0499 21.6912 21.1308C21.7279 20.469 21.6176 19.844 21.8015 19.1822C22.0956 18.0425 23.0882 17.2705 24.2647 17.2337C25.7353 17.1969 26.7647 17.8219 27.1691 19.0352C27.2794 19.3661 27.3162 19.6969 27.3162 20.0278C27.3162 20.5058 27.3162 20.9469 27.3162 21.4249C27.3529 22.2337 27.0588 22.8955 26.5074 23.4469C26.25 23.7043 26.3603 23.9616 26.3603 24.2558C26.3603 24.3661 26.4706 24.3661 26.5809 24.4028C27.2426 24.6602 27.9412 24.9175 28.6029 25.1749C29.5221 25.5425 30 26.2411 30 27.2337C30 27.6381 30 28.0425 30 28.4102C30 28.7043 29.8897 28.8881 29.5956 28.9616C29.1912 29.0352 28.9338 28.8513 28.8971 28.4102C28.8603 28.0425 28.8603 27.6749 28.8971 27.3072C28.9338 26.7558 28.6765 26.3881 28.1618 26.1675C27.7941 26.0205 27.4632 25.8734 27.0956 25.7631C26.5441 25.5793 26.5809 25.5425 26.2132 25.9837C25.9926 26.2411 25.7353 26.4984 25.5147 26.7925C24.9265 27.4911 24.1176 27.4911 23.5294 26.7925C23.2353 26.4616 22.9779 26.1308 22.6838 25.7999C22.5368 25.6528 22.3897 25.5425 22.2059 25.6528C21.6912 25.8366 21.1765 26.0205 20.6985 26.2411C20.4412 26.3881 20.4044 26.4249 20.5882 26.6822C20.9191 27.1602 21.0662 27.6749 21.0294 28.2631C20.9926 29.1087 21.0294 29.9543 21.0294 30.7999C21.0294 31.2778 21.0294 31.2778 21.5074 31.2778C23.6397 31.2778 25.7721 31.2778 27.9412 31.2778C28.125 31.2778 28.3456 31.2778 28.5294 31.2778C28.7868 31.2778 28.9338 31.2043 28.8971 30.9102C28.8971 30.7263 28.9338 30.5058 29.0809 30.3587C29.1912 30.2484 29.3382 30.1749 29.5221 30.2484C29.8529 30.3219 29.9632 30.5058 29.9632 30.8366C29.9632 31.0572 29.9632 31.2411 29.9632 31.4616C29.9265 31.9763 29.5956 32.3072 29.0809 32.344C28.2721 32.344 27.4632 32.344 26.6544 32.344C24.8529 32.344 23.0882 32.344 21.2868 32.344C21.0294 32.344 20.9191 32.3808 20.9191 32.6749C20.9559 33.1896 20.625 33.4837 20.1838 33.7411C16.875 33.7411 13.4191 33.7411 9.96323 33.7411Z" fill="black"/>
<path d="M12.8676 7.23368C12.9779 7.5278 13.1618 7.67486 13.4559 7.60133C13.75 7.5278 13.8603 7.30721 13.8603 7.01309C13.8603 6.68221 13.897 6.31456 13.8235 5.98368C13.7868 5.76309 13.8603 5.72633 14.0441 5.76309C14.375 5.76309 14.7059 5.76309 15 5.61603C15.147 5.54251 15.1838 5.61603 15.2941 5.68956C15.8088 6.09398 16.3603 6.16751 16.9485 5.83662C17.0588 5.76309 17.1323 5.76309 17.2426 5.87339C17.4265 6.05721 17.6838 6.16751 17.9044 6.24103C18.0515 6.31456 18.0515 6.46162 18.0515 6.57192C18.0882 7.16015 17.9779 7.74839 17.647 8.26309C17.3529 8.74103 17.0956 9.21898 17.022 9.77045C17.022 9.95427 16.9853 10.1381 16.9853 10.3219C16.9853 11.866 16.9853 13.4102 16.9853 14.9543C16.9853 15.1381 17.022 15.3219 16.875 15.469C15.6618 15.1013 14.4485 15.0646 13.272 15.5057C12.9044 15.6528 12.5368 15.8366 12.1323 16.094C12.1323 15.5057 12.1323 14.9543 12.1323 14.4028C12.1323 13.9984 12.022 13.8513 11.6176 13.7778C11.6176 13.3366 11.6176 12.8954 11.6176 12.491C12.0588 12.3807 12.1323 12.2704 12.1323 11.8293C12.1323 11.2778 12.1323 10.7631 12.1323 10.2116C12.1323 9.51309 11.9118 8.92486 11.4338 8.37339C10.1838 6.97633 10.2941 7.27045 10.2941 5.35868C10.2941 5.0278 10.2941 4.69692 10.2941 4.36603C10.2941 3.92486 10.5515 3.63074 10.9926 3.55721C11.7279 3.48368 12.5 3.55721 13.2353 3.52045C13.6397 3.52045 14.0441 3.52045 14.4118 3.52045C14.6691 3.52045 14.7059 3.63074 14.7059 3.85133C14.7059 4.36603 14.3015 4.77045 13.8235 4.77045C13.4926 4.77045 13.1618 4.73368 12.7941 4.80721C12.7573 4.80721 12.7206 4.80721 12.6838 4.84398C12.1323 5.0278 12.1323 4.91751 12.3162 5.54251C12.3897 5.79986 12.4265 6.05721 12.4265 6.35133C12.4265 6.53515 12.4632 6.71898 12.647 6.82927C12.7941 6.93956 12.8309 7.08662 12.8676 7.23368Z" fill="#FEA68E"/>
<path d="M23.0147 13.2263C23.0147 12.4175 23.0147 11.6454 23.0147 10.8366C23.0147 10.616 22.9412 10.5425 22.7206 10.5425C22.4633 10.5793 22.2059 10.5425 21.9486 10.5425C21.6544 10.5425 21.3971 10.4322 21.25 10.1381C21.103 9.84398 21.2133 9.58663 21.3971 9.36604C22.2794 8.37339 23.1618 7.41751 24.0441 6.42486C24.4118 6.02045 24.7794 6.02045 25.1471 6.42486C26.0294 7.41751 26.9118 8.37339 27.7941 9.36604C28.0147 9.58663 28.0883 9.84398 27.9412 10.1381C27.7941 10.4322 27.5368 10.5425 27.2427 10.5425C26.9853 10.5425 26.728 10.5425 26.4706 10.5425C26.2133 10.5057 26.1397 10.5793 26.1397 10.8734C26.1397 12.3807 26.1397 13.8881 26.1397 15.4322C26.1397 16.1307 25.9191 16.3513 25.2574 16.3513C24.7427 16.3513 24.2647 16.3513 23.75 16.3513C23.2353 16.3513 22.978 16.094 22.978 15.5793C23.0147 14.8072 23.0147 14.0352 23.0147 13.2263Z" fill="black"/>
<path d="M7.0589 13.2631C7.0589 14.0352 7.0589 14.8072 7.0589 15.5793C7.0589 16.094 6.80155 16.3513 6.28684 16.3513C5.73537 16.3513 5.1839 16.3513 4.59567 16.3513C4.11773 16.3513 3.86037 16.094 3.86037 15.5793C3.86037 14.0352 3.86037 12.4543 3.86037 10.9102C3.86037 10.6528 3.82361 10.5425 3.52949 10.5793C3.27214 10.6161 2.97802 10.5793 2.72067 10.5793C2.42655 10.5793 2.20596 10.4322 2.0589 10.1381C1.94861 9.88076 2.02214 9.6234 2.20596 9.40282C3.08831 8.41017 4.00743 7.41752 4.88978 6.42487C5.22067 6.05723 5.62508 6.05723 5.95596 6.42487C6.83831 7.41752 7.72067 8.3734 8.60302 9.36605C8.82361 9.58664 8.89714 9.84399 8.78684 10.1381C8.63978 10.4322 8.4192 10.5425 8.08831 10.5425C7.7942 10.5425 7.50008 10.5425 7.24273 10.5425C7.0589 10.5425 7.02214 10.6161 7.02214 10.7999C7.0589 11.6455 7.0589 12.4543 7.0589 13.2631Z" fill="black"/>
<path d="M29.6324 30.2852C29.2279 30.3587 29.0809 30.5058 29.0809 30.9469C29.0809 31.3881 29.0809 31.3881 28.6397 31.3881C28.4191 31.3881 28.2353 31.3881 28.0147 31.3881C27.9044 31.2411 27.9412 31.0572 27.9412 30.9102C27.9412 29.9175 27.9412 28.9249 27.9412 27.9322C27.9412 26.9763 27.6471 26.5352 26.7647 26.1675C26.5809 26.094 26.3603 26.0572 26.25 25.8734C26.5809 25.3955 26.5809 25.3955 27.1324 25.6161C27.5368 25.7631 27.9779 25.9469 28.3824 26.094C28.8603 26.2778 29.1176 26.6455 29.1176 27.1602C29.1176 27.5646 29.1176 27.969 29.1176 28.3734C29.1176 28.7778 29.3015 28.9616 29.7059 28.9616C29.6691 28.9984 29.6691 28.9984 29.6324 29.0352C29.5588 29.4396 29.5588 29.844 29.6324 30.2484C29.6324 30.2484 29.6324 30.2484 29.6324 30.2852Z" fill="#FDA85C"/>
<path d="M29.5955 30.2484C29.4852 29.844 29.4852 29.4396 29.5955 29.0352C29.5955 29.4028 29.5955 29.844 29.5955 30.2484Z" fill="#FDB756"/>
<path d="M18.9338 32.7484C17.0221 32.7484 15.1103 32.7484 13.1985 32.7484C12.2794 32.7484 11.3603 32.7484 10.478 32.7484C10.2574 32.7484 10.1838 32.6749 10.1838 32.4543C10.1838 31.0205 10.1838 29.5866 10.1838 28.1896C10.1838 27.4911 10.4412 27.1234 11.103 26.8661C11.5441 26.6822 11.9485 26.5352 12.3897 26.3513C12.5 26.3146 12.6103 26.2778 12.6838 26.4249C13.6397 27.8219 15.625 28.2999 17.2059 26.8661C18.1985 26.8293 19.0074 27.5646 19.0074 28.5572C19.0074 29.8072 19.0074 31.094 19.0074 32.344C19.0074 32.4911 19.0441 32.6381 18.9338 32.7484Z" fill="#685E68"/>
<path d="M8.89711 31.3514C8.41917 31.3514 7.97799 31.3514 7.50005 31.3514C5.44123 31.3514 3.34564 31.3514 1.28681 31.3514C1.06623 31.3514 0.955933 31.3146 0.955933 31.0572C0.955933 29.7705 0.955933 28.4837 0.955933 27.1602C0.955933 26.5719 1.17652 26.2411 1.72799 26.0205C2.2427 25.8366 2.72064 25.6528 3.23534 25.4322C3.3824 25.3587 3.45593 25.3955 3.56623 25.5058C3.89711 25.9102 4.22799 26.2778 4.55887 26.6822C5.07358 27.3072 5.77211 27.2705 6.32358 26.6822C6.58093 26.3881 6.83828 26.094 7.09564 25.8366C7.83093 25.7999 8.75005 26.4249 8.89711 27.1602C8.93387 27.4175 8.97064 27.6749 8.97064 27.9322C8.97064 28.8881 8.97064 29.844 8.97064 30.8366C9.0074 31.0572 9.04417 31.2411 8.89711 31.3514Z" fill="#8694DD"/>
<path d="M26.25 25.8734C26.5073 25.9837 26.8015 26.094 27.0588 26.2043C27.7206 26.4984 28.0147 27.0131 28.0147 27.7116C28.0147 28.9249 28.0147 30.1381 28.0147 31.3514C27.1323 31.3514 26.25 31.3514 25.3309 31.3514C24.0073 31.3514 22.6471 31.3514 21.3235 31.3514C21.1029 31.3514 21.0294 31.2778 21.0294 31.0572C21.0294 30.1014 21.0294 29.1455 21.0294 28.1896C21.0294 27.5646 20.8823 27.0131 20.4412 26.5352C20.3309 26.4249 20.3309 26.3514 20.4779 26.2411C20.5882 26.1675 20.7353 26.094 20.8456 26.0572C21.3235 25.8734 21.8382 25.6896 22.3162 25.469C22.5 25.3955 22.6103 25.4322 22.7573 25.5793C23.0147 25.9102 23.3088 26.2411 23.6029 26.5719C24.2647 27.344 24.8897 27.344 25.5515 26.5719C25.8088 26.3881 26.0294 26.1308 26.25 25.8734Z" fill="#FDD302"/>
<path d="M17.5368 19.844C16.8383 19.8072 16.2868 19.4763 15.8824 18.9616C15.3677 18.3366 14.9265 18.3366 14.4118 18.9249C13.9706 19.4396 13.4559 19.7337 12.7942 19.844C12.353 19.9175 12.1692 20.1381 12.1324 20.5793C12.1324 20.8366 12.1324 21.094 12.1324 21.3513C12.0956 22.2337 12.1692 23.0793 12.8677 23.8146C12.1692 23.8146 11.5809 23.8146 10.9559 23.8146C10.8456 23.8146 10.8089 23.7778 10.8089 23.6675C10.8456 22.344 10.6618 20.9837 10.9192 19.6602C11.2133 17.8955 12.9045 16.3881 14.5956 16.2778C14.7427 16.2043 14.853 16.2778 14.9633 16.3146C16.3236 16.9396 17.2795 17.9322 17.6104 19.4763C17.6104 19.5866 17.6471 19.7337 17.5368 19.844Z" fill="#D78955"/>
<path d="M13.125 21.5352C13.125 21.3146 13.0515 21.0572 13.1617 20.8366C13.272 20.6528 13.5662 20.6896 13.75 20.5793C14.1912 20.3955 14.6323 20.1381 14.9632 19.7705C15.0735 19.6234 15.147 19.6234 15.2941 19.7705C15.7353 20.2484 16.2867 20.5793 16.9485 20.7263C17.1323 20.7631 17.1691 20.8366 17.1691 21.0205C17.1691 21.2778 17.1691 21.5719 17.1691 21.8293C17.1691 23.2263 15.8456 24.1822 14.522 23.7778C13.7868 23.5572 13.1618 22.7116 13.125 21.9028C13.0882 21.7925 13.0882 21.6822 13.125 21.5352Z" fill="#FEA68E"/>
<path d="M17.5368 19.844C17.4633 18.7043 16.9118 17.8219 16.0294 17.0866C15.5882 16.719 15.1103 16.3881 14.5588 16.2778C15.7353 16.094 16.7647 16.3881 17.7206 17.0866C18.8603 17.9322 19.4485 19.1087 19.4485 20.5425C19.4485 21.5352 19.4485 22.5278 19.4485 23.5572C19.4485 23.7778 19.375 23.8514 19.1544 23.8146C18.603 23.8146 18.0147 23.8146 17.4633 23.8146C17.4633 23.6675 17.5368 23.6308 17.6103 23.5572C17.9412 23.0793 18.1618 22.5278 18.125 21.9396C18.125 21.5352 18.125 21.1308 18.125 20.7263C18.125 20.1749 18.0147 20.0278 17.5368 19.844Z" fill="#C47A44"/>
<path d="M3.63968 21.3514C3.63968 21.2778 3.63968 21.1675 3.63968 21.094C3.60292 20.9102 3.67645 20.8734 3.86027 20.8734C4.41174 20.8734 4.92645 20.7264 5.33086 20.3587C5.44116 20.2852 5.47792 20.2852 5.58821 20.3587C5.99263 20.7264 6.50733 20.8734 7.0588 20.8734C7.1691 20.8734 7.27939 20.8366 7.27939 21.0205C7.31615 21.719 7.20586 22.344 6.65439 22.8587C6.06615 23.3734 5.40439 23.4837 4.74263 23.1896C4.08086 22.8955 3.63968 22.344 3.63968 21.5719C3.63968 21.4984 3.63968 21.4249 3.63968 21.3514Z" fill="#FEA68E"/>
<path d="M16.875 15.5057C16.875 13.8513 16.9118 12.1969 16.875 10.5793C16.875 9.73368 17.0956 8.96162 17.5368 8.26309C17.9412 7.63809 18.0147 6.97633 17.8676 6.2778C18.0882 6.31456 18.3088 6.35133 18.5294 6.2778C18.7132 6.20427 18.75 6.31456 18.75 6.46162C18.7868 7.08662 18.6765 7.71162 18.3088 8.22633C17.8676 8.88809 17.7206 9.62339 17.7206 10.3954C17.7574 12.0866 17.7206 13.8146 17.7206 15.5057C17.7206 15.616 17.7206 15.7263 17.7206 15.8734C17.4265 15.7631 17.1691 15.616 16.875 15.5057Z" fill="#F68C7C"/>
<path d="M18.9339 32.7484C18.9339 31.3514 18.9339 29.9543 18.9339 28.594C18.9339 27.8587 18.6398 27.4175 17.9412 27.1969C17.6839 27.1234 17.4633 27.0131 17.2059 26.9028C17.6839 26.3146 17.6839 26.3146 18.3824 26.6087C18.7133 26.719 19.0074 26.8293 19.3383 26.9764C19.7795 27.1602 20.0368 27.5278 20.0368 28.0058C20.0368 29.5131 20.0368 31.0205 20.0368 32.5278C20.0368 32.7116 19.9633 32.7852 19.7795 32.7852C19.5221 32.7484 19.228 32.7484 18.9339 32.7484Z" fill="#554E56"/>
<path d="M26.4339 21.1308C26.5441 21.9028 26.25 22.5278 25.6618 22.969C24.6324 23.741 23.2353 23.1896 22.8309 21.9028C22.7574 21.6822 22.8677 21.6087 23.0883 21.6087C23.3824 21.6087 23.6765 21.6087 23.9706 21.6087C24.6324 21.5719 25.0368 21.241 25.3309 20.6896C25.5515 20.2852 25.7721 20.1749 26.25 20.3219C26.3971 20.3587 26.4339 20.4322 26.4339 20.5793C26.4339 20.7631 26.4339 20.9469 26.4339 21.1308Z" fill="#D78955"/>
<path d="M26.25 19.3293C26.1029 19.3293 25.9558 19.3293 25.8455 19.3293C25.2205 19.2925 24.7426 19.5866 24.4853 20.1749C24.3382 20.5425 24.0808 20.6896 23.6764 20.6896C23.6029 20.6896 23.4926 20.6896 23.4191 20.6896C22.7205 20.6896 22.7205 20.6896 22.7573 19.9543C22.8308 19.1087 23.272 18.4469 24.0073 18.2999C24.9264 18.1161 25.5514 18.2263 26.1029 18.9249C26.1764 19.0352 26.2867 19.1455 26.25 19.3293Z" fill="#675E67"/>
<path d="M5.47796 18.2631C6.4706 18.1896 7.0956 18.8881 7.24266 19.5131C7.35296 19.8808 7.27943 19.9911 6.87502 19.9175C6.54413 19.8808 6.28678 19.7337 6.06619 19.4763C5.69854 18.9984 5.25737 18.9984 4.88972 19.4763C4.63237 19.8072 4.30149 19.9543 3.89707 19.9543C3.71325 19.9543 3.67649 19.8808 3.71325 19.6969C3.78678 18.8146 4.48531 18.2631 5.47796 18.2631Z" fill="#675E67"/>
<path d="M8.89705 31.3513C8.89705 30.1749 8.89705 29.0352 8.89705 27.8587C8.89705 27.4543 8.82352 27.0499 8.60293 26.719C8.30882 26.2778 7.83088 26.1675 7.3897 25.9837C7.31617 25.9469 7.20588 25.9102 7.09558 25.9102C7.42646 25.4322 7.42646 25.4322 7.97793 25.6161C8.38235 25.7631 8.74999 25.9102 9.1544 26.0572C9.30146 26.1308 9.44852 26.1675 9.55882 26.2778C9.74264 26.3881 9.81617 26.5352 9.63235 26.7558C9.30146 27.1602 9.19117 27.6381 9.19117 28.1528C9.19117 29.1455 9.19117 30.1381 9.19117 31.1308C9.19117 31.3513 9.11764 31.4249 8.89705 31.3513Z" fill="#6C7ED7"/>
<path d="M14.1911 25.0278C14.1544 24.8072 14.1544 24.6969 14.4485 24.7705C14.9264 24.9175 15.4044 24.8808 15.8823 24.7705C16.0294 24.7337 16.1397 24.6969 16.1029 24.9175C16.0661 25.3955 16.25 25.7263 16.6911 25.9102C16.5073 26.1675 16.3235 26.3513 16.0294 26.4616C15.772 26.4249 15.5882 26.3146 15.3308 26.2411C15.0367 26.1308 14.8161 25.9469 14.8161 25.6161C14.8161 25.4322 14.7058 25.2852 14.4853 25.2484C14.375 25.2116 14.2647 25.1749 14.1911 25.0278Z" fill="#F68C7B"/>
<path d="M17.7574 4.73369C17.7574 4.14545 17.7207 3.52045 17.7574 2.93222C17.7574 2.6381 17.978 2.41751 18.2721 2.41751C18.5295 2.41751 18.7868 2.6381 18.7868 2.93222C18.7868 3.52045 18.7868 4.14545 18.7868 4.73369C18.4192 4.95428 18.0883 4.95428 17.7574 4.73369Z" fill="#FEA68E"/>
<path d="M15.9558 4.54989C15.9926 4.07195 16.1397 3.59401 15.8823 3.1896C15.6985 2.89548 15.6985 2.63813 15.6985 2.34401C15.6985 2.04989 15.8455 1.86607 16.1397 1.8293C16.4338 1.79254 16.6176 1.90283 16.6911 2.19695C16.7647 2.93224 16.6911 3.66754 16.7279 4.36607C16.7279 4.58666 16.5441 4.62342 16.3603 4.66018C16.2132 4.66018 16.0661 4.66018 15.9558 4.54989Z" fill="#FDA58E"/>
<path d="M14.1912 25.0278C14.3383 25.0646 14.4486 25.1381 14.5956 25.1749C14.7794 25.2484 14.9265 25.3587 14.9265 25.5793C14.9265 25.9102 15.0736 26.094 15.4044 26.2043C15.625 26.2778 15.8824 26.3146 16.0662 26.4984C15.2942 26.9396 14.2647 26.7558 13.7133 26.094C13.6397 26.0205 13.5294 25.9469 13.7133 25.8734C14.0074 25.6896 14.1544 25.3955 14.1912 25.0278Z" fill="#FDA68E"/>
<path d="M4.63232 24.6602C4.63232 24.5131 4.63232 24.3661 4.66909 24.219C5.18379 24.3661 5.6985 24.3661 6.17644 24.2558C6.24997 24.2558 6.3235 24.1822 6.3235 24.2925C6.3235 24.5499 6.47056 24.7705 6.50732 25.0278C6.54409 25.1381 6.3235 25.2852 6.21321 25.4322C6.17644 25.469 6.13968 25.5058 6.10291 25.5425C5.73527 25.469 5.36762 25.3955 5.14703 24.9911C5.11027 24.8808 4.99997 24.8808 4.92644 24.844C4.77938 24.8072 4.66909 24.7705 4.63232 24.6602Z" fill="#F58C7B"/>
<path d="M23.75 24.6602C23.75 24.5866 23.75 24.5131 23.75 24.4763C23.75 24.2925 23.7868 24.219 23.9706 24.2925C24.1912 24.366 24.4485 24.3661 24.7059 24.3661C24.9632 24.3293 25.1838 24.2925 25.4412 24.2925C25.4779 24.5131 25.4779 24.7705 25.625 24.9543C25.6985 25.0278 25.625 25.1013 25.5882 25.1381C25.4779 25.2852 25.3309 25.4322 25.2206 25.5425C24.8529 25.5058 24.5221 25.3955 24.3015 25.0278C24.2279 24.9175 24.1544 24.8808 24.0441 24.844C23.8971 24.8072 23.7868 24.7705 23.75 24.6602Z" fill="#C47944"/>
<path d="M12.6839 1.93959C12.6839 2.60135 12.6839 2.56459 12.0589 2.60135C11.728 2.60135 11.6545 2.49106 11.6912 2.19694C11.728 1.97635 11.6912 1.719 11.6912 1.46164C11.6912 1.16753 11.9118 0.983704 12.2059 0.983704C12.4633 0.983704 12.6839 1.20429 12.7206 1.49841C12.6839 1.64547 12.6839 1.79253 12.6839 1.93959Z" fill="#FEA68E"/>
<path d="M23.75 24.6602C23.897 24.6969 24.0073 24.7337 24.1544 24.8072C24.2279 24.8072 24.3015 24.8072 24.3382 24.8808C24.4485 25.3219 24.8162 25.3587 25.147 25.5058C25.1838 25.5058 25.1838 25.5425 25.2206 25.5793C24.6691 26.3881 24.6691 26.3881 24.0441 25.6528C23.9706 25.5793 23.897 25.469 23.8235 25.3955C23.5294 25.1013 23.4926 24.8808 23.75 24.6602Z" fill="#D68954"/>
<path d="M4.63231 24.6602C4.7426 24.6969 4.88966 24.7705 4.99995 24.7705C5.14701 24.7705 5.22054 24.844 5.25731 24.9911C5.29407 25.1749 5.47789 25.2116 5.62495 25.2852C5.77201 25.3955 5.9926 25.3587 6.10289 25.5058C5.55142 26.3146 5.55142 26.3146 4.92642 25.5793C4.85289 25.469 4.77936 25.3955 4.70583 25.3219C4.41172 25.1013 4.37495 24.8808 4.63231 24.6602Z" fill="#FDA68E"/>
<path d="M14.1912 2.60135C13.603 2.60135 13.6765 2.67487 13.6765 2.2337C13.6765 1.71899 13.8603 1.46164 14.1912 1.46164C14.5589 1.46164 14.6692 1.71899 14.7059 2.2337C14.7427 2.7484 14.4118 2.56458 14.1912 2.60135Z" fill="#FCA58D"/>
<path d="M12.8676 7.23369C12.7941 7.1234 12.7941 6.97634 12.6102 6.93957C12.4264 6.86604 12.3161 6.64546 12.3529 6.42487C12.3897 6.02046 12.2794 5.65281 12.1691 5.28516C12.0588 4.88075 12.0955 4.80722 12.5367 4.80722C12.5735 4.80722 12.647 4.80722 12.6838 4.80722C12.3161 5.1381 12.3161 5.28516 12.6102 5.68957C12.8308 5.98369 12.8676 6.27781 12.8676 6.60869C12.8308 6.82928 12.8676 7.04987 12.8676 7.23369Z" fill="#F58C7B"/>
<path d="M12.7942 4.80723C13.1251 4.69694 13.4559 4.77046 13.7501 4.77046C14.1912 4.7337 14.6324 4.29252 14.6324 3.85135C14.6324 3.63076 14.4853 3.63076 14.3383 3.63076C13.3456 3.63076 12.353 3.63076 11.3236 3.63076C11.2133 3.63076 11.0662 3.63076 10.9559 3.63076C11.0295 3.63076 11.1398 3.59399 11.2133 3.59399C12.353 3.59399 13.5295 3.59399 14.6692 3.59399C14.9265 3.59399 15.0001 3.66752 15.0001 3.92488C14.9633 4.54988 14.7059 4.84399 14.0809 4.84399C13.6765 4.80723 13.2353 4.80723 12.7942 4.80723Z" fill="#F08979"/>
<path d="M15.9559 4.54987C16.6912 4.54987 16.6912 4.54987 16.6912 3.85134C16.6912 3.29987 16.6912 2.7484 16.6912 2.19693C16.8015 2.52781 16.728 2.85869 16.728 3.18958C16.728 3.63075 16.728 4.03517 16.728 4.47634C16.728 4.69693 16.6544 4.91752 16.4339 5.02781C16.25 5.10134 16.0662 5.10134 15.9191 4.95428C15.7353 4.80722 15.9191 4.66017 15.9559 4.54987Z" fill="#F08978"/>
<path d="M17.7573 4.7337C18.0882 4.80723 18.4191 4.80723 18.75 4.7337C18.75 5.10135 18.5661 5.32194 18.2353 5.32194C17.9044 5.32194 17.7573 5.10135 17.7573 4.7337Z" fill="#F28A7A"/>
<path d="M26.6544 9.58662C26.4706 9.58662 26.3603 9.58662 26.25 9.58662C25.4412 9.58662 25.1838 9.84398 25.1838 10.6528C25.1838 12.0131 25.1838 13.4102 25.1838 14.7704C25.1838 15.3587 25.1838 15.3587 24.5956 15.3587C23.9706 15.3587 23.9706 15.3587 23.9706 14.7337C23.9706 13.3734 23.9706 12.0131 23.9706 10.6528C23.9706 9.84398 23.7133 9.58662 22.9044 9.58662C22.7941 9.58662 22.7206 9.58662 22.6471 9.58662C22.6103 9.5131 22.6103 9.47633 22.6471 9.43957C23.2353 8.7778 23.8236 8.11604 24.4118 7.49104C24.4853 7.41751 24.5221 7.27045 24.6691 7.41751C25.3309 8.1528 25.9559 8.85133 26.6544 9.58662Z" fill="#2ABBC7"/>
<path d="M7.53674 9.58664C7.27939 9.58664 7.13233 9.58664 6.98527 9.58664C6.39703 9.58664 6.10292 9.91753 6.10292 10.5058C6.10292 11.9396 6.10292 13.3366 6.10292 14.7705C6.10292 15.3955 6.10292 15.3955 5.47792 15.3955C4.88968 15.3955 4.88968 15.3955 4.88968 14.8072C4.88968 13.4469 4.88968 12.0499 4.88968 10.6896C4.88968 9.88076 4.63233 9.62341 3.8235 9.62341C3.71321 9.62341 3.63968 9.62341 3.52939 9.62341C3.45586 9.51312 3.52939 9.47635 3.56615 9.43959C4.11762 8.81459 4.70586 8.18959 5.25733 7.56459C5.40439 7.41753 5.47792 7.38076 5.62497 7.56459C6.24997 8.18959 6.87497 8.85135 7.53674 9.58664Z" fill="#2ABBC7"/>
</svg>
