<svg width="28" height="34" viewBox="0 0 28 34" fill="none" xmlns="http://www.w3.org/2000/svg">
<path d="M4.38188 33C4.12733 32.8138 4.09097 32.5903 4.09097 32.2923C4.09097 31.9571 4.09097 31.6219 4.09097 31.2494C4.09097 31.1004 4.0546 31.0632 3.90915 30.9887C3.03642 30.6907 2.60006 30.0948 2.60006 29.1637C2.60006 28.7912 2.60006 28.4187 2.60006 28.0463C2.60006 27.86 2.52733 27.7855 2.38188 27.8228C2.27278 27.8228 2.20006 27.8228 2.09097 27.8228C1.58188 27.8228 1.2546 27.5248 1.18188 27.0406C0.92733 25.8488 0.92733 24.6196 1.18188 23.4278C1.29097 22.8691 1.61824 22.6083 2.23642 22.6456C2.52733 22.6456 2.67278 22.6083 2.63642 22.2359C2.60006 21.9007 2.63642 21.5282 2.63642 21.1558C2.63642 20.2991 3.18188 19.6287 3.98188 19.4052C4.09097 19.3679 4.20006 19.4052 4.27278 19.219C4.78188 17.6919 5.83642 16.8352 7.40006 16.5745C7.69097 16.5372 7.94551 16.4627 8.27278 16.3883C7.61824 15.7551 7.47278 14.9729 7.47278 14.1535C7.50915 11.7325 7.47278 9.27426 7.47278 6.85327C7.47278 5.06546 8.01824 3.50112 9.18188 2.19751C9.43642 1.89954 9.61824 1.8623 9.94551 2.04853C10.2001 2.272 10.2364 2.53273 9.94551 2.86794C9.6546 3.20316 9.43642 3.53837 9.21824 3.91083C8.74551 4.73024 8.49097 5.66139 8.52733 6.62979C8.52733 6.96501 8.52733 6.96501 8.8546 6.92776C9.36369 6.85327 9.87278 6.89051 10.3819 6.89051C11.4364 6.89051 12.3091 6.48081 13.0728 5.73589C13.1819 5.62415 13.291 5.51241 13.4001 5.40067C13.8001 4.99097 14.2001 4.99097 14.6364 5.32618C14.8182 5.47516 15.0001 5.62415 15.2182 5.77313C16.091 6.40632 17.0728 6.74153 18.1273 6.85327C18.5637 6.96501 19.0001 6.85327 19.4001 6.96501C19.5819 7.00225 19.5455 6.81602 19.5455 6.70428C19.5819 5.81038 19.3637 4.91647 18.9637 4.13431C18.091 2.53273 16.8182 1.52708 15.0728 1.15462C14.9637 1.11738 14.8182 1.11738 14.7091 1.11738C13.7273 0.968393 12.8182 1.15462 11.9091 1.52708C11.7273 1.60158 11.5819 1.67607 11.4001 1.63882C11.1819 1.63882 11.0001 1.56433 11.0001 1.30361C10.9273 0.968393 11.0728 0.744916 11.3637 0.633178C15.291 -1.22912 19.9455 1.3781 20.5637 5.77313C20.6364 6.18284 20.6364 6.5553 20.6364 6.96501C20.6364 9.42325 20.6364 11.9187 20.6364 14.377C20.6364 15.1591 20.4546 15.8668 19.8364 16.4627C20.2364 16.5745 20.6001 16.649 20.9637 16.7235C22.3455 17.0214 23.291 17.8781 23.7637 19.219C23.8001 19.3679 23.8728 19.4424 24.0182 19.4797C24.9273 19.7032 25.4001 20.3736 25.4364 21.3047C25.4364 21.6399 25.4364 21.9752 25.4364 22.3476C25.4364 22.6083 25.4728 22.7201 25.7637 22.6828C25.8364 22.6828 25.9091 22.6828 25.9819 22.6828C26.4546 22.7201 26.7819 22.9808 26.891 23.4278C27.1455 24.6569 27.1455 25.886 26.891 27.1151C26.7819 27.6366 26.4546 27.86 25.9091 27.8973C25.4728 27.8973 25.4728 27.8973 25.4728 28.3815C25.4728 28.7167 25.4728 29.0519 25.4728 29.3871C25.4728 30.1693 24.9637 30.8397 24.2364 31.0632C24.0546 31.1377 23.9819 31.2122 23.9819 31.3984C23.9819 31.7336 23.9819 32.0316 23.9819 32.3668C23.9819 32.6648 23.9455 32.9255 23.691 33.0745C23.5819 33.0745 23.4728 33.0745 23.3637 33.0745C23.291 33.0372 23.2182 33.0372 23.1455 33C22.9637 32.8883 22.9637 32.702 22.9273 32.5158C22.9273 32.1806 22.9273 31.8454 22.9273 31.5102C22.9273 31.3239 22.8546 31.2122 22.6364 31.2122C22.2728 31.2122 21.9091 31.2122 21.5455 31.2122C21.4364 31.2122 21.291 31.2122 21.1819 31.2122C16.0546 31.2122 10.891 31.2122 5.76369 31.2122C5.14551 31.2122 5.14551 31.2122 5.14551 31.8454C5.14551 32.0688 5.14551 32.2923 5.14551 32.5158C5.14551 32.702 5.10915 32.851 4.96369 32.9627C4.89097 33 4.81824 33 4.74551 33.0372C4.60006 33 4.49097 33 4.38188 33Z" fill="black"/>
<path d="M4.81824 32.9255C4.96369 32.7765 5.03642 32.6275 5.03642 32.4041C5.03642 32.0316 5.03642 31.6591 5.03642 31.2867C5.03642 31.1004 5.07278 31.0632 5.2546 31.0632C5.50915 31.0632 5.76369 31.0632 6.01824 31.0632C11.0728 31.0632 16.1273 31.0632 21.2182 31.0632C21.3273 31.0632 21.4728 31.0632 21.5819 31.0632C21.6182 31.1004 21.6546 31.1749 21.6546 31.2122C21.691 31.7336 21.691 32.2551 21.6546 32.8138C21.6546 32.8883 21.6182 32.9255 21.5819 33C16.0546 33 10.5637 33 5.03642 33C4.96369 32.9627 4.8546 33.0372 4.81824 32.9255Z" fill="#F5DE7F"/>
<path d="M21.5455 33C21.5455 32.3668 21.5455 31.7336 21.5455 31.0632C21.9455 31.0632 22.3455 31.0632 22.7819 31.0632C22.9637 31.0632 23.0001 31.1377 23.0001 31.2867C23.0001 31.6591 23.0001 32.0316 23.0001 32.4041C23.0001 32.5903 23.0364 32.7765 23.2183 32.9255C23.1819 33 23.0728 32.9255 23.0364 33C22.5273 33 22.0546 33 21.5455 33Z" fill="#EECF6E"/>
<path d="M4.81818 32.9255C4.89091 32.9255 4.96364 32.9255 5 33C4.89091 33 4.78182 33 4.67273 33C4.74546 33 4.78182 32.9628 4.81818 32.9255Z" fill="#DFDDD6"/>
<path d="M23 33C23.0364 32.9255 23.1091 32.9255 23.1818 32.9255C23.2182 32.9628 23.2909 32.9628 23.3273 33C23.2182 33 23.1091 33 23 33Z" fill="#DDDACE"/>
<path d="M10.9273 1.30361C11.1455 1.60158 11.3273 1.67607 11.6909 1.48984C12.5273 1.11738 13.3637 0.931146 14.2727 0.968392C14.4182 0.968392 14.5637 1.00564 14.7091 1.04288C15.6182 1.3781 16.3091 2.01128 16.9273 2.7562C17.7637 3.79909 18.2 5.02821 18.3091 6.36907C18.3091 6.51805 18.3091 6.66704 18.3091 6.77878C18.2727 6.89051 18.2364 7.00225 18.0909 6.92776C16.8909 6.85327 15.8364 6.36907 14.8546 5.62415C14.7818 5.54966 14.7091 5.51241 14.6364 5.43792C14.1273 5.02821 13.8 5.02821 13.3637 5.54966C12.7091 6.29458 11.8727 6.77878 10.9273 6.92776C10.6 7.00225 10.2727 6.96501 9.90911 6.96501C9.47275 6.96501 9.03638 6.92776 8.63638 7.0395C8.4182 7.11399 8.4182 7.00225 8.4182 6.81602C8.38184 5.32618 8.89093 3.98532 9.87275 2.86794C10.1637 2.53273 10.1637 2.38374 9.98184 2.04853C10.2727 1.82505 10.6 1.56433 10.9273 1.30361Z" fill="#7A6D79"/>
<path d="M17.6546 19.8521C17.7274 20.2246 17.8728 20.3736 18.2364 20.3736C19.7274 20.3736 21.2546 20.3736 22.7455 20.3736C23.0364 20.5226 23.0728 20.7833 23.1092 21.0813C23.1092 21.7144 23.1092 22.3104 23.1092 22.9436C23.1092 25.0666 23.1092 27.1524 23.1092 29.2754C23.1092 29.6106 23.1092 29.9458 22.7455 30.0948C22.6364 30.0948 22.5274 30.0948 22.4183 30.0948C16.491 30.0948 10.5637 30.0948 4.60008 30.0948C3.80008 30.0948 3.54553 29.8341 3.54553 29.0147C3.54553 28.6795 3.54553 28.3442 3.54553 28.009C3.54553 27.86 3.5819 27.7855 3.72735 27.7483C4.41826 27.5248 4.7819 26.9661 4.7819 26.2212C4.7819 25.5508 4.7819 24.8804 4.7819 24.2099C4.7819 23.465 4.41826 22.9436 3.72735 22.7201C3.5819 22.6828 3.54553 22.6083 3.54553 22.4594C3.54553 22.0869 3.54553 21.7144 3.54553 21.342C3.54553 20.7088 3.83644 20.4108 4.45462 20.4108C8.20008 20.4108 11.9455 20.4108 15.7274 20.4108C16.0546 20.4108 16.3092 20.2991 16.3819 19.9639C16.8183 19.7404 17.2183 19.8149 17.6546 19.8521Z" fill="#E09874"/>
<path d="M13.291 14.526C11.7638 14.228 10.7819 13.2968 10.2365 11.8815C10.0547 11.4345 9.98193 10.9876 9.98193 10.5034C9.98193 9.75846 9.98193 9.01354 9.98193 8.26862C9.98193 8.08239 10.0183 8.0079 10.2001 8.0079C11.5092 8.0079 12.6365 7.56094 13.6183 6.70428C13.6547 6.70428 13.6183 6.70428 13.6547 6.70428C14.3819 6.96501 15.1456 7.11399 15.8001 7.56094C16.3456 7.9334 16.6365 8.52934 16.6365 9.23702C16.6365 9.83295 16.6365 10.4289 16.6365 11.0248C16.6365 12.5892 15.4728 14.1162 14.0183 14.526C13.8001 14.526 13.5456 14.6004 13.291 14.526Z" fill="#DFADA1"/>
<path d="M17.6546 19.8521C17.2546 19.9639 16.8182 19.8894 16.4182 19.9266C16.3091 19.4797 16.2 19.4052 15.7637 19.4052C12.3818 19.4052 9.00003 19.4052 5.61821 19.4052C5.50912 19.4052 5.40003 19.4052 5.29094 19.4052C5.25458 19.2935 5.29094 19.219 5.3273 19.1445C5.69094 18.3623 6.30912 17.8781 7.10912 17.6546C8.20003 17.3939 9.29094 17.1704 10.3455 16.9097C10.4546 16.8725 10.5637 16.8725 10.6728 16.9469C12.4546 18.2506 14.3455 18.474 16.3819 17.5429C16.4182 17.5429 16.4182 17.5429 16.4546 17.5429C16.6364 17.4684 16.8182 17.5056 16.9637 17.5429C17.6546 17.6919 18.3455 17.8409 19.0364 18.0271C19.7273 18.1761 20.3091 18.5485 20.7819 19.07C20.8546 19.1445 20.9273 19.219 20.9273 19.3307C20.0182 19.3307 19.1091 19.3307 18.2364 19.3307C17.9091 19.4052 17.6909 19.5169 17.6546 19.8521Z" fill="#F5DE7E"/>
<path d="M13.291 14.526C14.5637 14.4142 15.4728 13.781 16.091 12.6637C16.4547 12.0305 16.6001 11.3228 16.5637 10.6151C16.5637 10.2054 16.5274 9.79571 16.5637 9.386C16.6365 8.30586 15.9456 7.4492 14.9637 7.18848C14.491 7.07674 14.0547 6.85327 13.6183 6.66704C14.0183 6.25733 14.0183 6.25733 14.491 6.59255C15.4728 7.30022 16.6001 7.74717 17.8001 7.89616C17.9092 7.89616 18.0183 7.9334 18.0183 8.08239C17.9819 9.12528 18.091 10.1309 17.9456 11.1738C17.6547 13.3713 15.4365 14.9729 13.3274 14.5632C13.3274 14.5632 13.3274 14.526 13.291 14.526Z" fill="#D69A8B"/>
<path d="M8.38182 12.5147C8.38182 11.7697 8.38182 11.0621 8.38182 10.3171C8.38182 10.0937 8.41819 10.0564 8.63637 10.0937C8.96364 10.1309 9.03637 10.2427 9.03637 10.5779C9.1091 12.2539 9.76364 13.5948 11.0727 14.6004C11.3636 14.8239 11.3273 15.0474 11.2909 15.3454C11.2545 15.6061 11.1091 15.7923 10.8545 15.8668C10.4545 15.9785 10.0545 16.053 9.65455 16.1275C9.58182 16.1275 9.47273 16.1275 9.4 16.0903C8.78182 15.8668 8.34546 15.3454 8.34546 14.6377C8.38182 13.93 8.38182 13.2223 8.38182 12.5147Z" fill="#796D79"/>
<path d="M22.7455 30.0948C22.9273 29.8713 23 29.6106 23 29.2754C23 26.5564 23 23.8747 23 21.1557C23 20.8578 22.9273 20.5971 22.7455 20.3363C23.0364 20.3363 23.3637 20.3363 23.6546 20.3363C24.0909 20.3363 24.4182 20.6715 24.4546 21.1185C24.4546 21.5655 24.4546 22.0124 24.4546 22.4221C24.4546 22.5339 24.4182 22.6083 24.3091 22.6456C23.5818 22.9063 23.2182 23.4278 23.2182 24.2099C23.2182 24.8431 23.2182 25.4763 23.2182 26.1095C23.2182 26.9289 23.5455 27.4131 24.3091 27.6738C24.4182 27.7111 24.4546 27.7855 24.4546 27.8973C24.4546 28.3442 24.4546 28.7912 24.4546 29.2009C24.4546 29.6478 24.1273 29.9831 23.6546 29.9831C23.3637 30.132 23.0728 30.0948 22.7455 30.0948Z" fill="#DB8758"/>
<path d="M18.0909 6.92775C18.3455 6.85326 18.2364 6.62978 18.2364 6.4808C18.1637 5.43791 17.9091 4.43227 17.3637 3.53836C16.7455 2.49547 15.9091 1.71331 14.8182 1.11737C14.7818 1.08012 14.7455 1.04288 14.7091 1.04288C15.8 1.11737 16.7455 1.56432 17.5818 2.272C18.9273 3.42662 19.6546 4.95371 19.6182 6.77877C19.6182 7.00225 19.6182 7.11398 19.3637 7.00224C18.9273 6.92775 18.4909 7.03949 18.0909 6.92775Z" fill="#685E68"/>
<path d="M18.1638 13.2968C18.7092 12.4029 19.0001 11.4345 18.9638 10.3544C18.9638 10.0564 19.1456 10.1682 19.291 10.0937C19.5819 9.9447 19.6183 10.0937 19.6183 10.3916C19.6183 11.807 19.6183 13.1851 19.6183 14.6005C19.6183 15.3081 19.2183 15.8296 18.6001 16.053C18.2728 16.1648 17.9819 15.9786 17.6547 15.9413C17.6547 15.8296 17.7638 15.7551 17.8365 15.6433C18.0547 15.2709 18.1638 14.8612 18.1638 14.4142C18.1274 14.0418 18.1274 13.6693 18.1638 13.2968Z" fill="#685E68"/>
<path d="M20.9273 19.4052C20.3091 18.5485 19.4 18.1761 18.3818 17.9898C17.7273 17.8781 17.0728 17.7291 16.4182 17.5801C16.7091 17.3939 17.0364 17.2077 17.3273 16.9842C17.4 16.9097 17.4728 16.9097 17.5818 16.947C18.7091 17.2077 19.8 17.4311 20.9273 17.6919C21.8 17.9153 22.4182 18.5113 22.7818 19.4052C22.1637 19.4052 21.5455 19.4052 20.9273 19.4052Z" fill="#EECF6F"/>
<path d="M3.87284 25.2528C3.87284 25.588 3.87284 25.9233 3.87284 26.2585C3.87284 26.6682 3.65466 26.8916 3.25466 26.8916C2.96375 26.8916 2.67284 26.8916 2.38193 26.8916C2.20012 26.8916 2.12739 26.8172 2.09102 26.6309C1.94557 25.6998 1.94557 24.7686 2.09102 23.8375C2.12739 23.6512 2.16375 23.5768 2.38193 23.5768C2.67284 23.614 2.96375 23.5768 3.25466 23.5768C3.69102 23.5768 3.87284 23.8002 3.87284 24.2472C3.87284 24.6196 3.87284 24.9176 3.87284 25.2528Z" fill="#DFADA1"/>
<path d="M14.5637 17.1332C13.6183 17.2822 12.7455 17.0959 11.8728 16.649C11.7273 16.5745 11.6183 16.5 11.8001 16.3138C12.0546 16.0903 12.2001 15.7923 12.2364 15.4571C12.2364 15.2709 12.3092 15.2709 12.491 15.3081C12.8183 15.4199 13.1455 15.4944 13.5092 15.5316C13.7273 15.5689 13.9092 15.5689 14.1273 15.5316C14.3092 15.5316 14.4183 15.6061 14.4183 15.7923C14.4183 16.202 14.4546 16.5745 14.7092 16.9097C14.7455 17.0587 14.6728 17.1332 14.5637 17.1332Z" fill="#DFADA1"/>
<path d="M24.5637 23.6512C24.9637 23.5395 25.3637 23.6512 25.7637 23.614C25.9092 23.614 25.9092 23.7257 25.9092 23.8002C26.091 24.7686 26.091 25.6998 25.9092 26.6682C25.9092 26.7427 25.8728 26.8544 25.7637 26.8544C25.3637 26.8172 24.9637 26.9289 24.5637 26.8172C24.8546 26.7054 24.9637 26.4819 24.9637 26.184C25.0001 25.5508 25.0001 24.9549 24.9637 24.3217C24.9637 24.0237 24.891 23.763 24.5637 23.6512Z" fill="#D69A8B"/>
<path d="M24.5637 23.6512C25.0001 23.6885 25.0365 23.6885 25.0728 24.2844C25.1092 25.0293 25.1456 25.8115 25.0365 26.5937C25.0001 26.8917 24.7456 26.8172 24.6001 26.8544C24.3092 26.7799 24.2001 26.5564 24.2001 26.2957C24.2001 25.6253 24.2001 24.9176 24.2001 24.2472C24.1637 23.9492 24.2728 23.7257 24.5637 23.6512Z" fill="#DEADA1"/>
<path d="M14.5637 17.1332C14.6001 17.0959 14.7092 17.0587 14.6001 16.947C14.3455 16.649 14.2728 16.2765 14.3092 15.9041C14.3455 15.6061 14.2364 15.5688 13.9819 15.5688C13.8364 15.5688 13.6546 15.6061 13.5092 15.5316C14.2001 15.5688 14.891 15.5316 15.5819 15.2709C15.7273 15.2336 15.7637 15.2709 15.7637 15.3826C15.8001 15.7551 15.9455 16.0903 16.2364 16.351C16.3819 16.5 16.3092 16.5372 16.2001 16.6117C15.6546 16.9097 15.1455 17.0959 14.5637 17.1332Z" fill="#D69A8B"/>
<path d="M18.1637 13.2968C18.2728 14.1162 18.3455 14.9357 17.9092 15.7178C17.8364 15.8296 17.7637 15.9041 17.6546 15.9413C17.4728 15.9041 17.3273 15.9041 17.1455 15.8668C16.891 15.7923 16.7092 15.6061 16.6728 15.3454C16.6364 15.0846 16.6001 14.8239 16.891 14.6377C17.4364 14.2652 17.8001 13.781 18.1637 13.2968Z" fill="#796C78"/>
<path d="M9.0364 8.56659C9.0364 8.67833 9.0364 8.75282 9.0364 8.86456C9.0364 8.9763 9.10913 9.08804 9.00004 9.16253C8.89095 9.23702 8.74549 9.16253 8.6364 9.08804C8.41822 8.93905 8.34549 8.71558 8.38185 8.45485C8.41822 8.23138 8.56367 8.08239 8.78185 8.0079C8.96367 7.93341 9.0364 8.0079 9.0364 8.19413C9.0364 8.30587 9.0364 8.41761 9.0364 8.56659Z" fill="#D5998B"/>
<path d="M18.9637 8.56658C18.9637 8.49209 18.9637 8.38035 18.9637 8.30586C18.9637 8.19412 18.891 8.04514 19.0365 7.97065C19.1456 7.9334 19.291 8.00789 19.4001 8.08238C19.5819 8.23137 19.6546 8.4176 19.6183 8.64108C19.5819 8.86455 19.4728 9.01354 19.2546 9.12527C19.0728 9.19977 18.9637 9.19977 18.9637 8.93904C18.9637 8.82731 18.9637 8.67832 18.9637 8.56658Z" fill="#DEACA0"/>
<path d="M15.0364 25.2528C15.0364 26.5564 14.0182 27.5993 12.7819 27.5993C11.5091 27.5993 10.491 26.5564 10.491 25.2528C10.491 23.9492 11.5091 22.9063 12.7819 22.9063C13.9819 22.9063 15.0001 23.9492 15.0364 25.2528Z" fill="black"/>
<path d="M21.0001 22.9063C21.2546 22.9063 21.4728 22.9063 21.7273 22.9063C22.0546 22.9063 22.2364 23.1298 22.2364 23.3905C22.2364 23.6512 22.0182 23.8375 21.7273 23.8375C21.4728 23.8375 21.1819 23.8375 20.9273 23.8375C20.8182 23.8375 20.7092 23.8747 20.7455 24.0237V24.0609C20.7092 24.7314 20.7092 24.7314 21.3637 24.7314C21.4728 24.7314 21.5819 24.7314 21.691 24.7314C21.9819 24.7686 22.1637 24.9548 22.1637 25.2156C22.1637 25.4763 21.9819 25.6998 21.691 25.6998C21.4364 25.6998 21.2182 25.6998 20.9637 25.6998C20.8182 25.6998 20.7819 25.737 20.7455 25.886C20.7092 26.5564 20.7092 26.5564 21.3637 26.5564C21.5455 26.5564 21.691 26.5564 21.8728 26.5564C22.1273 26.5937 22.2728 26.7799 22.2728 27.0034C22.2728 27.2269 22.1637 27.4503 21.9092 27.4503C21.3273 27.5248 20.7455 27.5248 20.2001 27.4503C19.9455 27.4131 19.8364 27.2269 19.8364 27.0034C19.8364 25.7743 19.8364 24.5451 19.8364 23.316C19.8364 23.018 20.0182 22.8691 20.3092 22.8691C20.491 22.9063 20.7455 22.9063 21.0001 22.9063Z" fill="black"/>
<path d="M7.54556 25.7743C7.83647 24.9176 8.09102 24.1727 8.3092 23.3905C8.45465 22.9808 8.67284 22.8691 8.96375 22.9436C9.25465 23.0553 9.32738 23.2788 9.21829 23.6885C8.85465 24.8059 8.49102 25.9605 8.12738 27.0779C8.01829 27.3758 7.87284 27.5993 7.54556 27.5993C7.21829 27.5993 7.07284 27.3758 6.96375 27.0779C6.60011 25.9605 6.20011 24.8059 5.80011 23.6885C5.65465 23.316 5.76375 23.0553 6.05465 22.9436C6.34556 22.8318 6.56375 22.9808 6.7092 23.3905C7.00011 24.1354 7.25465 24.9176 7.54556 25.7743Z" fill="black"/>
<path d="M16.7819 25.5508C16.7819 25.0666 16.7819 24.5824 16.7819 24.0982C16.7819 23.912 16.7455 23.8002 16.5273 23.8375C16.4182 23.8375 16.3091 23.8375 16.2 23.8375C15.9455 23.8002 15.7637 23.6512 15.7637 23.3905C15.7637 23.1298 15.9091 22.9063 16.1637 22.9063C16.8909 22.8691 17.5819 22.8691 18.3091 22.9063C18.5637 22.9063 18.7091 23.1298 18.7091 23.3905C18.7091 23.6512 18.5273 23.8375 18.2728 23.8375C18.0909 23.8375 17.8364 23.8002 17.7637 23.8747C17.6182 24.0237 17.7273 24.2844 17.7273 24.5079C17.7273 25.3273 17.7273 26.1467 17.7273 26.9661C17.7273 27.3758 17.5455 27.5993 17.2546 27.5993C16.9637 27.5993 16.7819 27.3758 16.7819 27.0034C16.7819 26.5192 16.7819 26.035 16.7819 25.5508Z" fill="black"/>
<path d="M11.4 25.2528C11.4 24.5079 12.0182 23.8747 12.7455 23.8747C13.4728 23.8747 14.0909 24.5079 14.0546 25.2528C14.0546 25.9977 13.4364 26.6309 12.7091 26.6309C11.9818 26.6309 11.4 25.9977 11.4 25.2528Z" fill="#E09873"/>
</svg>
