<svg width="30" height="32" viewBox="0 0 30 32" fill="none" xmlns="http://www.w3.org/2000/svg">
<path d="M26.4309 30.7717C26.3987 31.0611 26.2058 31.1897 25.9164 31.1897C24.4051 31.1897 22.926 31.1897 21.4148 31.1897C20.9325 31.1897 20.5788 30.836 20.5788 30.3537C20.5788 29.0997 20.5788 27.8457 20.5788 26.6238C20.5788 26.2701 20.7396 25.9807 21.0611 25.8199C21.2219 25.7235 21.2219 25.627 21.2219 25.4662C21.1897 24.791 21.1897 24.1479 21.1897 23.4727C21.1897 22.9582 21.3505 22.701 21.865 22.508C21.9293 22.4759 21.9936 22.4759 21.9936 22.3794C21.9936 21.9936 22.0579 21.6077 21.8328 21.254C21.1254 20.1608 20.418 19.0675 19.6785 17.9743C19.6785 18.0707 19.6785 18.1994 19.6785 18.2958C19.6785 20.9646 19.6785 23.6656 19.6785 26.3344C19.6785 27.074 19.3891 27.3955 18.6174 27.3955C12.7653 27.3955 6.94534 27.3955 1.09325 27.3955C0.353698 27.3955 0.0321543 27.1061 0.0321543 26.3666C0.0321543 20.418 0.0321543 14.4695 0.0321543 8.48875C0.0321543 8.03859 0.128617 7.94212 0.51447 7.84566C0.803859 7.84566 0.932476 7.94212 1.02894 8.29582C1.02894 14.1158 1.02894 19.9357 1.02894 25.7556C1.02894 26.463 0.996785 26.4309 1.70418 26.4309C6.88103 26.4309 12.0579 26.4309 17.2347 26.4309C17.5884 26.4309 17.9743 26.3987 18.328 26.4309C18.5209 26.4309 18.6174 26.3344 18.6174 26.1415C18.6174 26.1093 18.6174 26.0772 18.6174 26.045C18.6174 23.4405 18.6174 20.8039 18.6174 18.1994C18.6174 17.8778 18.5852 17.8457 18.2637 17.9743C18.0386 18.0707 17.8135 18.1672 17.5884 18.2637C17.2347 18.4244 16.8489 18.4887 16.463 18.5209C15.9807 18.5531 15.5305 18.6174 15.0482 18.6174C14.6945 18.6174 14.4373 18.4566 14.3087 18.135C14.1479 17.8135 14.2122 17.492 14.4695 17.2347C14.8232 16.8489 15.1768 16.4952 15.5627 16.1093C16.045 15.5949 16.7524 15.4019 17.3633 15.0804C17.4598 15.0482 17.5241 15.0161 17.6206 14.9839C17.6849 14.9518 17.7492 14.9196 17.8135 14.8875C18.1029 14.791 18.2315 14.5981 18.1672 14.2765C18.135 13.955 18.2315 13.6978 18.4244 13.4727C18.5852 13.3119 18.6174 13.119 18.6174 12.8939C18.6174 10.1286 18.6174 7.36334 18.6174 4.59807C18.6174 4.24437 18.5852 4.21222 18.2315 4.21222C18.0064 4.21222 17.7492 4.21222 17.5241 4.21222C17.3955 4.21222 17.2669 4.21222 17.1704 4.21222C11.9614 4.21222 6.78457 4.21222 1.57556 4.21222C0.996785 4.21222 1.02894 4.21222 0.996785 4.791C0.996785 5.27331 1.02894 5.72347 0.996785 6.20579C0.96463 6.59164 0.771704 6.78457 0.418006 6.72026C0.096463 6.65595 0 6.43087 0 6.14148C0 4.4373 0 2.70096 0 0.996785C0.0321543 0.450161 0.257235 0.192926 0.643087 0C6.78457 0 12.8939 0 19.0354 0C19.4855 0.22508 19.6463 0.610933 19.6463 1.09325C19.6463 4.82315 19.6463 8.55305 19.6463 12.2508C19.6463 12.3473 19.6463 12.4116 19.6463 12.4759C19.7428 12.5402 19.7749 12.4437 19.8392 12.4116C20.6752 11.7685 21.5113 11.1254 22.3473 10.4823C23.119 9.87138 23.8907 9.90354 24.6302 10.5145C24.9518 10.7717 25.2412 11.1897 25.5949 11.254C25.9164 11.2862 26.3344 10.9646 26.6881 10.8039C26.9132 10.7074 27.1061 10.5788 27.3633 10.5145C27.7814 10.4502 28.1994 10.6431 28.3923 11.0289C28.5209 11.254 28.6174 11.4791 28.7138 11.7042C29.0032 12.3473 28.8103 12.8617 28.1672 13.1511C28.1029 13.1833 28.0386 13.2154 27.9421 13.2476C28.5209 13.7621 28.5852 14.4373 28.5852 15.1769C28.5531 17.5241 28.5852 19.8714 28.5852 22.2187C28.5852 22.4116 28.6174 22.508 28.8103 22.6045C29.1318 22.7653 29.2605 23.0868 29.2605 23.4405C29.2605 24.1158 29.2926 24.791 29.2926 25.4341C29.2926 25.5627 29.3248 25.6592 29.4855 25.7235C29.8392 25.8842 30 26.2058 30 26.5916C30 27.8135 30 29.0354 30 30.2894C30 30.8039 29.6463 31.1254 29.1318 31.1576C28.8103 31.1576 28.4887 31.1576 28.1672 31.1576C27.9421 31.1576 27.7814 31.0932 27.6849 30.8682C27.5563 30.4823 27.6206 30.3537 28.0064 30.1929C28.2315 30.1608 28.4566 30.1608 28.6817 30.1608C28.9068 30.1608 29.0032 30.0643 29.0032 29.8714C29.0032 28.9068 29.0032 27.9743 29.0032 27.0096C29.0032 26.7524 28.8746 26.7203 28.6495 26.7203C27.2347 26.6238 25.8199 26.656 24.4373 26.656C23.6334 26.656 22.8296 26.656 22.0257 26.656C21.8971 26.656 21.7685 26.6238 21.6399 26.7524C21.5756 26.8489 21.5756 26.9453 21.5756 27.074C21.5756 27.9743 21.5756 28.8746 21.5756 29.7749C21.5756 30.1286 21.6077 30.1608 21.9936 30.1608C23.2154 30.1608 24.4373 30.1608 25.6592 30.1608C25.8199 30.1608 26.0129 30.1608 26.1736 30.2251C26.3987 30.3537 26.4952 30.5145 26.4309 30.7717Z" fill="black"/>
<path d="M0.964665 8.23151C0.900356 8.00643 0.739584 7.90997 0.514504 7.84566C0.48235 7.45981 0.578813 7.0418 0.450195 6.65595C0.836047 6.59164 0.93251 6.46302 0.93251 6.10933C0.93251 5.53055 0.93251 4.98392 0.93251 4.40515C0.93251 4.14791 0.996819 4.0836 1.25405 4.0836C2.60454 4.0836 3.95502 4.0836 5.3055 4.0836C9.29264 4.0836 13.2476 4.0836 17.2348 4.0836C17.3312 4.0836 17.4598 4.0836 17.5563 4.0836C17.6528 4.21222 17.6528 4.34084 17.6528 4.50161C17.6528 7.87782 17.6528 11.2862 17.6528 14.6624C17.6528 14.791 17.6528 14.9518 17.5563 15.0804C17.4598 15.1447 17.3634 15.209 17.2669 15.2412C16.1094 15.627 15.3055 16.4309 14.5016 17.299C14.2766 17.5563 14.2444 17.8135 14.3409 18.1029C14.4695 18.3923 14.6946 18.5531 15.0161 18.5531C15.8521 18.4887 16.6881 18.5209 17.4598 18.2315C17.6206 18.2315 17.5885 18.3601 17.6206 18.4566C17.6528 18.5852 17.6206 18.7138 17.6206 18.8103C17.6206 21.1576 17.6206 23.5048 17.6206 25.8842C17.6206 25.9486 17.6206 26.0129 17.6206 26.0772C17.6206 26.4952 17.5885 26.4952 17.2026 26.4952C11.8971 26.4952 6.59167 26.4952 1.28621 26.4952C0.93251 26.4952 0.93251 26.4952 0.93251 26.1415C0.93251 20.2894 0.93251 14.4373 0.93251 8.61736C0.964665 8.45659 0.996819 8.32798 0.964665 8.23151Z" fill="#E7ECF1"/>
<path d="M26.4309 30.7717C26.3988 30.418 26.238 30.2894 25.8521 30.2894C24.5017 30.2894 23.1512 30.2894 21.8007 30.2894C21.5113 30.2894 21.4791 30.1929 21.4791 29.9357C21.4791 28.9389 21.4791 27.91 21.4791 26.9132C21.4791 26.8167 21.447 26.7203 21.5435 26.6238C21.6399 26.5916 21.7364 26.5916 21.8007 26.5916C23.7621 26.5916 25.6914 26.5916 27.6528 26.5916C28.0065 26.5916 28.0386 26.6238 28.0386 26.9775C28.0386 27.9743 28.0386 28.9711 28.0386 29.9679C28.0386 30.0965 28.0386 30.2251 27.9422 30.3215C27.6849 30.4502 27.6206 30.6431 27.6849 30.9325C27.6206 30.8682 27.6206 30.7717 27.492 30.7717C27.1383 30.7717 26.7846 30.7074 26.4309 30.7717Z" fill="#685E68"/>
<path d="M0.96465 3.11898C0.96465 2.44373 0.964649 1.76849 0.932495 1.12541C0.932495 0.964634 0.996804 0.93248 1.12542 0.93248C1.15758 0.93248 1.18973 0.93248 1.22188 0.93248C6.62381 0.93248 11.9936 0.93248 17.3955 0.93248C17.4598 0.93248 17.5241 0.93248 17.5884 0.93248C17.6849 1.02894 17.6849 1.15756 17.6849 1.28618C17.6849 1.76849 17.6849 2.28296 17.6849 2.76528C17.6849 3.11898 17.6528 3.15113 17.2991 3.15113C11.9614 3.15113 6.59166 3.15113 1.25404 3.15113C1.15758 3.15113 1.06111 3.15113 0.96465 3.11898Z" fill="#FD646F"/>
<path d="M22.8939 22.4759C22.9904 21.4148 22.4759 20.5788 21.9293 19.7428C21.2219 18.6817 20.5145 17.5884 19.8392 16.4952C19.5177 15.9807 19.7106 15.3698 20.2894 15.2412C20.6109 15.1769 20.9325 15.3055 21.1576 15.6592C21.7042 16.4952 22.2508 17.3312 22.7974 18.1994C23.0868 18.6495 23.2797 18.7138 23.7942 18.6174C24.4051 18.4888 24.8553 18.0386 24.8875 17.3955C24.9196 16.8167 24.8875 16.2379 24.8875 15.6592C24.8875 15.4662 24.8231 15.2412 24.7267 15.0804C24.6302 14.9196 24.6624 14.8553 24.8231 14.791C25.3698 14.5659 25.9164 14.3087 26.463 14.0515C26.5916 14.1158 26.6238 14.2444 26.6559 14.373C26.7203 14.6302 26.7524 14.8875 26.7524 15.1125C26.7524 17.3955 26.7524 19.6785 26.7524 21.9614C26.7524 22.0579 26.7524 22.1543 26.7524 22.2508C26.7203 22.3794 26.6881 22.4759 26.5273 22.4759C25.3698 22.4759 24.1801 22.4759 23.0225 22.4759C22.926 22.508 22.926 22.4759 22.8939 22.4759Z" fill="#FEA68E"/>
<path d="M0.96465 8.23151C1.06111 8.32797 0.996804 8.48874 0.996804 8.61736C0.996804 14.4373 0.996804 20.2572 0.996804 26.0772C0.996804 26.3666 1.06111 26.463 1.38266 26.463C6.65597 26.463 11.9293 26.463 17.2026 26.463C17.492 26.463 17.5563 26.3666 17.5563 26.0772C17.5563 23.5691 17.5563 21.0611 17.5563 18.5531C17.5563 18.4244 17.5884 18.2958 17.492 18.1994C17.8778 18.0064 18.2637 17.8135 18.6495 17.6527C18.746 17.717 18.7138 17.7813 18.7138 17.8457C18.7138 20.6431 18.7138 23.4405 18.7138 26.2058C18.7138 26.4309 18.6495 26.463 18.4566 26.463C12.701 26.463 6.97751 26.463 1.22188 26.463C1.02896 26.463 0.932495 26.463 0.932495 26.2058C0.964649 20.2251 0.96465 14.2444 0.96465 8.23151Z" fill="#D2DDE4"/>
<path d="M17.5884 15.0482C17.5884 11.3826 17.5884 7.7492 17.5884 4.0836C17.8778 4.0836 18.1993 4.0836 18.4887 4.0836C18.7138 4.0836 18.7459 4.14791 18.7459 4.34084C18.7459 6.23794 18.7459 8.1672 18.7459 10.0643C18.7459 11.0611 18.7459 12.0579 18.7459 13.0547C18.7459 13.2154 18.7138 13.3441 18.5852 13.4727C18.2636 13.7621 18.1672 14.1158 18.2958 14.5338C18.3601 14.7267 18.2958 14.791 18.135 14.8553C17.9421 14.8875 17.7492 14.9518 17.5884 15.0482Z" fill="#D2DDE4"/>
<path d="M22.1543 25.6592C22.0578 24.9518 22.1221 24.2765 22.09 23.5691C22.09 23.4727 22.1221 23.4405 22.2186 23.4405C23.8906 23.4405 25.5305 23.4405 27.2025 23.4727C27.3311 23.6334 27.299 23.7942 27.3311 23.955C27.3954 24.4373 27.3633 24.9196 27.3633 25.4019C27.3633 25.5627 27.299 25.6913 27.106 25.6913C25.4983 25.6913 23.8906 25.6913 22.2507 25.6913C22.2186 25.6592 22.1864 25.6592 22.1543 25.6592Z" fill="#E7ECF1"/>
<path d="M22.8939 22.4759C24.0193 22.4759 25.1769 22.4759 26.3023 22.4759C26.5274 22.4759 26.5917 22.4116 26.5917 22.1865C26.5917 19.7749 26.5917 17.3634 26.5917 14.9518C26.5917 14.6624 26.5274 14.3408 26.3987 14.0836C26.4631 14.0515 26.5274 13.9871 26.5917 13.9871C26.7846 13.955 26.9132 13.6978 27.1383 13.8585C27.4277 14.0515 27.6528 14.2765 27.6849 14.6624C27.6849 14.7267 27.6849 14.791 27.6849 14.8553C27.6849 17.3312 27.6849 19.8071 27.6849 22.283C27.6849 22.4437 27.7171 22.5724 27.4598 22.5724C25.9807 22.5724 24.5016 22.5724 23.0225 22.5724C22.9904 22.508 22.9261 22.5402 22.8939 22.4759Z" fill="#F68C7C"/>
<path d="M21.061 14.4373C21.7363 14.1157 22.3794 13.8264 23.0224 13.5048C24.4694 12.8617 25.8842 12.2186 27.299 11.5434C27.5241 11.4469 27.5884 11.4791 27.717 11.7042C28.0064 12.3151 28.0064 12.3151 27.3954 12.6045C25.6591 13.4084 23.9228 14.2122 22.1864 15.0482C21.9935 15.1447 21.897 15.1447 21.7684 14.9518C21.5755 14.7267 21.3504 14.5981 21.061 14.4373Z" fill="#FDD302"/>
<path d="M27.9422 30.2894C27.9422 29.164 27.9422 28.0707 27.9422 26.9453C27.9422 26.6881 27.8779 26.6238 27.6206 26.6238C25.5949 26.6238 23.5692 26.6238 21.5435 26.6238C21.6399 26.5595 21.7685 26.5916 21.865 26.5916C23.7943 26.5916 25.7235 26.5916 27.6849 26.5916C28.1029 26.5916 28.4888 26.6238 28.9068 26.6238C29.0997 26.6238 29.1319 26.6881 29.1319 26.8489C29.1319 27.91 29.1319 29.0032 29.1319 30.0643C29.1319 30.2251 29.0676 30.2894 28.939 30.2894C28.5853 30.2894 28.2637 30.2894 27.9422 30.2894Z" fill="#554E56"/>
<path d="M24.0193 12.0579C22.4759 12.7974 20.9003 13.5048 19.3569 14.2444C19.2926 14.2765 19.2283 14.3408 19.164 14.2765C19.0997 14.1479 19.1962 14.0836 19.2926 14.0193C20.0965 13.4084 20.9003 12.7653 21.7042 12.1543C22.1544 11.8006 22.6045 11.4791 23.0547 11.1254C23.4405 11.2862 23.7299 11.6077 24.0193 11.8649C24.0836 11.9293 24.0836 11.9936 24.0193 12.0579Z" fill="#FEA68E"/>
<path d="M0.9646 3.11898C6.33437 3.11898 11.7363 3.11898 17.1061 3.11898C17.6205 3.11898 17.5562 3.18328 17.5562 2.63666C17.5562 2.05788 17.5562 1.51126 17.5562 0.93248C17.8778 0.93248 18.1993 0.93248 18.4887 0.93248C18.6495 0.93248 18.6816 0.996788 18.6816 1.15756C18.6816 1.76849 18.6816 2.34727 18.6816 2.9582C18.6816 3.15113 18.6173 3.21544 18.4244 3.18328C18.0386 3.18328 17.6205 3.18328 17.2347 3.18328C11.8971 3.18328 6.59161 3.18328 1.25399 3.18328C1.18968 3.15113 1.06106 3.21544 0.9646 3.11898Z" fill="#E05168"/>
<path d="M22.1543 25.6592C23.7299 25.6592 25.3376 25.6592 26.9131 25.6592C27.2025 25.6592 27.2668 25.5627 27.2668 25.3055C27.2668 24.6945 27.2347 24.0836 27.2025 23.4727C27.5241 23.4727 27.8456 23.4727 28.135 23.4405C28.3279 23.4405 28.3601 23.5048 28.3601 23.6656C28.3601 24.2444 28.3601 24.791 28.3922 25.3698C28.3922 25.627 28.3601 25.6913 28.0707 25.6913C26.8167 25.6913 25.5627 25.6913 24.3408 25.6913C23.6977 25.6913 23.0868 25.6913 22.4437 25.6913C22.3472 25.6913 22.2508 25.7235 22.1543 25.6592Z" fill="#D2DDE4"/>
<path d="M22.3794 15.9164C22.7974 15.7235 23.1833 15.5305 23.5691 15.3698C23.6977 15.3055 23.7942 15.3376 23.8585 15.4662C23.9228 15.5627 23.955 15.6913 23.955 15.8199C23.955 16.3022 23.955 16.7846 23.955 17.2669C23.955 17.3955 23.9228 17.492 23.8585 17.5884C23.6977 17.7813 23.5691 17.7813 23.4405 17.5563C23.0868 17.0096 22.7331 16.463 22.3794 15.9164Z" fill="#FDFDFD"/>
<path d="M15.5305 17.5563C15.9485 17.1704 16.2379 16.7524 16.6881 16.4952C16.8488 16.3987 16.9775 16.3987 17.0418 16.5916C17.0739 16.6881 17.1061 16.7524 17.1704 16.8489C17.3955 17.3312 17.3955 17.3312 16.881 17.4598C16.463 17.5563 16.0128 17.5563 15.5305 17.5563Z" fill="#675D67"/>
<path d="M18.8102 15.4984C18.7138 15.8521 18.7138 16.1415 18.7781 16.4309C18.8102 16.5273 18.7781 16.5916 18.6816 16.6238C18.1993 16.9132 18.135 16.9132 17.9099 16.3987C17.717 15.9807 17.717 15.9807 18.135 15.7878C18.3601 15.7235 18.553 15.627 18.8102 15.4984Z" fill="#FCD202"/>
<path d="M24.0192 12.0579C23.9228 11.7685 23.6334 11.7042 23.4405 11.4791C23.3119 11.3505 23.1511 11.254 23.0225 11.1254C23.3119 10.9325 23.6012 10.9646 23.8585 11.1254C23.9228 11.1576 23.9871 11.2219 24.0192 11.254C24.2122 11.4148 24.3729 11.5756 24.598 11.7363C24.4373 11.865 24.2443 11.9614 24.0192 12.0579Z" fill="#F58C7B"/>
<path d="M6.84894 14.5338C5.98077 14.5338 5.1126 14.5338 4.27659 14.5338C3.63351 14.5338 3.34412 14.2444 3.34412 13.6013C3.34412 12.9903 3.34412 12.4116 3.34412 11.8006C3.34412 11.0932 3.63351 10.7395 4.30875 10.5788C4.59814 10.5145 4.88752 10.4502 5.17691 10.3537C5.53061 10.2572 5.65923 9.90353 5.40199 9.61414C4.75891 8.87459 4.75891 8.03858 4.98399 7.17041C5.20907 6.23793 6.1737 5.65916 7.07402 5.78777C8.0708 5.91639 8.7782 6.72025 8.81035 7.68488C8.84251 8.39227 8.7782 9.06752 8.26373 9.64629C8.03865 9.87137 8.19942 10.2572 8.48881 10.3537C8.81035 10.4502 9.16405 10.5145 9.4856 10.6109C10.0001 10.7395 10.3216 11.1254 10.3216 11.672C10.3216 12.3473 10.3216 13.0225 10.3216 13.6977C10.3216 14.2444 10.0322 14.5338 9.4856 14.5338C8.61743 14.5338 7.74926 14.5338 6.84894 14.5338Z" fill="black"/>
<path d="M6.84889 25.0804C5.98072 25.0804 5.11256 25.0804 4.27654 25.0804C3.66561 25.0804 3.37622 24.791 3.37622 24.1801C3.37622 23.5691 3.37622 22.9582 3.37622 22.3473C3.37622 21.6399 3.66561 21.2862 4.37301 21.1254C4.66239 21.0611 4.95178 20.9968 5.24117 20.9003C5.56272 20.8039 5.72349 20.4502 5.49841 20.1929C4.88747 19.5498 4.85532 18.7781 4.98394 17.9743C5.11256 17.0096 6.04503 16.3022 6.97751 16.3344C8.00645 16.3987 8.8103 17.1704 8.87461 18.1672C8.90677 18.9067 8.90677 19.6463 8.32799 20.1929C8.19937 20.3215 8.29584 20.5145 8.26368 20.6752C8.23153 20.9325 8.45661 20.8682 8.58522 20.9003C8.90677 20.9968 9.22831 21.0611 9.5177 21.1254C10.0965 21.2862 10.3859 21.672 10.3859 22.2508C10.3859 22.926 10.3859 23.6013 10.3859 24.2444C10.3859 24.7588 10.0643 25.0482 9.54985 25.0482C8.61738 25.1125 7.74921 25.0804 6.84889 25.0804Z" fill="black"/>
<path d="M12.1543 12.4116C12.1543 11.9936 12.1543 11.6077 12.1543 11.1897C12.1543 10.6109 12.4758 10.2894 13.0225 10.2894C13.8585 10.2894 14.6945 10.2894 15.5305 10.2894C16.045 10.2894 16.3987 10.6109 16.3987 11.1254C16.4308 11.9936 16.4308 12.8617 16.3987 13.6978C16.3987 14.1801 16.045 14.5016 15.5627 14.5338C14.6945 14.5659 13.8585 14.5659 12.9903 14.5338C12.4437 14.5338 12.1543 14.1801 12.1543 13.6335C12.1543 13.2154 12.1543 12.7974 12.1543 12.4116Z" fill="black"/>
<path d="M12.1543 22.926C12.1543 22.508 12.1543 22.09 12.1543 21.672C12.1543 21.1897 12.4758 20.836 12.9582 20.836C13.8263 20.836 14.6945 20.836 15.5627 20.836C16.045 20.836 16.3987 21.1576 16.3987 21.672C16.4308 22.5402 16.4308 23.4084 16.3987 24.2765C16.3987 24.791 16.045 25.1125 15.5305 25.1125C14.6945 25.1125 13.8585 25.1125 13.0225 25.1125C12.4758 25.1125 12.1543 24.7588 12.1543 24.2444C12.1543 23.7942 12.1543 23.3762 12.1543 22.926Z" fill="black"/>
<path d="M6.84889 13.6334C6.07718 13.6334 5.30548 13.6334 4.53377 13.6334C4.30869 13.6334 4.24438 13.5691 4.24438 13.3441C4.24438 12.8296 4.24438 12.3151 4.24438 11.8328C4.24438 11.6399 4.34085 11.5434 4.53377 11.447C5.24117 11.0933 5.65918 11.4791 6.04503 11.9936C6.39873 12.4437 6.94535 12.5402 7.39551 12.2508C7.58844 12.1222 7.71705 11.9614 7.84567 11.8006C8.32799 11.2219 8.32799 11.2219 9.03538 11.3826C9.32477 11.447 9.45339 11.5756 9.45339 11.8971C9.42123 12.3473 9.42123 12.7974 9.45339 13.2476C9.48554 13.5691 9.35693 13.6334 9.06754 13.6334C8.29583 13.6013 7.58844 13.6334 6.84889 13.6334Z" fill="#675E67"/>
<path d="M7.90999 8.03859C7.90999 8.26367 7.90999 8.4566 7.84568 8.68168C7.65276 9.13184 7.23475 9.38908 6.72028 9.35692C6.27012 9.32477 5.88427 8.97107 5.81996 8.52091C5.75565 8.23152 5.75565 7.94213 5.81996 7.65274C5.91642 7.10612 6.39874 6.72026 6.94536 6.75242C7.49199 6.78457 7.90999 7.23473 7.90999 7.78136C7.90999 7.81351 7.90999 7.94213 7.90999 8.03859Z" fill="#FEA68E"/>
<path d="M6.81675 10.2251C6.97752 10.2572 7.2026 10.1608 7.23475 10.2572C7.29906 10.4502 7.29906 10.6752 7.39552 10.8682C7.42768 10.9325 6.88105 11.5113 6.81675 11.5113C6.75244 11.5113 6.23797 10.9003 6.27012 10.8682C6.36658 10.7074 6.36658 10.5145 6.39874 10.3537C6.4952 10.0643 6.72028 10.3537 6.81675 10.2251Z" fill="#F58C7B"/>
<path d="M6.81668 24.1801C6.04498 24.1801 5.27327 24.1801 4.50157 24.1801C4.27649 24.1801 4.21218 24.1158 4.24434 23.9228C4.24434 23.4084 4.24434 22.8939 4.24434 22.3794C4.24434 22.1865 4.30864 22.0579 4.50157 22.0257C4.53372 22.0257 4.59803 22.0257 4.63019 21.9936C5.01604 21.8328 5.27327 21.8971 5.62697 22.1865C6.39868 22.8939 7.58839 22.7974 8.29578 22.0257C8.45655 21.865 8.55302 21.8328 8.7781 21.8971C9.61411 22.1222 9.45334 21.9614 9.48549 22.7653C9.48549 23.119 9.45334 23.5048 9.48549 23.8585C9.51765 24.1158 9.42118 24.1801 9.16395 24.1801C8.36009 24.1801 7.58839 24.1801 6.81668 24.1801Z" fill="#8694DD"/>
<path d="M7.9099 18.6174C7.9099 19.3891 7.58836 19.8071 6.97743 19.9035C6.84881 19.9357 6.72019 19.9035 6.62373 19.8714C5.81987 19.6463 5.69125 19.0032 5.81987 18.1029C5.91633 17.5241 6.49511 17.1704 7.07389 17.3312C7.52405 17.4277 7.84559 17.8135 7.87775 18.2637C7.9099 18.3601 7.9099 18.4887 7.9099 18.6174Z" fill="#FEA68E"/>
<path d="M6.81676 21.7363C6.68815 21.7363 6.55953 21.7042 6.46307 21.672C6.27014 21.6077 6.14152 21.5113 6.33445 21.3183C6.3666 21.2862 6.3666 21.254 6.3666 21.2219C6.43091 21.0611 6.33445 20.8039 6.46307 20.7717C6.68815 20.7074 6.94538 20.8039 7.17046 20.7395C7.26693 20.7395 7.29908 20.8039 7.26692 20.8682C7.13831 21.1254 7.62062 21.3505 7.29908 21.6077C7.20262 21.7363 7.00969 21.7363 6.81676 21.7363Z" fill="#F48B7B"/>
<path d="M14.2765 11.1897C14.6302 11.1897 14.9517 11.1897 15.3054 11.1897C15.4662 11.1897 15.4984 11.2219 15.4984 11.3826C15.4984 12.0579 15.4984 12.7331 15.4984 13.4084C15.4984 13.5691 15.4341 13.6013 15.3054 13.6013C14.6302 13.6013 13.9228 13.6013 13.2476 13.6013C13.1189 13.6013 13.0868 13.537 13.0868 13.4084C13.0868 12.7331 13.0868 12.0257 13.0868 11.3505C13.0868 11.1897 13.1511 11.1575 13.2797 11.1897C13.6013 11.1897 13.9228 11.1897 14.2765 11.1897Z" fill="#2ABBC7"/>
<path d="M15.4984 22.9582C15.4984 23.3119 15.4984 23.6334 15.4984 23.9871C15.4984 24.1479 15.4341 24.1801 15.2733 24.1801C14.5981 24.1801 13.9229 24.1801 13.2476 24.1801C13.0868 24.1801 13.0547 24.1157 13.0547 23.9871C13.0547 23.3119 13.0547 22.6366 13.0547 21.9614C13.0547 21.8006 13.0868 21.7363 13.2476 21.7685C13.9229 21.7685 14.5981 21.7685 15.2412 21.7685C15.402 21.7685 15.4663 21.8328 15.4663 21.9936C15.4984 22.2829 15.4984 22.6366 15.4984 22.9582Z" fill="#2ABBC7"/>
</svg>
