<svg width="30" height="30" viewBox="0 0 30 30" fill="none" xmlns="http://www.w3.org/2000/svg">
<path d="M0.0492207 18.5012H0.0246103H0C0 16.8796 0 15.258 0 13.6364C0.0246103 13.6364 0.0246103 13.6364 0.0492207 13.6364C0.172272 13.7346 0.147662 13.8821 0.147662 14.0295C0.147662 15.4054 0.147662 16.7567 0.147662 18.1327C0.147662 18.2555 0.172272 18.4029 0.0492207 18.5012Z" fill="#A1A1A1"/>
<path d="M0.0491943 18.5012C0.0491943 16.8796 0.0491943 15.258 0.0491943 13.6363C0.762894 11.9902 1.47659 10.344 2.19029 8.72235C2.80555 7.29729 3.44542 5.87223 4.06068 4.44717C4.20834 4.07862 4.45445 3.90663 4.87282 3.9312C6.37405 3.95577 7.85067 3.9312 9.35191 3.9312C9.5734 3.9312 9.62262 3.85749 9.62262 3.66093C9.62262 2.7027 9.62262 1.74447 9.62262 0.78624C9.59801 0.2457 9.86872 0 10.3855 0C13.4618 0 16.5627 0 19.639 0C20.1558 0 20.402 0.2457 20.4266 0.76167C20.4266 1.7199 20.4266 2.7027 20.4266 3.66093C20.4266 3.88206 20.5004 3.90663 20.6973 3.90663C22.1985 3.90663 23.6997 3.90663 25.201 3.90663C25.5947 3.90663 25.8162 4.05405 25.9885 4.4226C27.2682 7.39557 28.5726 10.3685 29.8769 13.3661C29.9508 13.5381 30 13.7346 30 13.9312C30 15.3563 30 16.7813 30 18.2064C30 18.796 29.8031 18.9926 29.2371 18.968C28.9417 18.9435 28.8679 19.0417 28.8679 19.3366C28.8679 22.629 28.8679 25.9214 28.8679 29.1892C28.8679 29.8034 28.6956 29.9754 28.0804 29.9754C19.3683 29.9754 10.6563 29.9754 1.91958 29.9754C1.32893 29.9754 1.15666 29.8034 1.15666 29.2137C1.15666 25.9459 1.15666 22.6535 1.15666 19.3857C1.15666 18.9926 1.15666 18.9926 0.762894 18.9926C0.344518 18.968 0.196856 18.8698 0.0491943 18.5012Z" fill="black"/>
<path d="M27.9574 19.7297C27.9574 20.1966 27.9574 20.6388 27.9574 21.1056C27.9574 23.6609 27.9574 26.2408 27.9574 28.7961C27.9574 29.0418 27.9081 29.0909 27.662 29.0909C19.2207 29.0909 10.7547 29.0909 2.31339 29.0909C2.14112 29.0909 2.01807 29.1155 2.01807 28.8452C2.01807 25.8477 2.01807 22.8501 2.01807 19.8526C2.01807 19.8034 2.01807 19.7543 2.01807 19.7052C2.0919 19.6314 2.21495 19.6069 2.31339 19.6069C2.41183 19.6069 2.51027 19.6069 2.60871 19.6069C10.8532 19.6069 19.0976 19.6069 27.3421 19.6069C27.5882 19.6314 27.7851 19.5823 27.9574 19.7297Z" fill="#E39442"/>
<path d="M10.041 6.68303C9.64724 6.80588 9.59802 6.87959 9.62263 7.34642C9.62263 7.56755 9.57341 7.64126 9.35191 7.61669C9.05659 7.59212 8.73665 7.61669 8.44133 7.61669C8.07217 7.61669 7.82607 7.78868 7.67841 8.10809C7.50614 8.52578 7.30925 8.94347 7.13698 9.36116C6.86627 10.0245 7.16159 10.4914 7.87529 10.4914C12.4282 10.4914 16.9565 10.4914 21.5094 10.4914C21.7555 10.4914 22.0262 10.4914 22.2723 10.4914C22.8384 10.4668 23.1583 9.99998 22.9368 9.45944C22.7399 8.99261 22.5431 8.50121 22.3216 8.03438C22.1985 7.73954 21.9524 7.59212 21.6325 7.59212C21.3125 7.59212 20.968 7.59212 20.6481 7.59212C20.4758 7.59212 20.4266 7.54298 20.4266 7.37099C20.4266 6.58475 20.4266 5.79851 20.4266 5.01227C20.4266 4.86485 20.4512 4.79114 20.6235 4.79114C22.0755 4.79114 23.5275 4.79114 24.9795 4.79114C25.1025 4.79114 25.1764 4.81571 25.2256 4.93856C26.4315 7.6904 27.6374 10.4422 28.8433 13.2186C28.8433 13.2432 28.8433 13.2678 28.8433 13.2924C28.2773 13.2924 27.7112 13.2924 27.1452 13.2924C26.8499 13.2924 26.6284 13.3906 26.5545 13.71C26.3577 13.8575 26.1362 13.7838 25.9393 13.7838C25.7916 13.7838 25.644 13.7838 25.4963 13.7838C25.4717 13.7838 25.4225 13.7838 25.3979 13.7592C25.324 13.3906 25.201 13.2924 24.758 13.2924C17.0303 13.2924 9.27808 13.2924 1.55043 13.2924C1.42738 13.2924 1.32894 13.2924 1.20589 13.2924C1.15667 13.1941 1.2305 13.1204 1.25511 13.0467C2.4118 10.3685 3.59309 7.71497 4.74978 5.03684C4.82361 4.86485 4.92205 4.79114 5.11893 4.79114C6.52172 4.79114 7.92451 4.79114 9.35191 4.79114C9.57341 4.79114 9.64724 4.84028 9.62263 5.06141C9.59802 5.35625 9.7949 5.50367 10.0656 5.52824C10.1394 5.89679 10.1641 6.28991 10.041 6.68303Z" fill="#E6A461"/>
<path d="M25.3979 13.7592C25.4225 13.7592 25.4225 13.7592 25.4471 13.7592C25.8163 13.7101 26.1854 13.7101 26.5546 13.7592C26.6284 14.054 26.8253 14.1769 27.1206 14.1769C27.6866 14.1523 28.2773 14.1769 28.8433 14.1769C29.0402 14.1769 29.0894 14.226 29.0894 14.4226C29.0894 15.5528 29.0894 16.7076 29.0894 17.8378C29.0894 18.059 29.0156 18.0835 28.8187 18.0835C19.6144 18.0835 10.3856 18.0835 1.1813 18.0835C0.935194 18.0835 0.885973 18.0098 0.910584 17.7887C0.910584 16.7076 0.935194 15.602 0.910584 14.5209C0.910584 14.2506 0.959804 14.1769 1.25513 14.1769C9.032 14.1769 16.7843 14.1769 24.5611 14.1769C24.6596 14.1769 24.758 14.1769 24.8564 14.1769C25.1518 14.1769 25.3487 14.054 25.3979 13.7592Z" fill="#E39442"/>
<path d="M10.0411 6.68305C10.0657 6.28993 9.99184 5.92138 10.0657 5.52826C10.3856 5.47912 10.484 5.25799 10.484 4.96315C10.484 3.68551 10.484 2.43244 10.484 1.1548C10.484 0.933673 10.5087 0.884533 10.7548 0.884533C13.6096 0.884533 16.4398 0.884533 19.2946 0.884533C19.4422 0.884533 19.5653 0.859963 19.5653 1.10566C19.5653 3.68551 19.5653 6.26536 19.5653 8.82064C19.5653 8.84521 19.5653 8.86978 19.5407 8.91892C19.4176 9.0172 19.2946 9.0172 19.1469 9.0172C16.3905 9.0172 13.6588 9.0172 10.9024 9.0172C10.7548 9.0172 10.6317 9.0172 10.5087 8.91892C10.5087 8.37838 10.5087 7.83784 10.484 7.2973C10.484 6.87961 10.4102 6.78133 10.0411 6.68305Z" fill="#F0F0F3"/>
<path d="M27.9574 19.7297C19.3191 19.7297 10.6809 19.7297 2.04266 19.7297C1.99344 18.968 1.99344 18.968 2.73175 18.968C11.0008 18.968 19.2699 18.968 27.539 18.968C27.9574 18.968 27.9574 18.968 27.9574 19.3857C27.982 19.5086 27.982 19.6069 27.9574 19.7297Z" fill="#E18424"/>
<path d="M10.5086 8.89435C13.5111 8.89435 16.5135 8.89435 19.5406 8.89435C19.5898 9.60688 19.5898 9.60688 18.9007 9.60688C16.2182 9.60688 13.5357 9.60688 10.8532 9.60688C10.5824 9.60688 10.4594 9.55774 10.5086 9.2629C10.5086 9.16462 10.484 9.0172 10.5086 8.89435Z" fill="#DEDCE1"/>
<path d="M7.97375 9.60688C8.12142 9.23833 8.26908 8.91892 8.41674 8.57494C8.46596 8.47666 8.53979 8.45209 8.63823 8.45209C8.90895 8.45209 9.15505 8.45209 9.42576 8.45209C9.54882 8.45209 9.62265 8.47666 9.62265 8.62408C9.62265 8.89435 9.62265 9.14005 9.62265 9.41032C9.62265 9.5086 9.59804 9.58231 9.47499 9.58231C8.98278 9.60688 8.49057 9.60688 7.97375 9.60688Z" fill="#E18324"/>
<path d="M22.0509 9.60687C21.5341 9.60687 21.0665 9.60687 20.5742 9.60687C20.4512 9.60687 20.402 9.55773 20.402 9.43488C20.402 9.16461 20.402 8.91891 20.402 8.64864C20.402 8.52579 20.4512 8.47665 20.5742 8.47665C20.845 8.47665 21.1403 8.47665 21.411 8.47665C21.4848 8.47665 21.5341 8.50122 21.5833 8.57493C21.7309 8.91891 21.8786 9.23832 22.0509 9.60687Z" fill="#E18324"/>
<path d="M26.5546 13.7592C26.1855 13.7592 25.8163 13.7592 25.4471 13.7592C25.8163 13.6363 26.1855 13.7346 26.5546 13.7101C26.5546 13.7101 26.5546 13.7346 26.5546 13.7592Z" fill="#EBB780"/>
<path d="M18.3594 4.44716C18.3594 4.66829 18.2855 4.84028 18.1379 4.96313C17.0304 6.06878 15.8983 7.199 14.7909 8.30465C14.4709 8.62406 14.1264 8.59949 13.8065 8.30465C13.142 7.66583 12.5021 7.00244 11.8622 6.36362C11.5669 6.06878 11.5669 5.70023 11.8622 5.40539C12.133 5.11055 12.4283 4.84028 12.7236 4.54544C13.0435 4.2506 13.3635 4.2506 13.6834 4.54544C13.8311 4.66829 13.9541 4.79114 14.0772 4.93856C14.2494 5.15969 14.3725 5.15969 14.5694 4.96313C15.1354 4.37345 15.7015 3.80834 16.2921 3.24323C16.7105 2.82554 17.0304 2.82554 17.4488 3.24323C17.6949 3.48893 17.941 3.73463 18.1871 3.98033C18.2855 4.12775 18.384 4.27517 18.3594 4.44716Z" fill="black"/>
<path d="M17.4241 4.42259C17.3502 4.52087 17.301 4.57001 17.2518 4.59458C16.3166 5.52824 15.3814 6.4619 14.4462 7.42013C14.3232 7.54298 14.2493 7.51841 14.1509 7.42013C13.6833 6.9533 13.2403 6.48647 12.7727 6.04421C12.625 5.89679 12.6743 5.84765 12.7973 5.7248C13.2157 5.33168 13.1911 5.30711 13.6095 5.7248C13.7079 5.82308 13.7817 5.89679 13.8802 5.99507C14.2001 6.31448 14.4462 6.31448 14.7908 5.99507C15.4306 5.35625 16.0705 4.742 16.6857 4.07861C16.8088 3.95576 16.9072 3.93119 17.0303 4.07861C17.1287 4.20146 17.2764 4.29974 17.4241 4.42259Z" fill="#B2E49E"/>
</svg>
