<svg width="30" height="30" viewBox="0 0 30 30" fill="none" xmlns="http://www.w3.org/2000/svg">
<path d="M4.24001 4.50158C3.87916 4.41155 3.78894 4.23149 3.78894 3.87136C3.78894 3.33117 3.78894 2.79098 3.78894 2.25079C3.78894 1.26044 4.60086 0.630222 5.5932 0.900317C5.77363 0.900317 5.77363 0.900317 5.86384 0.810285C6.13448 0.270095 6.49533 0 7.12683 0C7.6681 0 8.11917 0.270095 8.38981 0.810285C8.38981 0.900317 8.48002 0.900317 8.57023 0.900317C9.56258 0.630222 10.3745 1.26044 10.3745 2.34082C10.3745 2.52089 10.3745 2.61092 10.3745 2.79098C11.457 2.61092 12.1788 3.15111 12.1788 4.23149C12.1788 6.48228 12.1788 8.73307 12.1788 10.9839C12.1788 11.9742 11.9983 12.8745 11.457 13.7748C11.006 14.4951 10.9158 15.3054 10.9158 16.2057C10.9158 16.2957 11.006 16.3858 11.0962 16.4758C11.3668 16.6559 11.457 16.8359 11.457 17.1961C11.457 18.1864 11.457 19.1767 11.457 20.2571C11.457 20.5272 11.3668 20.7073 11.1864 20.8874C11.0962 20.9774 11.0962 20.9774 11.0962 21.1574C11.6375 23.3182 11.5473 25.569 11.5473 27.7298C11.5473 28.1799 11.5473 28.54 11.5473 28.9902C11.5473 29.2603 11.3668 29.4404 11.1864 29.4404C10.9158 29.4404 10.7353 29.3503 10.7353 29.0802C10.7353 29.0802 10.7353 28.9902 10.6451 28.9902C10.6451 28.9002 10.6451 28.7201 10.6451 28.54C10.6451 27.5497 10.6451 26.5593 10.6451 25.569C10.6451 24.2185 10.5549 22.868 10.2843 21.6076C10.1941 21.1574 10.1941 21.1574 9.743 21.1574C9.29194 21.1574 8.84087 21.1574 8.48002 21.1574C8.11917 21.0674 8.02895 20.9774 8.02895 20.5272C8.11917 20.2571 8.29959 20.1671 8.66045 20.0771C9.11151 20.0771 9.56258 20.0771 10.0136 20.0771C10.6451 20.0771 10.6451 20.0771 10.6451 19.4468C10.6451 18.8166 10.6451 18.2764 10.6451 17.6462C10.6451 17.3761 10.6451 17.2861 10.2843 17.2861C8.38981 17.2861 6.58555 17.2861 4.69107 17.2861C4.60086 17.2861 4.51065 17.2861 4.42044 17.3761C4.33022 17.4661 4.33022 17.5562 4.33022 17.6462C4.33022 18.3665 4.33022 18.9967 4.33022 19.7169C4.33022 19.987 4.33022 20.0771 4.69107 20.0771C5.23235 20.0771 5.77363 20.0771 6.2247 20.0771C6.58555 20.0771 6.76597 20.2571 6.85619 20.6173C6.76597 20.9774 6.67576 21.0674 6.31491 21.0674C5.86384 21.0674 5.50299 21.0674 5.05193 21.0674C4.78129 21.0674 4.69107 21.1574 4.60086 21.4275C4.42044 22.5979 4.24001 23.6783 4.24001 24.8487C4.24001 26.1092 4.24001 27.2796 4.24001 28.54C4.24001 28.7201 4.24001 28.8101 4.1498 28.9902C4.05958 29.3503 3.87916 29.4404 3.60852 29.4404C3.33788 29.3503 3.24767 29.1703 3.24767 28.9002C3.24767 27.5497 3.24767 26.1992 3.24767 24.8487C3.24767 23.5883 3.42809 22.4179 3.69873 21.1574C3.69873 21.0674 3.69873 20.9774 3.60852 20.8874C3.42809 20.7073 3.33788 20.5272 3.33788 20.2571C3.33788 19.2668 3.33788 18.1864 3.33788 17.1961C3.33788 16.926 3.42809 16.6559 3.69873 16.5658C3.78894 16.4758 3.87916 16.3858 3.87916 16.2957C3.87916 15.9356 3.87916 15.4854 3.87916 15.1253C3.87916 14.7652 3.78895 14.4051 3.51831 14.225C2.43575 13.4147 1.98469 12.2443 1.71405 10.9839C1.62383 10.7138 1.62383 10.3536 1.53362 10.0835C1.44341 9.45333 1.17277 9.00317 0.631491 8.55301C0.451065 8.19288 0.180426 8.01282 0 7.65269C0 7.47263 0 7.3826 0 7.20253C0.360852 6.30222 1.71405 6.03212 2.52596 6.57231C2.97703 6.84241 3.33788 7.29257 3.78894 7.83276C3.78894 7.20253 3.78894 6.66234 3.78894 6.12215C3.78894 5.76203 3.87916 5.58196 4.24001 5.58196C4.51065 5.58196 4.69107 5.672 4.69107 6.03212C4.69107 6.30222 4.69107 6.48228 4.69107 6.75238C4.69107 7.47263 4.69107 8.19288 4.69107 8.91314C4.69107 9.36329 4.69107 9.36329 5.05193 9.45333C6.31491 9.81345 7.12683 10.8038 7.30725 12.0642C7.30725 12.4244 7.21704 12.6945 6.9464 12.7845C6.49533 12.7845 6.31491 12.6044 6.2247 12.2443C6.13448 11.7942 6.04427 11.344 5.68342 10.9839C5.41278 10.7138 5.05193 10.4437 4.69107 10.3536C4.05958 10.1736 3.69873 9.81345 3.42809 9.27326C3.15745 8.64304 2.70639 8.01282 2.0749 7.56266C1.89447 7.3826 1.62383 7.29257 1.35319 7.29257C1.26298 7.29257 1.17277 7.29257 1.08256 7.3826C1.08256 7.47263 1.17277 7.56266 1.17277 7.56266C1.53362 7.92279 1.89447 8.28291 2.0749 8.8231C2.25532 9.36329 2.43575 9.90348 2.52596 10.3536C2.70639 10.9839 2.7966 11.7041 3.15745 12.2443C3.33788 12.5144 3.51831 12.7845 3.78894 12.9646C4.42044 13.4147 4.69107 14.135 4.69107 14.8552C4.69107 15.1253 4.69107 15.3954 4.69107 15.6655C4.69107 15.9356 4.78129 15.9356 4.96171 15.9356C5.86384 15.9356 6.76597 15.9356 7.75832 15.9356C8.29959 15.9356 8.93108 15.9356 9.47236 15.9356H9.56258C9.92343 15.9356 9.92343 15.9356 9.92343 15.5755C9.92343 15.2154 9.92343 14.8552 10.0136 14.5851C10.1039 14.0449 10.3745 13.5048 10.6451 12.9646C11.006 12.3343 11.1864 11.7041 11.1864 10.9839C11.1864 8.64304 11.1864 6.39225 11.1864 4.05143C11.1864 3.51124 11.006 3.4212 10.6451 3.51124C10.4647 3.6913 10.4647 3.87136 10.4647 4.05143C10.4647 5.22184 10.4647 6.30222 10.4647 7.47263C10.4647 7.56266 10.4647 7.74272 10.4647 7.83276C10.4647 8.10285 10.1941 8.37295 9.92343 8.37295C9.65279 8.37295 9.47236 8.28291 9.38215 7.92279C9.38215 6.12215 9.38215 4.23149 9.38215 2.43086C9.38215 2.25079 9.38215 2.16076 9.38215 1.9807C9.29194 1.62057 9.0213 1.53054 8.75066 1.7106C8.57023 2.07073 8.57023 2.34082 8.57023 2.52089C8.57023 4.05143 8.57023 5.49193 8.57023 7.02247C8.57023 7.1125 8.57023 7.29257 8.57023 7.3826C8.57023 7.74272 8.38981 7.92279 8.11917 8.01282C7.84853 8.01282 7.6681 7.92279 7.57789 7.56266C7.57789 6.84241 7.57789 6.03212 7.57789 5.31187C7.57789 4.14146 7.57789 2.97105 7.57789 1.80063C7.57789 1.7106 7.57789 1.53054 7.57789 1.44051C7.48768 1.08038 7.30725 0.990348 6.9464 0.990348C6.67576 1.17041 6.67576 1.35048 6.67576 1.62057C6.67576 2.16076 6.67576 2.70095 6.67576 3.24114C6.67576 4.50158 6.67576 5.76203 6.67576 7.02247C6.67576 7.1125 6.67576 7.20253 6.67576 7.29257C6.67576 7.65269 6.49533 7.83276 6.2247 7.92279C5.95406 7.92279 5.77363 7.83276 5.5932 7.47263C5.5932 6.57231 5.5932 5.672 5.5932 4.68165C5.5932 3.87136 5.5932 3.15111 5.5932 2.34082C5.5932 1.9807 5.41278 1.80063 5.05193 1.80063C4.78129 1.89067 4.69107 2.16076 4.69107 2.43086C4.69107 2.88101 4.69107 3.33117 4.69107 3.78133C4.69107 3.87136 4.69107 4.05143 4.60086 4.14146C4.60086 4.41155 4.42044 4.59162 4.24001 4.50158Z" fill="black"/>
<path d="M18.1328 8.91312C17.8621 8.82309 17.6817 8.64303 17.6817 8.37293C17.6817 7.56265 17.6817 6.75236 17.6817 6.03211C17.6817 5.13179 18.4034 4.50157 19.3055 4.68163C19.486 4.68163 19.486 4.68163 19.486 4.50157C19.486 4.32151 19.486 4.14144 19.486 3.96138C19.6664 3.15109 20.3881 2.6109 21.2902 2.881C21.4707 2.881 21.4707 2.97103 21.5609 2.79097C21.8315 2.34081 22.1924 1.98068 22.8239 1.98068C23.3651 1.98068 23.8162 2.25078 24.0868 2.79097C24.177 2.881 24.177 2.97103 24.3575 2.881C25.3498 2.6109 26.1617 3.24113 26.1617 4.32151C26.1617 5.85204 26.1617 7.29255 26.1617 8.82309C26.1617 9.18322 26.1617 9.45331 26.1617 9.90347C26.5226 9.45331 26.7932 9.09319 27.2443 8.82309C27.966 8.2829 29.0485 8.2829 29.68 8.82309C30.0409 9.18322 30.1311 9.72341 29.7703 9.9935C28.7779 10.8038 28.5073 11.8842 28.2366 13.0546C28.0562 14.225 27.5149 15.3054 26.5226 16.0256C26.2519 16.2057 26.1617 16.5658 26.1617 16.9259C26.1617 18.0964 26.1617 19.2668 26.1617 20.4372C26.1617 20.6172 26.2519 20.7073 26.4324 20.6172C26.9736 20.5272 27.4247 20.8873 27.3345 21.5176C27.3345 21.9677 27.3345 22.4179 27.3345 22.868C27.3345 23.2282 27.1541 23.4983 26.8834 23.5883C26.7932 23.6783 26.703 23.6783 26.703 23.8584C26.703 24.0384 26.703 24.2185 26.703 24.3986C26.703 24.8487 26.6128 25.2089 26.4324 25.569C26.3422 25.749 26.3422 25.8391 26.4324 26.0191C26.703 26.3793 26.7932 26.8294 26.703 27.3696C26.703 27.9098 26.703 28.36 26.703 28.9002C26.703 29.2603 26.6128 29.4403 26.3422 29.4403C26.0715 29.4403 25.8911 29.3503 25.8009 28.9902C25.8009 28.9902 25.8009 28.9002 25.7107 28.9002C25.6205 28.36 25.7107 27.7297 25.7107 27.1896C25.7107 27.0095 25.7107 26.9195 25.6205 26.7394C25.5302 26.4693 25.44 26.2892 25.0792 26.3793C24.8085 26.3793 24.5379 26.3793 24.3575 26.3793C23.9966 26.3793 23.8162 26.1092 23.8162 25.8391C23.8162 25.569 23.9966 25.3889 24.3575 25.2989C24.6281 25.2989 24.8085 25.2989 25.0792 25.2989C25.44 25.2989 25.6205 25.2089 25.6205 24.7587C25.6205 24.4886 25.6205 24.2185 25.6205 23.9484C25.6205 23.8584 25.5302 23.7683 25.44 23.7683C25.3498 23.7683 25.2596 23.7683 25.1694 23.7683C24.989 23.6783 24.8085 23.5883 24.8085 23.3182C24.8085 22.868 24.989 22.778 25.6205 22.688C26.3422 22.688 26.2519 22.778 26.2519 21.9677C26.2519 21.5176 26.2519 21.5176 25.8009 21.5176C25.7107 21.5176 25.6205 21.5176 25.5302 21.5176C24.8085 21.5176 23.9966 21.5176 23.2749 21.5176C22.9141 21.5176 22.8239 21.5176 22.7336 21.9677C22.7336 22.1478 22.6434 22.2378 22.6434 22.4179C22.6434 22.5979 22.6434 22.688 22.8239 22.688C23.0043 22.688 23.1847 22.688 23.3651 22.778C23.5456 22.868 23.6358 23.0481 23.6358 23.2282C23.5456 23.5883 23.4553 23.7683 23.0945 23.7683C22.5532 23.6783 22.2826 23.8584 22.0119 24.4886C21.8315 25.0288 21.3804 25.569 20.9294 25.9291C20.5685 26.1992 20.4783 26.4693 20.4783 26.9195C20.4783 27.5497 20.4783 28.1799 20.3881 28.8101C20.3881 28.9002 20.3881 28.9902 20.2979 29.0802C20.2979 29.3503 20.1175 29.5304 19.8468 29.5304C19.5762 29.5304 19.486 29.3503 19.3958 29.0802C19.3958 29.0802 19.3958 28.9902 19.3055 28.9902C19.3055 28.45 19.2153 27.8198 19.3055 27.2796C19.3055 27.1896 19.3055 27.0995 19.3055 27.0095C19.2153 26.2892 19.5762 25.659 20.1175 25.2089C20.8392 24.6687 21.1098 23.9484 21.2902 23.1381C21.3804 22.688 21.4707 22.2378 21.5609 21.8777C21.7413 21.0674 22.1021 20.3471 22.6434 19.807C22.7336 19.7169 22.9141 19.6269 22.8239 19.4468C22.7336 19.2668 22.5532 19.2668 22.3728 19.2668C22.2826 19.2668 22.1924 19.2668 22.1924 19.2668C21.7413 19.4468 21.4707 19.807 21.1098 20.077C20.8392 20.4372 20.5685 20.7973 20.3881 21.2475C20.1175 21.7877 19.7566 22.1478 19.1251 22.2378C18.4936 22.4179 18.0426 22.778 17.7719 23.4082C17.6817 23.5883 17.5915 23.8584 17.5915 24.1285C17.5915 24.4886 17.2306 24.6687 17.0502 24.6687C16.7796 24.6687 16.5992 24.3986 16.5992 24.0384C16.6894 22.868 17.5013 21.7877 18.6741 21.3375C18.7643 21.3375 18.8545 21.2475 18.9447 21.2475C19.1251 21.1574 19.1251 21.0674 19.1251 20.9774C19.1251 20.8873 19.1251 20.7973 19.1251 20.7073C19.1251 18.7266 19.1251 16.6558 19.1251 14.6751C19.1251 14.4951 19.1251 14.4051 19.1251 14.225C19.0349 13.8649 18.8545 13.7748 18.4936 13.7748C18.3132 13.8649 18.3132 14.135 18.3132 14.315C18.3132 15.8456 18.3132 17.3761 18.3132 18.9066C18.3132 18.9967 18.3132 19.1767 18.3132 19.2668C18.3132 19.6269 18.1328 19.807 17.8621 19.807C17.5915 19.807 17.4111 19.7169 17.3209 19.3568C17.3209 19.1767 17.3209 19.0867 17.3209 18.9066C17.3209 17.196 17.3209 15.3954 17.3209 13.6848C17.3209 13.5047 17.3209 13.4147 17.3209 13.2346C17.2306 12.8745 17.0502 12.7845 16.6894 12.8745C16.5089 12.9645 16.4187 13.2346 16.4187 13.4147C16.4187 14.4951 16.4187 15.4854 16.4187 16.5658C16.4187 17.3761 16.4187 18.0964 16.4187 18.9066C16.4187 18.9967 16.4187 19.0867 16.4187 19.1767C16.4187 19.5369 16.2383 19.807 15.8775 19.807C15.6068 19.807 15.3362 19.5369 15.3362 19.1767C15.3362 17.6462 15.3362 16.0256 15.3362 14.4951C15.3362 14.4051 15.3362 14.225 15.3362 14.135C15.3362 13.7748 15.1558 13.5948 14.7047 13.6848C14.5243 13.8649 14.434 14.0449 14.434 14.315C14.434 16.0256 14.434 17.7362 14.434 19.4468C14.434 19.5369 14.434 19.7169 14.434 19.807C14.434 20.1671 14.2536 20.3471 13.983 20.4372C13.7123 20.5272 13.5319 20.3471 13.3515 19.987C13.2613 19.1767 13.3515 18.4565 13.3515 17.6462C13.3515 17.106 13.3515 16.5658 13.3515 16.0256C13.3515 15.6655 13.1711 15.5755 12.8102 15.6655C12.6298 15.8456 12.6298 16.0256 12.6298 16.2957C12.6298 18.4565 12.6298 20.5272 12.6298 22.688C12.6298 22.9581 12.6298 23.2282 12.72 23.5883C12.8102 24.0384 12.9004 24.5786 13.1711 24.9388C13.8026 26.1092 13.983 27.4596 13.983 28.8101C13.983 28.9002 13.8928 29.0802 13.8928 29.1702C13.8026 29.4403 13.6221 29.5304 13.3515 29.4403C13.0809 29.3503 12.9906 29.1702 12.9906 28.9002C12.9906 28.0899 12.9906 27.1896 12.72 26.3793C12.6298 26.1092 12.5396 25.8391 12.4494 25.569C11.9983 24.7587 11.8179 23.8584 11.8179 22.9581C11.8179 20.7073 11.8179 18.4565 11.8179 16.2057C11.8179 15.2153 12.4494 14.4051 13.6221 14.6751C13.6221 14.4951 13.6221 14.315 13.6221 14.135C13.6221 13.1446 14.5243 12.5144 15.4264 12.7845C15.5166 12.7845 15.6068 12.8745 15.697 12.6945C16.0579 11.9742 16.6894 11.7041 17.5013 11.8842C17.5013 11.434 17.5013 11.0739 17.5013 10.6237C17.5013 10.2636 17.5915 10.1736 17.9524 9.9935C18.3132 9.9935 18.4034 10.1736 18.4936 10.5337C18.4936 10.9839 18.4936 11.434 18.4936 11.7941C18.4936 12.0642 18.4034 12.3343 18.4936 12.5144C18.6741 12.6945 18.9447 12.6044 19.1251 12.6044C19.6664 12.6945 20.2077 13.1446 20.3881 13.7748C20.4783 14.0449 20.4783 14.225 20.4783 14.4951C20.4783 16.0256 20.4783 17.5562 20.4783 19.1767C20.4783 19.2668 20.4783 19.3568 20.4783 19.4468C20.749 19.1767 20.9294 18.9967 21.2 18.7266C21.8315 18.1864 22.463 18.0063 23.2749 18.2764C23.4553 18.3664 23.5456 18.3664 23.6358 18.4565C24.2673 18.9066 24.3575 19.5369 23.726 20.077C23.6358 20.1671 23.4553 20.3471 23.3651 20.4372C23.4553 20.5272 23.6358 20.4372 23.8162 20.5272C24.0868 20.5272 24.3575 20.5272 24.5379 20.5272C24.8085 20.5272 24.8988 20.4372 24.8988 20.1671C24.8988 19.2668 24.8988 18.4565 24.8988 17.5562C24.8988 17.196 24.8988 16.8359 24.989 16.4758C25.0792 15.9356 25.3498 15.4854 25.8009 15.1253C26.3422 14.6751 26.703 14.135 26.9736 13.4147C27.1541 12.8745 27.2443 12.3343 27.3345 11.7941C27.5149 10.9839 27.8758 10.1736 28.5073 9.63338L28.5975 9.54334C28.6877 9.45331 28.6877 9.36328 28.5073 9.27325C28.4171 9.27325 28.3268 9.27325 28.1464 9.27325C27.6954 9.27325 27.4247 9.54334 27.1541 9.81344C26.7932 10.2636 26.4324 10.7138 26.2519 11.2539C25.9813 11.7941 25.6205 12.2443 24.989 12.3343C24.0868 12.6044 23.6358 13.2346 23.5456 14.135C23.5456 14.315 23.5456 14.4951 23.3651 14.5851C23.1847 14.6751 23.0043 14.6751 22.8239 14.5851C22.6434 14.4951 22.463 14.225 22.5532 14.0449C22.6434 13.4147 22.8239 12.8745 23.1847 12.4244C23.5456 11.8842 24.0868 11.6141 24.7183 11.344C25.1694 11.1639 25.1694 11.1639 25.1694 10.7138C25.1694 9.00315 25.1694 7.29255 25.1694 5.67198C25.1694 5.22182 25.0792 4.68163 25.0792 4.14144C25.0792 3.78132 24.8988 3.69128 24.5379 3.69128C24.4477 3.87135 24.3575 4.05141 24.3575 4.32151C24.3575 5.22182 24.3575 6.12214 24.3575 7.02246C24.3575 7.65268 24.3575 8.2829 24.3575 8.91312C24.3575 9.00315 24.3575 9.09319 24.3575 9.27325C24.3575 9.54334 24.0868 9.72341 23.9064 9.81344C23.6358 9.81344 23.4553 9.72341 23.3651 9.45331C23.3651 9.27325 23.3651 9.18322 23.3651 9.00315C23.3651 7.20252 23.3651 5.49192 23.3651 3.69128C23.3651 3.51122 23.3651 3.33116 23.2749 3.24113C23.1847 2.97103 22.9141 2.881 22.6434 2.97103C22.463 3.15109 22.463 3.33116 22.463 3.60125C22.463 5.40189 22.463 7.20252 22.463 9.00315C22.463 9.09318 22.463 9.27325 22.463 9.36328C22.463 9.72341 22.2826 9.90347 21.9217 9.9935C21.6511 9.9935 21.4707 9.81344 21.3804 9.45331C21.3804 7.83274 21.3804 6.21217 21.3804 4.5916C21.3804 4.41154 21.3804 4.32151 21.3804 4.14144C21.2902 3.78132 21.1098 3.60125 20.749 3.78132C20.4783 3.96138 20.4783 4.14144 20.4783 4.41154C20.4783 5.49192 20.4783 6.5723 20.4783 7.65268C20.4783 8.2829 20.4783 9.00315 20.4783 9.63338C20.4783 9.72341 20.4783 9.81344 20.4783 9.90347C20.4783 10.2636 20.2979 10.4437 20.0273 10.5337C19.7566 10.5337 19.5762 10.3536 19.486 9.9935C19.486 8.82309 19.486 7.56265 19.486 6.39223C19.486 6.3022 19.486 6.12214 19.486 6.03211C19.486 5.67198 19.2153 5.49192 18.8545 5.67198C18.6741 5.85204 18.6741 6.03211 18.6741 6.21217C18.6741 6.93242 18.6741 7.65268 18.6741 8.37293C18.6741 8.553 18.6741 8.73306 18.5838 8.82309C18.4936 8.91312 18.3132 9.00315 18.1328 8.91312Z" fill="black"/>
<path d="M19.1252 21.4275C18.1329 21.7877 17.5014 22.5079 17.3209 23.4983C17.2307 23.6783 17.2307 23.9484 17.2307 24.1285C17.2307 24.3986 17.4112 24.5786 17.6818 24.5786C17.9524 24.5786 18.0426 24.3986 18.1329 24.1285C18.2231 22.9581 18.7643 22.4179 19.8469 22.1478C20.298 22.0577 20.6588 21.6976 20.8392 21.2475C21.1099 20.6172 21.5609 19.987 22.1022 19.4468C22.2827 19.2668 22.4631 19.0867 22.7337 19.0867C23.0044 19.0867 23.0946 19.0867 23.0044 19.3568C22.9141 19.4468 22.9141 19.5369 22.8239 19.6269C22.6435 19.807 22.5533 19.987 22.3729 20.0771C22.012 20.4372 21.8316 20.8873 21.6512 21.3375C21.5609 21.9677 21.3805 22.5979 21.2001 23.1381C20.9295 23.8584 20.5686 24.4886 19.9371 24.9388C19.4861 25.2989 19.3056 25.749 19.3056 26.2892C19.3056 26.9195 19.3056 27.6397 19.3056 28.2699C19.3056 28.6301 19.3056 28.6301 19.6665 28.7201C19.6665 28.7201 19.7567 28.7201 19.7567 28.8101C19.7567 28.8101 19.7567 28.8101 19.7567 28.9002C18.0426 28.9002 16.4188 28.9002 14.7048 28.9002C14.6145 28.9002 14.4341 28.9002 14.3439 28.9902C14.4341 27.7297 14.3439 26.5593 13.8928 25.3889C13.7124 24.8487 13.3516 24.3986 13.2614 23.8584C13.1711 23.4983 13.1711 23.2282 13.1711 22.868C13.1711 20.6172 13.1711 18.2764 13.1711 16.0256C13.1711 15.8456 13.1711 15.5755 13.3516 15.4854C13.532 15.6655 13.532 15.9356 13.532 16.1157C13.532 17.016 13.532 17.9163 13.532 18.8166C13.532 19.2668 13.6222 19.6269 14.0733 19.897C14.1635 20.2571 14.3439 20.3471 14.6146 20.2571C14.8852 20.1671 14.9754 19.987 14.9754 19.7169C14.9754 17.8263 14.9754 15.9356 14.9754 14.0449C14.9754 13.7748 14.9754 13.5948 15.246 13.5047C15.4265 13.5047 15.4265 13.6848 15.4265 13.7748C15.3363 14.0449 15.3363 14.225 15.3363 14.4051C15.3363 15.6655 15.3363 17.016 15.3363 18.2764C15.3363 18.7266 15.4265 18.9967 15.7873 19.1767C15.7873 19.5369 15.9677 19.7169 16.2384 19.7169C16.509 19.7169 16.6894 19.5369 16.6894 19.1767C16.6894 17.196 16.6894 15.3054 16.6894 13.3247C16.6894 13.0546 16.6894 12.8745 16.9601 12.7845C17.2307 12.9645 17.2307 13.2346 17.2307 13.5047C17.2307 13.9549 17.2307 14.315 17.2307 14.7652C17.2307 15.9356 17.2307 17.196 17.2307 18.3664C17.2307 18.8166 17.3209 19.1767 17.6818 19.2668C17.772 19.5369 17.9524 19.6269 18.2231 19.6269C18.4937 19.5369 18.5839 19.3568 18.5839 19.0867C18.5839 17.4661 18.5839 15.7555 18.5839 14.135C18.5839 13.8649 18.5839 13.6848 18.8546 13.5948C19.035 13.6848 19.035 13.7748 19.035 13.9549C19.035 14.0449 19.035 14.225 19.035 14.4051C19.035 16.5658 19.035 18.7266 19.035 20.9774C19.2154 21.0674 19.2154 21.2475 19.1252 21.4275Z" fill="#FED8C3"/>
<path d="M5.68336 7.38261C5.77358 7.83276 6.04422 7.9228 6.31486 7.83276C6.49528 7.74273 6.49528 7.47264 6.49528 7.29257C6.49528 5.40191 6.49528 3.51124 6.49528 1.62058C6.49528 1.35048 6.49528 1.08039 6.85613 0.990356C7.03656 1.08039 7.03656 1.26045 7.12677 1.44051C7.21698 1.53055 7.21698 1.71061 7.21698 1.80064C7.21698 3.42121 7.21698 4.95175 7.21698 6.57232C7.21698 6.93245 7.3072 7.29257 7.66805 7.47264C7.66805 7.83276 7.84848 7.9228 8.11911 7.9228C8.38975 7.9228 8.47997 7.74273 8.47997 7.38261C8.47997 5.672 8.47997 4.05143 8.47997 2.34083C8.47997 2.16077 8.47997 1.89067 8.75061 1.80064C8.93103 1.80064 8.93103 1.89067 9.02124 1.9807C9.02124 2.16077 9.02124 2.34083 9.02124 2.52089C9.02124 3.9614 9.02124 5.40191 9.02124 6.84242C9.02124 7.38261 8.93103 7.9228 9.47231 8.19289C9.56252 8.46299 9.74295 8.64305 10.0136 8.55302C10.2842 8.46299 10.3744 8.28292 10.3744 8.01283C10.3744 6.75238 10.3744 5.49194 10.3744 4.14147C10.3744 3.9614 10.3744 3.78134 10.6451 3.69131C10.8255 3.69131 10.8255 3.78134 10.8255 3.87137C10.8255 4.05143 10.9157 4.32153 10.9157 4.50159C10.9157 5.672 10.9157 6.93245 10.9157 8.10286C10.9157 8.91314 10.9157 9.72343 10.9157 10.5337C10.9157 10.9839 10.9157 11.434 10.8255 11.8842C10.7353 12.4244 10.6451 12.9646 10.3744 13.4147C9.92337 14.225 9.74295 15.0353 9.65273 15.9356C9.65273 16.0256 9.65274 16.2057 9.56252 16.2957C8.0289 16.2957 6.49528 16.2957 4.87145 16.2957C4.69102 16.2957 4.69102 16.2057 4.69102 16.1157C4.69102 15.6655 4.69102 15.2154 4.69102 14.6752C4.69102 14.135 4.42038 13.6848 4.05953 13.4147C3.1574 12.6945 2.79655 11.7942 2.61612 10.7138C2.52591 10.4437 2.52591 10.0836 2.4357 9.81346C2.25527 9.00317 1.80421 8.28292 1.0825 7.6527C0.902077 7.47264 0.902077 7.38261 1.26293 7.29257C1.62378 7.20254 1.89442 7.29257 2.25527 7.47264C2.88676 7.9228 3.33783 8.55302 3.60847 9.27327C3.8791 9.90349 4.23996 10.2636 4.87145 10.3537C5.68336 10.5337 6.22464 11.254 6.31486 12.2443C6.31486 12.6044 6.58549 12.7845 6.85613 12.6945C7.12677 12.6044 7.21698 12.4244 7.21698 12.1543C7.12677 10.8938 6.22464 9.81346 5.05187 9.54337C4.78123 9.45333 4.69102 9.3633 4.69102 9.09321C4.69102 8.19289 4.69102 7.20254 4.69102 6.30223C4.69102 5.9421 4.60081 5.85207 4.23996 5.76204C4.23996 5.40191 4.23996 4.95175 4.23996 4.59162C4.60081 4.59162 4.69102 4.32153 4.69102 4.05143C4.69102 3.51124 4.69102 2.97105 4.69102 2.43086C4.69102 2.16077 4.78123 1.89067 5.05187 1.89067C5.2323 2.07074 5.2323 2.34083 5.2323 2.52089C5.2323 3.78134 5.2323 5.04178 5.2323 6.30223C5.2323 6.39226 5.2323 6.48229 5.2323 6.66235C5.2323 6.84242 5.32251 7.20254 5.68336 7.38261Z" fill="#FED8C3"/>
<path d="M23.5456 20.4372C23.726 20.2571 23.9064 20.0771 24.0869 19.807C24.4477 19.4468 24.4477 18.9067 24.0869 18.5465C23.4554 18.0964 22.5532 18.0063 21.7413 18.5465C21.3805 18.8166 21.0196 19.1768 20.749 19.4468C20.6588 19.5369 20.6588 19.5369 20.5686 19.7169C20.5686 19.5369 20.5686 19.4468 20.5686 19.3568C20.5686 17.6462 20.5686 15.9356 20.5686 14.225C20.5686 13.7749 20.3881 13.3247 20.0273 12.9646C19.6664 12.6945 19.2154 12.6044 18.8545 12.6945C18.6741 12.7845 18.6741 12.6945 18.6741 12.5144C18.6741 11.8842 18.6741 11.254 18.6741 10.6237C18.6741 10.2636 18.5839 10.0836 18.223 9.99353C18.223 9.6334 18.223 9.18324 18.223 8.82311C18.5839 8.73308 18.6741 8.64305 18.6741 8.28292C18.6741 7.47264 18.6741 6.75238 18.6741 5.9421C18.6741 5.76204 18.6741 5.58197 18.8545 5.49194C19.0349 5.49194 19.0349 5.58197 19.0349 5.76204C19.1252 5.9421 19.1252 6.12216 19.1252 6.21219C19.1252 7.11251 19.1252 8.01283 19.1252 9.00318C19.1252 9.45333 19.2154 9.72343 19.5762 9.90349C19.6664 10.2636 19.8469 10.3537 20.1175 10.3537C20.3881 10.3537 20.4783 10.1736 20.4783 9.81346C20.4783 7.9228 20.4783 6.03213 20.4783 4.14147C20.4783 3.87137 20.4783 3.69131 20.749 3.60128C20.9294 3.60128 20.9294 3.69131 20.9294 3.78134C21.0196 3.9614 21.0196 4.14147 21.0196 4.32153C21.0196 5.672 21.0196 7.02248 21.0196 8.28292C21.0196 8.64305 21.1098 9.00318 21.4707 9.09321L21.5609 9.18324C21.6511 9.54337 21.8315 9.6334 22.012 9.6334C22.2826 9.6334 22.463 9.45334 22.463 9.09321C22.463 7.11251 22.463 5.22185 22.463 3.24115C22.463 3.06109 22.463 2.79099 22.7337 2.70096C22.9141 2.61093 22.9141 2.79099 23.0043 2.88102C23.0945 3.06109 23.0945 3.33118 23.0945 3.51124C23.0945 5.04178 23.0945 6.66235 23.0945 8.19289C23.0945 8.64305 23.0945 9.00318 23.5456 9.27327C23.6358 9.54337 23.8162 9.6334 24.0869 9.54337C24.3575 9.45334 24.4477 9.27327 24.4477 9.00318C24.4477 7.38261 24.4477 5.672 24.4477 4.05143C24.4477 3.78134 24.5379 3.51124 24.8086 3.51124C24.8988 3.60128 24.8988 3.69131 24.989 3.78134C24.989 3.87137 24.989 3.9614 24.989 3.9614C24.989 6.21219 25.0792 8.46299 25.0792 10.7138C25.0792 10.8938 25.0792 11.0739 24.989 11.254C24.0869 11.6141 23.4554 12.2443 23.1847 13.1446C23.0945 13.4147 23.0043 13.6848 23.0043 13.9549C23.0043 14.225 23.1847 14.4051 23.4554 14.4051C23.726 14.4051 23.9064 14.225 23.9064 13.9549C23.9967 12.8745 24.5379 12.2443 25.5303 11.9742C26.0715 11.8842 26.3422 11.5241 26.6128 11.0739C26.9737 10.3537 27.4247 9.6334 28.0562 9.18324C28.2367 9.00318 28.4171 8.91314 28.6877 8.91314C28.7779 9.00318 28.6877 9.00318 28.6877 9.09321C28.6877 9.18324 28.5975 9.18324 28.5073 9.27327C27.6954 9.90349 27.3345 10.8038 27.1541 11.7942C27.0639 12.3343 26.8835 12.8745 26.703 13.4147C26.4324 14.0449 26.0715 14.5851 25.5303 14.9453C25.0792 15.3054 24.8988 15.7556 24.8988 16.2957C24.8988 17.4662 24.8988 18.6366 24.8988 19.807C24.8988 20.2571 24.8988 20.2571 24.4477 20.2571C24.2673 20.2571 24.0869 20.2571 23.9064 20.2571C23.6358 20.5272 23.5456 20.5272 23.5456 20.4372Z" fill="#D88455"/>
<path d="M10.7353 28.9002C10.4647 28.9002 10.1038 28.9902 9.8332 28.9902C7.93873 28.9902 6.04425 28.9902 4.14978 28.9902C4.14978 27.4597 4.14978 26.0192 4.14978 24.4886C4.14978 23.4082 4.33021 22.3279 4.60085 21.2475C4.60085 21.0674 4.69106 20.9774 4.87148 20.9774C5.32255 20.9774 5.77361 20.9774 6.31489 20.9774C6.58553 20.9774 6.76596 20.8874 6.85617 20.5272C6.94638 20.4372 7.0366 20.4372 7.12681 20.4372C7.39745 20.4372 7.7583 20.4372 8.02894 20.4372C8.02894 20.7073 8.11915 20.8874 8.38979 20.9774C8.66043 20.9774 8.93107 20.9774 9.29192 20.9774C9.56256 20.9774 9.65277 21.0674 9.74299 21.3375C9.92341 22.0578 10.0136 22.778 10.1038 23.4983C10.194 25.1188 10.1038 26.7394 10.194 28.45C10.194 28.8101 10.194 28.8101 10.5549 28.8101C10.4647 28.8101 10.6451 28.8101 10.7353 28.9002Z" fill="#5E5D5D"/>
<path d="M25.1695 25.2989C24.8988 25.2989 24.7184 25.2989 24.4478 25.2989C24.1771 25.2989 23.9967 25.479 23.9967 25.7491C23.9967 26.0192 24.1771 26.1992 24.4478 26.1992C24.7184 26.1992 24.8988 26.1992 25.1695 26.1992C25.4401 26.3793 25.4401 26.6494 25.4401 26.9195C25.4401 27.3696 25.4401 27.9098 25.4401 28.36C25.4401 28.6301 25.4401 28.8101 25.801 28.9002C25.801 28.9002 25.801 28.9002 25.801 28.9902C24.0869 28.9902 22.2827 28.9902 20.5686 28.9902C20.5686 28.27 20.5686 27.4597 20.5686 26.7394C20.5686 26.3793 20.749 26.1092 21.0197 25.9291C21.6512 25.3889 22.1924 24.7587 22.4631 23.9484C22.5533 23.7684 22.5533 23.7684 22.7337 23.7684C22.9141 23.7684 23.0946 23.7684 23.275 23.7684C23.6358 23.7684 23.8163 23.6783 23.9065 23.3182C24.2673 23.2282 24.7184 23.1381 25.0793 23.4082C25.0793 23.5883 25.2597 23.6783 25.3499 23.7684C25.4401 23.7684 25.5303 23.8584 25.5303 23.9484C25.5303 24.3086 25.6205 24.6687 25.5303 25.0288C25.3499 25.0288 25.2597 25.2089 25.1695 25.2989Z" fill="#46DDF1"/>
<path d="M8.02893 20.4372C7.93872 20.5272 7.84851 20.5272 7.7583 20.5272C7.48766 20.5272 7.12681 20.5272 6.85617 20.5272C6.76595 20.1671 6.67574 20.0771 6.22468 20.0771C5.6834 20.0771 5.05191 20.0771 4.51063 20.0771C4.3302 20.0771 4.23999 20.0771 4.23999 19.897C4.23999 18.9967 4.23999 18.0964 4.23999 17.1961C4.3302 17.106 4.42042 17.1961 4.51063 17.1961C6.22468 17.1961 7.93872 17.1961 9.65277 17.1961C10.0136 17.1961 10.0136 17.1961 10.0136 17.5562C10.0136 18.2764 10.0136 18.9967 10.0136 19.807C10.0136 19.897 10.0136 20.0771 9.92341 20.1671C9.47234 20.1671 9.02128 20.1671 8.57021 20.1671C8.29957 20.0771 8.11915 20.1671 8.02893 20.4372Z" fill="#707070"/>
<path d="M9.56262 16.2957C9.56262 15.4854 9.65284 14.6751 10.0137 13.9549C10.1941 13.5047 10.4648 13.1446 10.6452 12.6044C10.7354 12.2443 10.8256 11.7941 10.8256 11.434C10.8256 10.9839 10.9158 10.5337 10.9158 10.0835C10.9158 8.19287 10.9158 6.39224 10.9158 4.50157C10.9158 4.32151 10.9158 4.05141 10.8256 3.87135C10.8256 3.78132 10.7354 3.78132 10.7354 3.69128C11.0962 3.51122 11.4571 3.69128 11.4571 4.14144C11.4571 4.5916 11.4571 4.95173 11.4571 5.40189C11.4571 7.29255 11.4571 9.27325 11.4571 11.1639C11.4571 11.8842 11.2767 12.6044 10.9158 13.3247C10.4648 14.135 10.1941 15.0353 10.1941 15.9356C10.1941 16.3858 10.2843 16.2957 9.83326 16.2957C9.65283 16.2957 9.56262 16.2957 9.56262 16.2957Z" fill="#FEC1AA"/>
<path d="M10.7353 28.9002C10.4647 28.9002 10.194 28.9902 10.0136 28.8101C9.92339 28.6301 10.0136 28.36 10.0136 28.0899C10.0136 26.8294 10.0136 25.569 10.0136 24.3085C10.0136 23.2282 9.83318 22.2378 9.65275 21.2475C9.65275 21.0674 9.47232 20.9774 9.2919 20.9774C9.02126 20.9774 8.75062 21.0674 8.47998 20.9774C9.02126 20.9774 9.56254 20.9774 10.1038 20.9774C10.2842 20.9774 10.3745 21.0674 10.3745 21.2475C10.5549 22.1478 10.7353 23.0481 10.7353 23.9484C10.7353 25.479 10.7353 27.1896 10.7353 28.9002Z" fill="#4F4D4D"/>
<path d="M9.56253 8.19288C9.02125 8.01282 9.02125 7.92279 9.02125 7.29257C9.02125 5.672 9.02125 3.96139 9.02125 2.34082C9.02125 2.16076 9.02125 1.89067 8.75061 1.80063C9.20168 1.53054 9.56253 1.80063 9.56253 2.25079C9.56253 3.33117 9.56253 4.32152 9.56253 5.4019C9.56253 6.39225 9.56253 7.29257 9.56253 8.19288Z" fill="#FDC1AA"/>
<path d="M7.5779 7.47264C7.21705 7.47264 7.12684 7.29257 7.12684 6.93245C7.12684 5.22184 7.12684 3.42121 7.12684 1.71061C7.12684 1.44051 7.03662 1.17042 6.94641 0.900324C7.30726 0.810292 7.66812 0.990355 7.66812 1.35048C7.5779 3.42121 7.5779 5.49194 7.5779 7.47264Z" fill="#FEC1AA"/>
<path d="M5.68337 7.38259C5.32252 7.38259 5.14209 7.20253 5.14209 6.66234C5.14209 5.31186 5.14209 3.96139 5.14209 2.61091C5.14209 2.34082 5.14209 1.98069 5.05188 1.7106C5.41273 1.62056 5.68337 1.89066 5.68337 2.25079C5.68337 2.97104 5.68337 3.69129 5.68337 4.41155C5.68337 5.40189 5.68337 6.39224 5.68337 7.38259Z" fill="#FEC1AA"/>
<path d="M9.92341 20.0771C9.92341 19.1767 9.92341 18.3665 9.92341 17.4661C9.92341 17.196 9.83319 17.1961 9.65277 17.1961C7.84851 17.1961 6.04425 17.1961 4.23999 17.1961C4.3302 17.106 4.42042 17.106 4.51063 17.106C6.49531 17.106 8.38979 17.106 10.3745 17.106C10.6451 17.106 10.6451 17.196 10.6451 17.4661C10.6451 18.2764 10.6451 18.9967 10.6451 19.807C10.6451 20.0771 10.5549 20.1671 10.3745 20.0771C10.194 20.0771 10.0136 20.0771 9.92341 20.0771Z" fill="#5E5D5D"/>
<path d="M23.5455 20.4372C23.8162 20.5272 24.177 20.5272 24.4477 20.5272C24.6281 20.5272 24.5379 20.3472 24.5379 20.2571C24.5379 18.9967 24.5379 17.8263 24.5379 16.5658C24.5379 16.4758 24.5379 16.2957 24.5379 16.2057C24.6281 15.8456 24.8085 15.4854 25.1694 15.2154C25.8008 14.7652 26.2519 14.0449 26.4323 13.3247C26.6128 12.6945 26.703 11.9742 26.8834 11.344C27.0638 10.7138 27.3345 10.2636 27.6953 9.81345C27.8757 9.63339 28.1464 9.45332 28.2366 9.18323C28.3268 9.18323 28.3268 9.18323 28.417 9.18323C28.5974 9.18323 28.8681 9.18323 28.8681 9.36329C28.9583 9.54335 28.6877 9.63339 28.5974 9.72342C27.7855 10.4437 27.5149 11.344 27.3345 12.3343C27.2443 12.6945 27.154 13.1446 27.0638 13.5047C26.8834 14.225 26.5225 14.7652 25.9813 15.2154C25.44 15.6655 25.1694 16.2957 25.1694 17.016C25.1694 18.1864 25.1694 19.2668 25.1694 20.4372C25.1694 20.6173 25.1694 20.7073 24.8987 20.7073C24.4477 20.7073 23.9966 20.7073 23.5455 20.7073C23.5455 20.5272 23.3651 20.6173 23.5455 20.4372Z" fill="#D1794F"/>
<path d="M19.5762 28.9002C19.0349 28.9002 19.0349 28.9002 19.0349 28.36C19.0349 27.7298 19.0349 27.0995 19.0349 26.3793C19.0349 25.7491 19.3056 25.2989 19.7566 24.9388C20.4783 24.3986 20.8392 23.6783 21.0196 22.778C21.1098 22.2378 21.2902 21.7877 21.3804 21.2475C21.4707 20.7973 21.6511 20.4372 22.0119 20.1671C22.2826 19.897 22.5532 19.7169 22.7336 19.3568C22.8239 19.1767 22.8239 19.0867 22.5532 19.0867C22.8239 18.9967 23.0043 18.9967 23.2749 19.1767C23.3651 19.2668 23.4553 19.2668 23.2749 19.3568C22.2826 20.1671 21.9217 21.2475 21.7413 22.4179C21.6511 22.778 21.5609 23.1381 21.4707 23.4082C21.2902 24.0385 20.9294 24.4886 20.4783 24.9388C19.8468 25.3889 19.5762 26.0191 19.5762 26.8294C19.6664 27.5497 19.6664 28.1799 19.5762 28.9002Z" fill="#FEC1AA"/>
<path d="M19.1251 21.4275C19.1251 18.9967 19.1251 16.5658 19.1251 14.135C19.1251 13.9549 19.1251 13.7749 19.0349 13.5948C19.3958 13.4147 19.7566 13.6848 19.7566 14.0449C19.7566 14.135 19.7566 14.225 19.7566 14.315C19.7566 16.4758 19.7566 18.6366 19.7566 20.7073C19.7566 21.2475 19.8468 21.1575 19.3056 21.2475C19.2153 21.3375 19.1251 21.3375 19.1251 21.4275Z" fill="#FDC1AA"/>
<path d="M24.8086 11.434C24.8086 10.5337 24.8086 9.54337 24.8086 8.64306C24.8086 7.11252 24.7184 5.58198 24.7184 3.96141C24.7184 3.87138 24.7184 3.69131 24.6282 3.60128C24.989 3.51125 25.2597 3.69131 25.2597 4.05144C25.2597 4.5016 25.2597 4.95176 25.2597 5.49195C25.2597 7.20255 25.2597 9.00318 25.2597 10.7138C25.3499 11.344 25.4401 11.254 24.8086 11.434Z" fill="#CA6C49"/>
<path d="M24.8988 23.2282C24.5379 23.1381 24.0869 23.2282 23.726 23.1381C23.6358 22.778 23.5456 22.688 23.0945 22.688C22.6435 22.688 22.6435 22.688 22.7337 22.2378C22.8239 21.9677 22.8239 21.7877 22.9141 21.5176C22.9141 21.4275 23.0043 21.3375 23.0945 21.3375C23.9064 21.3375 24.8086 21.3375 25.6205 21.3375C25.8009 21.7877 25.8009 22.2378 25.6205 22.598C25.5303 22.598 25.3498 22.598 25.2596 22.598C25.0792 22.868 24.8988 23.0481 24.8988 23.2282Z" fill="#31CAF3"/>
<path d="M17.772 19.3568C17.3209 19.3568 17.2307 19.1767 17.2307 18.7266C17.2307 17.016 17.2307 15.3954 17.2307 13.6848C17.2307 13.3247 17.1405 13.0546 17.0503 12.7845C17.5014 12.6044 17.772 12.8745 17.772 13.3247C17.772 15.2153 17.772 17.106 17.772 18.9967C17.772 19.1767 17.772 19.2668 17.772 19.3568Z" fill="#FDC1AA"/>
<path d="M23.4553 9.45333C23.0043 9.3633 22.9141 9.27326 22.9141 8.73307C22.9141 7.02247 22.9141 5.22184 22.9141 3.51124C22.9141 3.24114 22.9141 2.97105 22.6434 2.88102C23.0043 2.70095 23.3651 2.79098 23.4553 3.24114C23.4553 3.33117 23.4553 3.42121 23.4553 3.51124C23.4553 5.49193 23.4553 7.47263 23.4553 9.45333Z" fill="#C96C48"/>
<path d="M21.4707 9.36328C20.9294 9.18322 20.9295 9.09318 20.9295 8.553C20.9295 7.11249 20.9295 5.67198 20.9295 4.32151C20.9295 4.14144 20.9294 3.87135 20.749 3.69128C21.2001 3.51122 21.5609 3.69128 21.5609 4.14144C21.4707 5.85204 21.4707 7.65268 21.4707 9.36328Z" fill="#CA6C49"/>
<path d="M15.8775 19.2668C15.4264 19.2668 15.3362 19.0867 15.3362 18.7266C15.3362 17.2861 15.3362 15.8456 15.3362 14.315C15.3362 14.0449 15.246 13.8649 15.1558 13.6848C15.5166 13.5048 15.8775 13.6848 15.8775 14.135C15.8775 15.7555 15.8775 17.5562 15.8775 19.2668Z" fill="#FEC1AA"/>
<path d="M19.5762 9.99353C19.1251 9.99353 19.0349 9.81347 19.0349 9.36331C19.0349 8.28293 19.0349 7.20255 19.0349 6.12217C19.0349 5.94211 19.0349 5.67201 18.8545 5.49195C18.9447 5.40192 19.1251 5.49195 19.3056 5.49195C19.486 5.58198 19.5762 5.76204 19.5762 5.94211C19.5762 7.29258 19.5762 8.64306 19.5762 9.99353Z" fill="#CA6D49"/>
<path d="M13.8928 19.987C13.4418 19.897 13.3516 19.7169 13.3516 19.2668C13.3516 18.3665 13.3516 17.3761 13.3516 16.4758C13.3516 16.1157 13.3516 15.8456 13.2614 15.5755C13.6222 15.3954 13.9831 15.5755 13.9831 15.9356C13.9831 17.2861 13.9831 18.6366 13.8928 19.987Z" fill="#FEC1AA"/>
<path d="M25.8009 28.9002C25.3499 28.9002 25.3499 28.9002 25.3499 28.54C25.3499 28.0899 25.3499 27.6397 25.3499 27.1896C25.3499 26.8294 25.2596 26.5593 25.0792 26.2892C25.4401 26.2892 25.7107 26.5593 25.7107 26.9195C25.8009 27.5497 25.8009 28.1799 25.8009 28.9002Z" fill="#31CAF3"/>
<path d="M25.6205 22.778C25.6205 22.3279 25.6205 21.8777 25.6205 21.5176C26.3422 21.4275 26.3422 21.4275 26.3422 22.2378C26.3422 22.868 26.3422 22.868 25.7107 22.868C25.7107 22.778 25.7107 22.778 25.6205 22.778Z" fill="#2AB8F1"/>
<path d="M25.1694 25.2989C25.5303 24.8487 25.3499 24.3086 25.4401 23.7684C25.4401 23.6783 25.3499 23.6783 25.3499 23.5883C25.8911 23.5883 25.8911 23.5883 25.8911 24.1285C25.8911 24.3986 25.8911 24.6687 25.8009 24.9388C25.5303 25.2989 25.4401 25.3889 25.1694 25.2989Z" fill="#31C9F2"/>
</svg>
