<svg width="51" height="60" viewBox="0 0 51 60" fill="none" xmlns="http://www.w3.org/2000/svg">
<path d="M1.88413 49.0398C1.18094 48.6183 1.08718 48.3372 1.36845 47.5878C2.35293 44.8712 4.32187 43.2787 7.08777 42.623C10.6506 41.7799 14.2135 40.9368 17.7763 40.0937C18.1514 40 18.3389 39.8595 18.3389 39.4379C18.3858 38.2201 18.5264 37.0492 18.667 35.8314C18.7139 35.5035 18.6202 35.3162 18.3858 35.082C15.9011 33.0679 14.1197 30.5855 13.0415 27.5878C12.9477 27.3068 12.8071 27.1663 12.4321 27.2131C9.43176 27.3536 7.13465 24.4496 7.97849 21.3115C8.21288 20.4684 8.68168 19.8126 9.43176 19.4379C9.75991 19.2506 9.85367 19.0632 9.85367 18.7354C9.85367 16.6276 9.85367 14.4731 9.85367 12.3653C9.85367 9.74239 10.9319 7.58782 13.0884 6.08899C13.4634 5.80796 13.4165 5.71429 13.1352 5.48009C11.9164 4.2623 11.2601 2.8103 11.2132 1.07728C11.2132 0.374707 11.4945 0 12.2445 0C17.12 0 21.9955 0 26.8241 0C27.3398 0 27.7148 0.234192 27.8086 0.749415C27.9492 1.35831 27.7148 1.73302 27.0585 1.8267C26.7772 1.87354 26.4491 1.87354 26.1678 1.87354C22.2768 1.87354 18.3858 1.87354 14.4948 1.87354C14.3072 1.87354 14.1666 1.87354 13.9791 1.87354C13.3696 1.87354 13.2759 2.01405 13.5103 2.62295C13.8853 3.46604 14.4948 4.12178 15.198 4.68384C15.3386 4.82436 15.5261 4.91803 15.6667 5.01171C16.4168 5.62061 16.3231 6.4637 15.4792 6.88525C15.0573 7.11944 14.6354 7.25995 14.2604 7.54098C12.6665 8.66511 11.8226 10.2108 11.7757 12.1311C11.7289 14.1452 11.7757 16.1593 11.7757 18.1733C11.7757 18.4543 11.682 18.7354 12.0101 18.8759C12.3383 19.0164 12.5258 18.7822 12.7133 18.5948C13.3228 18.0328 13.8853 17.4239 14.3541 16.7682C15.0573 15.8314 15.2448 14.7073 15.3855 13.5831C15.4792 12.9274 15.5261 12.2248 15.6667 11.5691C15.8074 10.5386 16.3231 10.2108 17.3544 10.3981C20.0266 10.9602 22.7456 11.1944 25.5115 11.1944C27.7617 11.1475 30.0119 10.9602 32.2153 10.5386C32.4965 10.4918 32.7309 10.445 33.0122 10.3981C33.8092 10.2576 34.3249 10.6323 34.4655 11.4286C34.6061 12.3185 34.7468 13.2084 34.7937 14.0984C34.9343 15.5504 35.5437 16.7213 36.5282 17.7049C36.8564 18.0796 37.2314 18.4543 37.6064 18.7822C37.9815 19.0632 38.3565 18.9227 38.3565 18.5012C38.3096 15.8314 38.5909 13.1148 37.9815 10.445C37.6064 8.85246 36.997 7.40047 35.9656 6.13583C35.825 5.94848 35.6375 5.76112 35.5906 5.48009C35.4968 5.05855 35.45 4.68384 35.9188 4.44965C36.7157 4.16862 36.997 4.21546 37.4658 4.82436C39.1535 6.88525 39.9973 9.32084 40.2786 11.9438C40.513 14.192 40.3723 16.4871 40.4192 18.7354C40.4192 18.9696 40.3255 19.2037 40.6536 19.3443C42.2944 20.0937 42.7163 21.9672 42.3413 23.6066C41.8725 25.8548 40.1848 27.2131 37.8408 27.2131C37.5127 27.2131 37.372 27.3068 37.2314 27.5878C36.1532 30.5855 34.3249 33.0679 31.8871 35.082C31.6058 35.3162 31.559 35.5035 31.6058 35.8314C31.7465 37.0023 31.8402 38.2201 31.934 39.4379C31.934 39.8595 32.1215 40 32.4965 40.0937C36.2 40.9368 39.8567 41.8267 43.5133 42.7166C46.748 43.5129 48.9513 46.089 49.2795 49.4145C49.5607 52.3653 49.9358 55.363 50.2171 58.3138C50.2639 58.548 50.2639 58.7822 50.2639 59.0164C50.3108 59.5316 50.0295 59.8595 49.5139 59.9532C49.0451 60.0468 48.7169 59.8126 48.5294 59.3443C48.4825 59.2506 48.4825 59.2038 48.4356 59.1101C48.0606 58.267 48.1544 57.3771 48.0137 56.534C47.7324 54.0984 47.498 51.6628 47.2168 49.1803C46.9355 46.9789 45.3416 45.1991 43.1851 44.637C41.3099 44.1686 39.4347 43.7002 37.5595 43.2787C36.622 43.0445 36.622 43.0913 36.8095 43.9813C37.372 46.6511 37.9346 49.3677 38.4971 52.0843C38.6378 52.6464 38.8253 53.2553 38.2627 53.7237C37.7002 54.1452 37.0908 53.9578 36.5282 53.7237C35.3093 53.3021 34.0905 52.8806 32.8716 52.459C32.2621 52.2248 32.2153 52.2717 32.1684 52.9742C32.1684 54.7541 32.1684 56.4871 32.1684 58.267C32.1684 58.548 32.2153 58.8759 31.9809 59.1101C31.8402 59.6253 31.559 60 30.9964 59.9532C30.4807 59.9063 30.2463 59.5785 30.1526 59.1101C29.965 58.7822 30.0119 58.4543 30.0119 58.1265C30.0119 54.2857 30.0119 50.4918 30.0119 46.6511C30.0119 46.4169 30.0588 46.1358 29.9182 45.808C28.5118 46.9789 26.9179 47.6815 25.0427 47.6815C23.1675 47.6815 21.5736 46.9789 20.1203 45.808C19.9328 46.089 20.0266 46.3232 20.0266 46.5574C20.0266 50.3981 20.0266 54.2389 20.0266 58.1265C20.0266 58.4543 20.0734 58.7822 19.8859 59.1101C19.7922 59.5785 19.5578 59.9063 19.0421 59.9532C18.4795 60 18.1983 59.5785 18.0576 59.1101C17.8232 58.8759 17.8701 58.548 17.8701 58.267C17.8701 56.4871 17.8701 54.7541 17.8701 52.9742C17.8701 52.2717 17.7763 52.2248 17.12 52.459C16.0418 52.8806 14.9167 53.2084 13.8384 53.63C13.5103 53.7705 13.229 53.8642 12.854 53.911C11.8226 54.0984 11.2601 53.5363 11.4476 52.5059C11.7289 51.007 12.057 49.5082 12.3852 48.0094C12.6665 46.6042 12.9477 45.1522 13.2759 43.7471C13.4165 43.0913 13.3696 43.0445 12.7602 43.185C10.8381 43.6534 8.91608 44.0749 6.99401 44.5433C5.07195 45.0117 3.75932 46.1827 3.05612 48.0562C2.96236 48.2904 2.8686 48.5246 2.72796 48.7119C2.58733 49.0867 2.30605 49.3208 1.88413 49.0398Z" fill="black"/>
<path d="M36.0125 4.49646C35.6843 4.91801 35.6374 5.38639 36.0125 5.80794C37.7939 7.9625 38.4971 10.4918 38.6377 13.2084C38.7315 15.0351 38.6846 16.815 38.6846 18.6417C38.6846 18.829 38.7784 19.0632 38.4971 19.11C38.2627 19.11 38.0283 19.3911 37.7939 19.1569C36.4813 17.8454 35.0749 16.6744 34.7936 14.7072C34.653 13.6768 34.5123 12.6463 34.4186 11.6627C34.3248 10.7728 33.9498 10.4918 33.0591 10.6791C27.8085 11.7564 22.558 11.7564 17.3075 10.6791C16.4168 10.4918 16.0417 10.7728 15.948 11.6627C15.8073 12.6463 15.7136 13.6768 15.5729 14.6604C15.4323 15.644 15.0573 16.5808 14.3541 17.3302C13.8384 17.8922 13.2758 18.4075 12.807 18.9695C12.5258 19.3442 12.1976 19.2506 11.8695 19.1569C11.5413 19.0164 11.6819 18.7353 11.6819 18.5011C11.6819 16.4403 11.6351 14.4262 11.6819 12.3653C11.7288 9.7892 12.9477 7.91567 15.3385 6.88522C15.7136 6.69787 16.0886 6.55735 16.1355 6.08897C16.1824 5.57375 15.9011 5.33955 15.5261 5.05852C14.4947 4.40279 13.7915 3.51286 13.3227 2.38873C13.1352 1.92035 13.1821 1.733 13.7446 1.733C18.1044 1.733 22.4174 1.733 26.7772 1.733C27.621 1.733 27.8554 1.4988 27.9023 0.74939C28.0429 0.983582 28.2773 0.936743 28.5117 0.983582C29.0743 1.07726 29.7775 1.21777 30.4338 1.35829C30.5744 2.1077 31.0901 2.48241 31.7933 2.66976C31.934 2.7166 32.1215 2.76344 32.2621 2.85712C32.8715 3.27866 33.481 3.3255 34.0904 2.90396C34.7467 3.41918 35.3562 3.9344 36.0125 4.49646Z" fill="#CC906E"/>
<path d="M1.88397 49.0398C2.49341 49.0866 2.82156 48.7587 3.00908 48.1967C3.71228 46.2763 5.02491 45.0117 7.04073 44.4964C9.24408 43.9344 11.4474 43.4192 13.7445 42.9039C13.6976 43.7002 13.4632 44.4496 13.3226 45.199C12.8069 47.6814 12.2913 50.1639 11.7756 52.6463C11.5881 53.5831 12.1506 54.1452 13.0882 53.8173C14.6352 53.3021 16.1823 52.74 17.7293 52.1779C18.0575 52.0843 18.245 51.9906 18.1981 52.459C18.1512 54.7072 18.1512 56.9086 18.1512 59.1569C12.6663 59.1569 7.18137 59.1569 1.69645 59.1569C1.50893 58.9695 1.50893 58.6885 1.55581 58.4543C1.74333 56.8618 1.83709 55.2693 2.07149 53.7236C2.16525 52.8805 2.21213 52.1779 1.27454 51.8501C1.41518 51.7564 1.60269 51.6627 1.60269 51.4285C1.69645 50.5854 1.79021 49.836 1.88397 49.0398Z" fill="#FEE07D"/>
<path d="M32.0743 59.1569C32.0743 56.9086 32.0743 54.7072 32.0275 52.459C32.0275 51.9906 32.215 52.0374 32.4963 52.1779C33.9495 52.6932 35.4497 53.2084 36.903 53.7236C37.3249 53.8641 37.7937 54.0515 38.2156 53.6768C38.5906 53.3021 38.4969 52.8805 38.4031 52.459C37.7468 49.4613 37.1373 46.4637 36.5279 43.466C36.481 43.3255 36.481 43.1381 36.4342 42.9039C38.9657 43.5128 41.4034 43.9812 43.7943 44.7775C45.9507 45.48 47.1696 47.1662 47.4509 49.4145C47.8259 52.459 48.1072 55.5035 48.4353 58.5948C48.4353 58.7822 48.4353 59.0163 48.4353 59.2037C43.0442 59.1569 37.5593 59.1569 32.0743 59.1569Z" fill="#FEE07D"/>
<path d="M20.0265 59.1569C20.0265 54.6136 20.0265 50.0235 20.0265 45.4333C23.4487 48.3373 26.824 48.3841 30.2463 45.4801L30.2931 45.527C30.2931 50.0703 30.2931 54.6136 30.2931 59.1569C26.8709 59.1569 23.4487 59.1569 20.0265 59.1569Z" fill="#E5646E"/>
<path d="M1.32142 51.8033C2.21213 51.8502 2.49341 52.1312 2.39965 53.0211C2.21213 54.7542 2.02462 56.534 1.8371 58.267C1.79022 58.5481 1.79022 58.8291 1.79022 59.157C1.69646 59.438 1.6027 59.719 1.32142 59.8596C1.04014 60.0469 0.711985 60.0469 0.430707 59.8596C0.102549 59.6722 -0.0380897 59.3912 0.00878994 59.0165C0.243188 56.8619 0.430707 54.7073 0.665105 52.5059C0.665105 52.1781 0.946383 51.9439 1.32142 51.8033Z" fill="black"/>
<path d="M34.0902 2.85715C33.6683 3.41921 33.3401 3.51289 32.6838 3.23186C32.1681 2.99767 31.6525 2.76347 31.1368 2.57612C30.5274 2.34193 30.293 1.96722 30.4336 1.35832C30.7149 0.796261 31.1837 0.702584 31.7462 0.936776C32.3088 1.17097 32.8713 1.40516 33.4339 1.63935C33.9965 1.82671 34.2309 2.24825 34.0902 2.85715Z" fill="black"/>
<path d="M36.7626 21.2178C36.3875 27.6347 33.6685 32.5527 27.9961 35.644C26.074 36.6745 24.1519 36.6745 22.2299 35.5972C17.0262 32.6932 14.2603 28.2904 13.604 22.3888C13.4634 21.171 13.6978 20.281 14.6354 19.4848C16.4637 17.986 17.3075 15.9719 17.4482 13.63C17.4482 13.4426 17.5419 13.2553 17.5419 13.0679C17.495 12.5527 17.7763 12.5059 18.1982 12.5995C22.8393 13.4426 27.4804 13.4426 32.1215 12.5995C32.5903 12.5059 32.7309 12.5995 32.7778 13.0679C32.8247 13.7705 32.9653 14.4262 33.0591 15.1288C33.2935 16.534 33.9498 17.7518 34.9343 18.7822C35.4031 19.2506 35.825 19.719 36.2938 20.1874C36.6688 20.5152 36.9032 20.8431 36.7626 21.2178Z" fill="#FBCFA2"/>
<path d="M20.3545 36.5339C23.5892 38.6885 26.7302 38.6417 29.9649 36.5339C30.0118 38.267 30.4337 39.8595 30.2461 41.452C29.918 44.1686 27.2927 46.089 24.4331 45.7143C21.8078 45.3864 19.8389 42.8571 20.0733 40.1873C20.167 39.0632 20.2608 37.8922 20.3545 36.5339Z" fill="#FDB882"/>
<path d="M13.8383 51.6628C14.0258 50.6323 14.2133 49.6955 14.4008 48.8056C14.8227 46.8384 15.2446 44.8712 15.6197 42.904C15.7134 42.5293 15.8072 42.3419 16.1822 42.2951C16.6979 42.2014 17.2605 42.0609 17.7761 41.9204C18.1043 41.8267 18.2449 41.8735 18.2449 42.2482C18.2449 44.7307 18.2449 47.26 18.2449 49.7424C18.2449 49.9297 18.2918 50.1171 18.0105 50.2576C16.6042 50.6792 15.2915 51.1475 13.8383 51.6628Z" fill="#FED064"/>
<path d="M36.3404 51.6159C35.0278 51.1475 33.7151 50.6791 32.4494 50.2576C32.1212 50.1639 32.0743 49.9766 32.0743 49.6955C32.0743 47.2131 32.0743 44.7307 32.0743 42.2482C32.0743 41.8735 32.1681 41.7798 32.5431 41.8735C33.1995 42.0609 33.9964 42.014 34.4652 42.4356C34.934 42.8103 34.8402 43.6534 34.9809 44.3091C35.4497 46.5573 35.9185 48.8056 36.3873 51.1007C36.3873 51.288 36.481 51.4285 36.3404 51.6159Z" fill="#FED064"/>
<path d="M9.57214 22.623C9.57214 21.3115 10.2285 20.6558 11.3536 20.8431C11.6348 20.89 11.7755 20.9836 11.7755 21.3115C11.8224 22.5762 11.963 23.8408 12.2443 25.0586C12.338 25.4333 12.1974 25.527 11.8224 25.4801C10.5566 25.2928 9.57214 24.075 9.57214 22.623Z" fill="#FDB882"/>
<path d="M40.7472 22.6697C40.7472 24.1217 39.7628 25.2927 38.497 25.48C38.0751 25.5269 37.9813 25.4332 38.0751 25.0117C38.3564 23.7939 38.497 22.5761 38.5439 21.3114C38.5439 20.9367 38.7314 20.843 39.0127 20.7962C40.0909 20.6557 40.7472 21.3583 40.7472 22.6697Z" fill="#FDB882"/>
<path d="M25.0894 31.0539C23.9174 31.1007 22.7923 30.8665 21.7141 30.3982C21.0109 30.1171 20.8234 29.6487 21.0578 29.1335C21.2922 28.6183 21.761 28.4778 22.3704 28.7588C24.1987 29.5082 25.9801 29.5082 27.8085 28.7588C28.4648 28.4778 28.9336 28.6183 29.168 29.1804C29.3555 29.6956 29.1211 30.1171 28.4648 30.3982C27.4334 30.8665 26.3083 31.1007 25.0894 31.0539Z" fill="black"/>
<path d="M20.2138 17.4707C21.1045 17.4239 21.9015 17.7049 22.6047 18.1733C23.1203 18.5012 23.2141 18.9696 22.9797 19.4379C22.6984 19.9063 22.2296 20 21.6671 19.6721C20.6826 19.1101 19.745 19.1101 18.7605 19.6721C18.198 20 17.7292 19.8595 17.4479 19.4379C17.2135 19.0164 17.3073 18.548 17.8229 18.2201C18.5261 17.6581 19.37 17.4239 20.2138 17.4707Z" fill="black"/>
<path d="M29.9181 17.4708C30.9495 17.4708 31.7464 17.705 32.4965 18.1733C33.0122 18.5012 33.1059 18.9696 32.8247 19.438C32.5434 19.8595 32.0746 20 31.5589 19.6722C30.5744 19.0633 29.59 19.0633 28.5586 19.6722C28.0429 19.9532 27.5273 19.8595 27.2929 19.438C27.0116 18.9696 27.1522 18.5012 27.7148 18.1733C28.4649 17.705 29.2618 17.4708 29.9181 17.4708Z" fill="black"/>
<path d="M21.4329 22.0141C21.4329 22.7167 20.8703 23.2319 20.1671 23.185C19.5108 23.1382 18.9951 22.623 18.9951 21.9672C18.9951 21.3115 19.6046 20.7495 20.2609 20.7495C20.9172 20.8431 21.4329 21.4052 21.4329 22.0141Z" fill="#010101"/>
<path d="M30.1055 23.2319C29.4023 23.2319 28.8398 22.6698 28.8866 22.0141C28.8866 21.3583 29.4492 20.7963 30.1055 20.7963C30.7618 20.7963 31.3713 21.3583 31.3713 22.0141C31.2775 22.6698 30.7618 23.2319 30.1055 23.2319Z" fill="#010101"/>
</svg>
